<svg xmlns="http://www.w3.org/2000/svg" xmlns:xlink="http://www.w3.org/1999/xlink" width="1177.445" height="534.855" viewBox="0 0 1177.445 534.855">
  <defs>
    <linearGradient id="linear-gradient" x1="0.504" y1="1" x2="0.504" y2="-0.015" gradientUnits="objectBoundingBox">
      <stop offset="0" stop-color="gray" stop-opacity="0.251"/>
      <stop offset="0.54" stop-color="gray" stop-opacity="0.122"/>
      <stop offset="1" stop-color="gray" stop-opacity="0.102"/>
    </linearGradient>
    <linearGradient id="linear-gradient-2" x1="0.504" y1="1" x2="0.504" y2="-0.02" xlink:href="#linear-gradient"/>
    <linearGradient id="linear-gradient-3" x1="0.5" y1="1" x2="0.5" y2="0" xlink:href="#linear-gradient"/>
    <linearGradient id="linear-gradient-4" x1="0.5" y1="1" x2="0.5" y2="0.001" xlink:href="#linear-gradient"/>
    <linearGradient id="linear-gradient-5" x1="0.496" y1="1" x2="0.496" y2="-0.015" xlink:href="#linear-gradient"/>
    <linearGradient id="linear-gradient-6" x1="0.496" y1="1" x2="0.496" y2="-0.02" xlink:href="#linear-gradient"/>
    <linearGradient id="linear-gradient-7" x1="0.5" y1="1" x2="0.5" y2="0.001" xlink:href="#linear-gradient"/>
  </defs>
  <g id="Group_35" data-name="Group 35" transform="translate(-29 -682.978)">
    <g id="Group_23" data-name="Group 23" transform="translate(29 682.978)">
      <path id="Path_22" data-name="Path 22" d="M218.208,186.718c-.73-24.579,3.29-53.5,22.461-65.1,9.507-5.761,20.855-5.846,31.119-9.62,23.027-8.444,28.964-32.687,51.251-55.9,42.7-31.138,67.392-26.051,108.067-10.743,39.383,14.821,58.993,59.393,74.117,66.643,32.162,15.406,45.431-68.187,102.9-82.891,20.109-5.144,37.549-7.2,57.951,0,26.269,9.276,56.533,37.385,55.46,37.274C757.309,96.426,834.59,92.738,887.19,76.73c11.39-3.122,16.641-4.668,23.017-6.946,14.464-5.168,24.613-11.081,43.977-28.138,27.545-24.262,76.69-30.353,90.679-30.053s59.492,10.024,84.724,29.662,15.33,49.507,43.429,54.908,35.985-1.27,51.275,6.5,31.339,21.907,37.549,65.789-8.724,54.939-20.477,108.608-110.941,176.141-109.7,188.8c1.934,19.772-75.841-3.5-69.42,15.017,3.026,8.73-133.615-24.364-134.346-15.017-1.51,19.481-71.509-19-76.129,0-4.684,19.214-53.714-32.289-68.109-20.792-10.145,8.1-22.73,11.042-34.954,13.472-69.876,14-140.923,18.694-211.812,22.338-61.843,3.183-125.126,5.391-184.377-15.017-26.579-9.133-53.218-23.968-68.566-50.151-10.526-17.947-12.5-37.485-17.244-57.7-3.665-15.628-14.474-27.7-20.638-42.337a361.377,361.377,0,0,1-27.862-128.961Z" transform="translate(-129.927 -11.584)" fill="#6c63ff" opacity="0.1"/>
      <path id="Path_23" data-name="Path 23" d="M157.191,563.934a214.633,214.633,0,0,1,74.55,7.181c9.343,2.583,18.738,5.876,28.429,5.6,11.9-.342,22.886-5.96,33.85-10.584,17.29-7.3,36-12.418,54.694-10.719,34.4,3.119,64.664,28.723,99.186,27.541,29.586-1.007,56.142-21.742,85.734-21.129,20.081.413,38.7,10.668,58.61,13.3,25.561,3.371,51.044-5.98,76.766-7.1a121.794,121.794,0,0,1,64.037,15.02c14.15,7.833,28.119,23.111,22.55,38.286-1.7,4.63-5.137,8.75-5.35,13.677-.478,10.978,13.678,15.627,20.741,24.035,8.69,10.332,5.169,27.36-5.046,36.2s-24.986,10.674-38.322,8.459-25.774-7.943-38.4-12.76a293.943,293.943,0,0,0-74.679-17.758c-17.678-1.815-35.653-2.015-53.111,1.291-13.071,2.467-25.716,6.864-38.767,9.279-65.3,12.056-129.832-26.043-196.208-25.785-18.654.077-37.133,3.19-55.657,5.4-57.421,6.839-115.482,4.933-173.284,3.022-5.847-.194-12.173-.562-16.67-4.307-8.4-7.013-5.169-20.606,0-30.24,8.477-15.711,20.03-29.252,28.675-44.744C118.9,570.379,139.254,565.362,157.191,563.934Z" transform="translate(-53.011 -229.349)" fill="#6c63ff"/>
      <g id="Group_17" data-name="Group 17" transform="translate(215.035 91.095)" opacity="0.05">
        <path id="Path_24" data-name="Path 24" d="M373.4,193.011a2.253,2.253,0,0,0,.317-1.292,8.2,8.2,0,0,0-.317,1.291Z" transform="translate(-373.4 -191.72)" fill="url(#linear-gradient)"/>
      </g>
      <g id="Group_18" data-name="Group 18" transform="translate(215.035 90.436)" opacity="0.05">
        <path id="Path_25" data-name="Path 25" d="M373.4,191.991a2.253,2.253,0,0,0,.317-1.292A8.2,8.2,0,0,0,373.4,191.991Z" transform="translate(-373.4 -190.7)" fill="url(#linear-gradient-2)"/>
      </g>
      <path id="Path_26" data-name="Path 26" d="M545.238,490.251c-1.493.749-13.769-1.04-24.146-2.738,5.589-1.292,9.692-2.97,11.63-5.166,11.146-12.812-37.966-5.392-53.492-2.777l-12.5-2.5-13.995-3.229c-9.653-13.561-24.288-41.057-31.369-54.688,2.352-.53,3.786-.781,3.786-.781-.11-.426-.226-.839-.342-1.259l.342-.065c-13.2-50.123-35.634-42.871-35.634-42.871-2.681,0-6.623,1.156-11.288,3.054A106.724,106.724,0,0,0,372.42,361.7l-.543-1.175c1.57.291,2.488.471,2.488.471s-.129-.349-.381-.988l.233.045.549.1h.116l.226.045.575.11s-18.091-49.141-56.633-78.7A69.707,69.707,0,0,0,283.8,267.352c-.685-.071-1.344-.123-2-.168l-.588-.058c-.5,0-.989-.052-1.473-.065h-1.034c-8.742-.129-15.119,2.034-22.485,5.812-1.344.646-2.714,1.375-4.135,2.144a29.941,29.941,0,0,1-3.276-.581q-.885-.213-1.732-.484a36.935,36.935,0,0,0,18.893-47.721,25.193,25.193,0,0,1,11.436-10.487,3.69,3.69,0,0,0,1.57-1.04,3.44,3.44,0,0,0,.446-1.97v-.717A12.723,12.723,0,0,0,268.5,199.239a20.206,20.206,0,0,1-5.292-1.53c-4.09-1.853-7.437-6.005-7.657-10.332a8.385,8.385,0,0,1,.1-1.149l-.1.149a5.732,5.732,0,0,1,.1-.807,3.8,3.8,0,0,1-5.214.911,5.991,5.991,0,0,1-2.068-4.72,10.918,10.918,0,0,1,.155-1.472,20.91,20.91,0,0,0,.5-4.133c.065-1.472-.213-2.809-1.4-3.584-2.52,3.1-6.6,4.578-10.59,4.895s-7.973-.387-11.934-.911c-9.782-1.291-20.779-1.137-28.158,5.418-4.8,4.262-7.217,10.526-9.466,16.538-3.179,8.492-6.345,17.706-6.248,26.56a29.4,29.4,0,0,0,2.307,12.063c3.088,7.1,9.356,12.721,11.268,20.238a21.308,21.308,0,0,0,1.505,5.127c1.738,3.177,5.815,4.449,9.4,3.958a37.146,37.146,0,0,0,4.407,3.745c-.032.42-.071.833-.11,1.246-.246,2.583-.594,5.166-1.073,7.62-.291-.42-.7-.187-1.887-.187h-.517l-.478.058h0l-.523.09h-.11l-.607.129h0l-.646.161h-.09l-.743.2h0l-.808.232h-.039c-2.3.691-5.1,1.7-8.057,2.835a36.154,36.154,0,0,0-9.692-19.418,19.729,19.729,0,0,0,2.488-4.591c1-2.686-.032-4.52-1.764-6.115a37.234,37.234,0,0,0-5.2-4.036,76.45,76.45,0,0,0-27.027-12.753,27.811,27.811,0,0,0-9.653-1.007,28.4,28.4,0,0,0-8.787,2.8,84.076,84.076,0,0,0-12.69,7.329c-2.694,1.886-5.337,3.965-8.451,5.043-4.665,1.614-10.06.865-14.363,3.293-6.022,3.4-7.372,11.559-6.461,18.417s3.321,13.69,2.242,20.522c-1.622,10.222-10.487,17.48-18.641,23.893-2.584,2.008-5.318,4.372-5.712,7.607-.246,2.021.5,4.017,1.118,5.96a50.611,50.611,0,0,1-.614,32.694A45.61,45.61,0,0,1,49.9,386.764c-3.748,1.937-8.29,3.952-9.168,8.085-.588,2.783.724,5.231,2.83,7.194a19.7,19.7,0,0,0,7.4,4.636,66.646,66.646,0,0,0,12.67,3.306c3.8.6,7.87.833,11.339-.833,4.038-1.937,6.5-6.051,8.632-9.99,5.453-10.061,11.721-16.751,16.9-24.855.685,2.957,1.234,5.017,1.292,5.134-4.3,3.874-6.306,10.229-3.954,20.464,9.24,40.23,21.115,50.123,21.115,50.123A13.982,13.982,0,0,1,121.408,444l.523.646h0c5.634,6.838,12.108,13.961,17.491,17.919a91.907,91.907,0,0,1,16.56,15.724,3.305,3.305,0,0,1-1.131,5.05c-8.458,4.12-26.969,14.7-4.9,19.424s40.06-7.749,46.385-13a3.311,3.311,0,0,0,.485-4.63l-20.094-25.1-2.475-3.054c1.331.943,2.681,1.937,4.077,2.951l-3.586-5.728,11.352,1.182c.33.691.646,1.369,1,2.015,2.261,4.643,4.659,8.272,7.159,10.287a24.359,24.359,0,0,0,3.231,13.348c9.046,16.415,58.939,16.312,72.908,15.956a32.561,32.561,0,0,0,3.928.381,32.9,32.9,0,0,0,6.513-.426l.452-.078a16.8,16.8,0,0,0,7.514-3.08l19.855-3.971.446.11c11.2,2.305,32.526,6,44.77,3.648,11.734-2.254,18.524,1.66,21.652,4.359a36.335,36.335,0,0,1-1.2,3.558h.174c-.782,1.724-3.67,10.067,8.077,19.456,7.676,6.135,59.954,7.749,77.871,3.958,12.922-2.725-5.434-10.552-7.921-10.552-5.628,0-23.1-11.837-24.914-13.076-.3-.387-.982-1.292-1.938-2.583,12.147,1.621,33.534,4.184,37.74,2.783,5.938-1.976,32.306,1.291,32.306,1.291s35.634,7.917,52.795,2.641S547.875,488.933,545.238,490.251Z" transform="translate(-40.592 -93.841)" fill="url(#linear-gradient-3)"/>
      <g id="Group_19" data-name="Group 19" transform="translate(265.334 236.808)" opacity="0.05">
        <path id="Path_27" data-name="Path 27" d="M452.218,437.8c-2.081.891-7.03,5.547-13.446,12.237-2.042-13.419-3.36-25.52-2.507-30.557a4.519,4.519,0,0,1,.756-2.1c3.877-.265,11.682,9.363,17.93,18.081C453.22,436.846,452.218,437.8,452.218,437.8Z" transform="translate(-436.002 -417.372)" fill="url(#linear-gradient-4)"/>
      </g>
      <g id="Group_20" data-name="Group 20" transform="translate(247.102 173.208)" opacity="0.05">
        <path id="Path_28" data-name="Path 28" d="M368.49,311.4Z" transform="translate(-368.49 -311.4)" fill="#fff"/>
      </g>
      <path id="Path_29" data-name="Path 29" d="M596.992,540s33.6,66.512,42,69.095S653.2,607.8,653.2,607.8s69.781-12.915,56.859,1.937-125.994,5.812-125.994,5.812L555.64,551.623Z" transform="translate(-208.142 -224.005)" fill="#ef91a3"/>
      <path id="Path_30" data-name="Path 30" d="M455.069,521.965S509.344,485.8,524.2,485.8c0,0,21.968-7.1,34.891,41.973,0,0-44.582,7.749-43.936,29.059l-8.4-18.081-36.183,40.036-43.936-29.7Z" transform="translate(-166.448 -204.679)" opacity="0.1"/>
      <path id="Path_31" data-name="Path 31" d="M455.069,519.965S509.344,483.8,524.2,483.8c0,0,21.968-7.1,34.891,41.973,0,0-44.582,7.749-43.936,29.059l-8.4-18.081-36.183,40.036-43.936-29.7Z" transform="translate(-166.448 -203.97)" fill="#5d526e"/>
      <path id="Path_32" data-name="Path 32" d="M533.557,487.173c-3.231,15.5-20.03,18.081-20.03,18.081L489.621,490.4s-3.373-22.246-6.222-35.807c-1.092-5.211-2.106-9.144-2.824-10.041-2.585-3.229,38.121-2.583,38.121-2.583a160.011,160.011,0,0,1,7.792,14.9C530.921,466.548,535.283,478.882,533.557,487.173Z" transform="translate(-184.927 -189.259)" fill="#ef91a3"/>
      <path id="Path_33" data-name="Path 33" d="M364.561,311.984l-13.569,64.575-32.952-8.395s-30.368-23.893-21.322-38.745c2.959-4.856,4.465-11.92,5.169-19.224,1.415-15.052-.646-31.144-.646-31.144s36.183-9.686,29.076,16.789c-2.921,10.874,2.332,15.537,9.537,17.261C350.2,315.562,364.561,311.984,364.561,311.984Z" transform="translate(-123.981 -130.95)" fill="#ef91a3"/>
      <path id="Path_34" data-name="Path 34" d="M343.252,313.089a35.98,35.98,0,0,1-16.644,4.062c-7.98,0-15.662-4.992-21.645-9.363a147.429,147.429,0,0,0-.323-28.736s36.183-9.686,29.076,16.789C330.8,306.7,336.048,311.339,343.252,313.089Z" transform="translate(-134.033 -130.95)" opacity="0.1"/>
      <ellipse id="Ellipse_1" data-name="Ellipse 1" cx="36.183" cy="36.162" rx="36.183" ry="36.162" transform="translate(156.393 112.572)" fill="#ef91a3"/>
      <path id="Path_35" data-name="Path 35" d="M303.022,371.135l9.815,13.69,5.583-20.231a100.606,100.606,0,0,0,3.386-24.8,17.022,17.022,0,0,1,3.308-9.861c10.067-5.489,17.542-8.395,30.232-7.1a68.253,68.253,0,0,1,34.5,13.967c37.714,28.962,55.45,77.083,55.45,77.083s-51.69-10.332-49.105,1.292c0,0-22.614-36.162-27.783-30.35s10.984,82.655,10.984,82.655l-105.964,7.749L245.64,401.614l1.292-54.888s27.46-12.592,33.275-12.592c2.035,0,1.725-.71,2.584,2.583C286.107,349.386,295.385,360.48,303.022,371.135Z" transform="translate(-113.154 -146.965)" opacity="0.1"/>
      <path id="Path_36" data-name="Path 36" d="M526.489,456.848c-8.988-1.621-34.445-5.76-43.09-2.273-1.092-5.211-2.106-9.144-2.824-10.041-2.585-3.229,38.121-2.583,38.121-2.583a159.989,159.989,0,0,1,7.792,14.9Z" transform="translate(-185.008 -189.252)" opacity="0.1"/>
      <path id="Path_37" data-name="Path 37" d="M305.022,370.135l9.815,13.69,5.583-20.231a100.6,100.6,0,0,0,3.386-24.8,17.021,17.021,0,0,1,3.308-9.861c10.067-5.489,17.542-8.395,30.232-7.1a68.253,68.253,0,0,1,34.5,13.967c37.714,28.962,55.45,77.083,55.45,77.083s-51.69-10.332-49.105,1.292c0,0-22.614-36.162-27.783-30.35s10.984,82.655,10.984,82.655l-105.964,7.749L247.64,400.614l1.292-54.888s27.46-12.592,33.275-12.592c2.035,0,1.725-.71,2.584,2.583C288.107,348.386,297.385,359.48,305.022,370.135Z" transform="translate(-113.862 -146.611)" fill="#dfecfb"/>
      <path id="Path_38" data-name="Path 38" d="M286.39,270.515c-3.631.646-7.857-.575-9.627-3.81a21.087,21.087,0,0,1-1.48-5.017c-1.874-7.355-8.012-12.85-11.036-19.811-5.091-11.733-.646-25.184,3.877-37.169,2.2-5.883,4.568-12.017,9.265-16.189,7.224-6.419,17.988-6.567,27.57-5.308,3.877.51,7.753,1.2,11.688.891s7.9-1.756,10.338-4.791c2.081,1.35,1.292,4.469.885,6.909s-.071,5.231,1.874,6.716,5.576.258,5.414-2.176c-1.751,5.166,2.113,10.887,7.107,13.147a19.78,19.78,0,0,0,5.169,1.5,12.459,12.459,0,0,1,10.687,12.508v.058a3.369,3.369,0,0,1-.433,1.937,3.612,3.612,0,0,1-1.538,1.02,24.637,24.637,0,0,0-11.63,11.113c-1.337,2.615-2.345,5.644-4.814,7.239-3.037,1.937-7,.982-10.609,1.291a15.053,15.053,0,0,0-12.994,10.668c-.84,2.99-.724,6.251-2.584,8.9a5.085,5.085,0,0,1-3.534,2.228c-2.8.3-4.09-2.208-6.1-3.506-4.723-3.048-7.753.975-9.233,4.772C293.007,267.751,291.831,269.514,286.39,270.515Z" transform="translate(-118.936 -96.229)" opacity="0.1"/>
      <path id="Path_39" data-name="Path 39" d="M286.39,269.515c-3.631.646-7.857-.575-9.627-3.81a21.087,21.087,0,0,1-1.48-5.017c-1.874-7.355-8.012-12.85-11.036-19.811-5.091-11.733-.646-25.184,3.877-37.169,2.2-5.883,4.568-12.017,9.265-16.189,7.224-6.419,17.988-6.567,27.57-5.308,3.877.51,7.753,1.2,11.688.891s7.9-1.756,10.338-4.791c2.081,1.35,1.292,4.469.885,6.909s-.071,5.231,1.874,6.716,5.576.258,5.414-2.176c-1.751,5.166,2.113,10.887,7.107,13.147a19.78,19.78,0,0,0,5.169,1.5,12.459,12.459,0,0,1,10.687,12.508v.058a3.369,3.369,0,0,1-.433,1.937,3.612,3.612,0,0,1-1.538,1.02,24.637,24.637,0,0,0-11.63,11.113c-1.337,2.615-2.345,5.644-4.814,7.239-3.037,1.937-7,.982-10.609,1.291a15.053,15.053,0,0,0-12.994,10.668c-.84,2.99-.724,6.251-2.584,8.9a5.085,5.085,0,0,1-3.534,2.228c-2.8.3-4.09-2.208-6.1-3.506-4.723-3.048-7.753.975-9.233,4.772C293.007,266.751,291.831,268.514,286.39,269.515Z" transform="translate(-118.936 -95.875)" fill="#572142"/>
      <g id="Group_21" data-name="Group 21" transform="translate(161.148 174.925)" opacity="0.05">
        <path id="Path_40" data-name="Path 40" d="M441.438,335.172c34.891,26.773,52.672,69.941,55.147,76.269,4.814.788,8.057,1.434,8.057,1.434s-17.736-48.114-55.45-77.063a68.253,68.253,0,0,0-34.5-13.974c-1.757-.181-3.411-.271-4.995-.3a68.607,68.607,0,0,1,31.738,13.632Z" transform="translate(-332.359 -321.54)"/>
        <path id="Path_41" data-name="Path 41" d="M293.037,341.389c3.315,12.682,12.586,23.776,20.23,34.431l9.815,13.69,2.029-7.336-4.083-5.7c-7.644-10.655-16.915-21.749-20.23-34.431-.859-3.293-.549-2.583-2.585-2.583a21.467,21.467,0,0,0-5.363,1.2Z" transform="translate(-291.009 -327.867)"/>
        <path id="Path_42" data-name="Path 42" d="M475.32,456.3c2.1,3.151,3.437,5.3,3.437,5.3-1.131-5.069,8.077-5.96,18.809-5.36C489.147,455.346,480.405,454.965,475.32,456.3Z" transform="translate(-355.581 -368.971)"/>
        <path id="Path_43" data-name="Path 43" d="M384.638,419.367c-3.056-2.874-5.634-4.262-7-2.725-5.169,5.812,10.984,82.655,10.984,82.655L290,506.51l.446,1.182,105.964-7.749S382.318,433.031,384.638,419.367Z" transform="translate(-290 -355.005)"/>
      </g>
      <path id="Path_44" data-name="Path 44" d="M240.4,626.791c-6.183,5.114-23.739,17.37-45.416,12.728s-3.483-14.981,4.8-19.017a3.228,3.228,0,0,0,1.1-4.946,89.989,89.989,0,0,0-16.243-15.414c-5.266-3.874-11.63-10.849-17.122-17.545h0c-2.9-3.506-5.563-6.929-7.753-9.8a3.229,3.229,0,0,1,3.444-5.082l42.36,11.494a3.231,3.231,0,0,1,1.68,1.1l13.924,17.39,19.674,24.577A3.227,3.227,0,0,1,240.4,626.791Z" transform="translate(-82.526 -233.778)" fill="#ef91a3"/>
      <path id="Path_45" data-name="Path 45" d="M221.2,597.67c-35.349-25.765-48.692-21.161-53.673-15.1-2.9-3.506-5.563-6.929-7.753-9.8a3.229,3.229,0,0,1,3.444-5.082l42.36,11.494a3.231,3.231,0,0,1,1.68,1.1Z" transform="translate(-82.526 -233.767)" opacity="0.1"/>
      <path id="Path_46" data-name="Path 46" d="M182.919,488.56s-56.859-18.727-47.813,20.664S155.782,558.3,155.782,558.3s3.231-31,58.151,9.686l-19.384-31,22.614-28.413Z" transform="translate(-73.693 -204.206)" fill="#5d526e"/>
      <path id="Path_47" data-name="Path 47" d="M169.885,431.749s-5.169,27.121,13.569,60.054c14.861,26.107-2.778,38.009-10.719,41.825a5.6,5.6,0,0,1-6.364-1.065c-5.234-5.166-15.268-18.3-9.408-38.822l3.877-10.332-21.322-15.5s-5.77-21.381-3.231-26.191S159.547,424,159.547,424Z" transform="translate(-74.228 -182.912)" opacity="0.1"/>
      <path id="Path_48" data-name="Path 48" d="M169.885,429.749s-5.169,27.121,13.569,60.054c14.861,26.107-2.778,38.009-10.719,41.825a5.6,5.6,0,0,1-6.364-1.065c-5.234-5.166-15.268-18.3-9.408-38.822l3.877-10.332-21.322-15.5s-5.77-21.381-3.231-26.191S159.547,422,159.547,422Z" transform="translate(-74.228 -182.203)" fill="#ef91a3"/>
      <path id="Path_49" data-name="Path 49" d="M216.878,354s-46.521,26.476-65.9,43.911-15.507,23.247-15.507,23.247,18.738-34.87,34.891-4.52c0,0,45.229-32.933,57.5-18.727S216.878,354,216.878,354Z" transform="translate(-74.054 -158.114)" fill="#dfecfb"/>
      <path id="Path_50" data-name="Path 50" d="M194.06,578.249l38.767-7.749L228.3,590.518l-28.093-2.925Z" transform="translate(-68.681 -229.98)" fill="#5d526e"/>
      <path id="Path_51" data-name="Path 51" d="M290.943,430.31l-1.292,14.206-46.521-7.749-14.215-9.04-21.322-7.749a37.064,37.064,0,0,0,1.131-21.594,32.768,32.768,0,0,0-3.715-8.756c-9.046-14.852,38.121-8.395,38.121-8.395a62.308,62.308,0,0,0-.711,10.119c.1,10.79,3.153,26,20.094,23.46l14.215,8.395Z" transform="translate(-98.367 -167.266)" fill="#ffc1cd"/>
      <path id="Path_52" data-name="Path 52" d="M267.64,425.626s23.907-10.332,35.537,10.978,16.8,20.018,16.8,20.018l-23.26-14.852Z" transform="translate(-120.939 -182.601)" fill="#ffc1cd"/>
      <path id="Path_53" data-name="Path 53" d="M292.646,584.106s-18.091,14.852-7.753,33.579,74.95,15.5,74.95,15.5S318.827,617.781,329,566.07C329,566.064,299.753,574.419,292.646,584.106Z" transform="translate(-125.915 -233.241)" fill="#5f5470"/>
      <path id="Path_54" data-name="Path 54" d="M428.1,623.6l-6.461,24.538,22.614-4.52s-9.692-20.664-8.4-26.476S428.1,623.6,428.1,623.6Z" transform="translate(-165.911 -250.78)" fill="#5f5470"/>
      <path id="Path_55" data-name="Path 55" d="M451.487,582s58.8,5.812,74.95,14.852l12.276,3.875s4.523-1.291,14.215,7.1l50.4,11.623,38.767,7.749s35.537,6.457,38.121,5.166,20.03,9.686,3.231,14.852-51.69-2.583-51.69-2.583-25.845-3.229-31.66-1.291-45.229-3.875-45.229-3.875L516.1,642.054s-6.461-9.686-23.26-6.457c-11.986,2.305-32.862-1.292-43.833-3.571a10.9,10.9,0,0,1-8.529-8.7L436.6,602.664Z" transform="translate(-168.09 -238.884)" fill="#ffc1cd"/>
      <path id="Path_56" data-name="Path 56" d="M451.487,582s58.8,5.812,74.95,14.852l12.276,3.875s4.523-1.291,14.215,7.1l50.4,11.623,38.767,7.749s35.537,6.457,38.121,5.166,20.03,9.686,3.231,14.852-51.69-2.583-51.69-2.583-25.845-3.229-31.66-1.291-45.229-3.875-45.229-3.875L516.1,642.054s-6.461-9.686-23.26-6.457c-11.986,2.305-32.862-1.292-43.833-3.571a10.9,10.9,0,0,1-8.529-8.7L436.6,602.664Z" transform="translate(-168.09 -238.884)" opacity="0.05"/>
      <path id="Path_57" data-name="Path 57" d="M242.419,391.34a35.617,35.617,0,0,1-33.7,7.032,32.769,32.769,0,0,0-3.715-8.743c-9.046-14.852,38.121-8.395,38.121-8.395A62.3,62.3,0,0,0,242.419,391.34Z" transform="translate(-98.367 -167.266)" opacity="0.1"/>
      <ellipse id="Ellipse_2" data-name="Ellipse 2" cx="35.537" cy="35.516" rx="35.537" ry="35.516" transform="translate(85.319 160.357)" fill="#ffc1cd"/>
      <path id="Path_58" data-name="Path 58" d="M204.64,431.635s27.137,14.852,28.429,24.538-3.877,21.31-3.877,21.31,12.276,73.615,27.783,78.781l41.352-40.036,34.891-15.5s-20.676-1.292-22.614-20.664,2.585-25.83-20.676-34.87-35.86-19.7-35.86-19.7l-6.009,1.518,30.885,16.241s17.445,10.332-27.783,2.583l-42.644-15.5Z" transform="translate(-98.645 -183.443)" opacity="0.1"/>
      <path id="Path_59" data-name="Path 59" d="M203.64,429.635s27.137,14.852,28.429,24.538-3.877,21.31-3.877,21.31,12.276,73.615,27.783,78.781l41.352-40.036,34.891-15.5s-20.676-1.291-22.614-20.664,2.585-25.83-20.676-34.87-35.86-19.7-35.86-19.7l-6.009,1.518,30.885,16.24s17.445,10.332-27.783,2.583l-42.644-15.5Z" transform="translate(-98.291 -182.734)" fill="#fff"/>
      <path id="Path_60" data-name="Path 60" d="M207.114,440.214s-26.491-9.686-20.03,21.31,40.06,84.593,40.06,84.593l78.827-27.121s24.553-18.727,18.091-20.664-40.706,10.332-40.706,10.332l-46.521,7.1-10.984-31s10.338-7.1,7.107-16.144l-.1-.271a49.958,49.958,0,0,0-24.714-27.625Z" transform="translate(-92.073 -188.148)" opacity="0.1"/>
      <path id="Path_61" data-name="Path 61" d="M205.114,438.214s-26.491-9.686-20.03,21.31,40.06,84.593,40.06,84.593l78.827-27.121s24.553-18.727,18.091-20.664-40.706,10.332-40.706,10.332l-46.521,7.1-10.984-31s10.338-7.1,7.107-16.144l-.1-.271a49.958,49.958,0,0,0-24.714-27.625Z" transform="translate(-91.365 -187.439)" fill="#ffc1cd"/>
      <path id="Path_62" data-name="Path 62" d="M160.1,274.511a27.268,27.268,0,0,0-9.453-.988,27.75,27.75,0,0,0-8.6,2.744,82.321,82.321,0,0,0-12.425,7.174c-2.643,1.847-5.227,3.874-8.27,4.94-4.568,1.582-9.853.846-14.06,3.229-5.9,3.332-7.217,11.32-6.345,18.036s3.231,13.406,2.2,20.1c-1.583,10.009-10.273,17.119-18.247,23.37-2.513,1.937-5.208,4.281-5.6,7.445-.239,1.982.485,3.933,1.092,5.812a49.553,49.553,0,0,1-.5,31.945,44.661,44.661,0,0,1-20.889,24.041c-3.67,1.937-8.115,3.874-8.975,7.917-1.092,5.166,4.445,9.111,9.369,10.932a65.247,65.247,0,0,0,12.406,3.229c3.722.588,7.7.82,11.1-.814,3.954-1.9,6.364-5.928,8.451-9.777,8.135-15.007,18.091-22.362,23.383-38.6,1.137-3.5,2.946-7.665,6.61-8.02,2.294-.22,4.368,1.22,6.313,2.447,9.4,5.921,19.28-.717,28.029-7.555,2.022-1.582,3.76-3.571,6.009-4.8,4.788-2.628,11.766-1.873,14.635-6.522a12.909,12.909,0,0,0,1.376-3.92c1.176-5.05,2.352-10.332,1-15.356-1.26-4.63-4.523-8.395-6.461-12.818s-2.042-10.39,1.906-13.115c1.182-.82,2.584-1.24,3.773-2.086,3.392-2.46,3.47-7.374,3.45-11.565a6.157,6.157,0,0,1,.517-3.029,7.268,7.268,0,0,1,2.391-2.2,23.523,23.523,0,0,0,8.445-10.429c1.712-4.617-2.675-6.7-6.177-9.3A74.847,74.847,0,0,0,160.1,274.511Z" transform="translate(-43.884 -129.567)" opacity="0.1"/>
      <path id="Path_63" data-name="Path 63" d="M159.1,273.511a27.269,27.269,0,0,0-9.453-.988,27.751,27.751,0,0,0-8.6,2.744,82.322,82.322,0,0,0-12.425,7.174c-2.643,1.847-5.227,3.875-8.27,4.94-4.568,1.582-9.853.846-14.06,3.229-5.9,3.332-7.217,11.32-6.345,18.036s3.231,13.406,2.2,20.1c-1.583,10.009-10.273,17.119-18.247,23.37-2.513,1.937-5.208,4.281-5.6,7.445-.239,1.982.485,3.933,1.092,5.812a49.553,49.553,0,0,1-.5,31.945,44.661,44.661,0,0,1-20.889,24.041c-3.67,1.937-8.115,3.874-8.975,7.917-1.092,5.166,4.445,9.111,9.369,10.932a65.242,65.242,0,0,0,12.406,3.229c3.722.588,7.7.82,11.1-.814,3.954-1.9,23.2,12.259,35.531,1.611,8.135-15.007-8.988-33.75-3.7-49.984,1.137-3.5,2.946-7.665,6.61-8.02,2.294-.22,4.368,1.22,6.313,2.447,9.4,5.921,19.28-.717,28.029-7.555,2.022-1.582,3.76-3.571,6.009-4.8,4.788-2.628,11.766-1.873,14.635-6.522a12.91,12.91,0,0,0,1.376-3.92c1.176-5.05,2.352-10.332,1-15.356-1.26-4.63-4.523-8.395-6.461-12.818s-2.042-10.39,1.906-13.115c1.182-.82,2.585-1.24,3.773-2.086,3.392-2.46,3.47-7.374,3.45-11.565a6.157,6.157,0,0,1,.517-3.029,7.267,7.267,0,0,1,2.391-2.2,23.524,23.524,0,0,0,8.445-10.429c1.712-4.617-2.675-6.7-6.177-9.3A74.847,74.847,0,0,0,159.1,273.511Z" transform="translate(-43.53 -129.213)" fill="#332020"/>
      <path id="Path_64" data-name="Path 64" d="M563.792,612.56c-17.542,3.7-68.728,2.131-76.243-3.875-11.5-9.2-8.671-17.364-7.909-19.049h-.168s6.461-15.5,0-27.121c0,0-.646-14.206-14.215-25.184s-28.429-41.973-28.429-41.973L429.075,511.5s-11.63,35.445-23.745,51.182a25.08,25.08,0,0,0-4.807,10.648c-.8,4.268-3.567,9.647-12.154,11.139l-.446.077a32.043,32.043,0,0,1-31.66-13.438c-5.815-8.324-12.334-19.87-13.814-31.125a27.349,27.349,0,0,1,6.338-21.226l.071-.084c13.9-16.434,62.151-72.963,69.878-76.256,0,0,34.891-33.579,48.459,11.623s18.091,58.763,18.091,58.763,16.224,28.962,20.676,38.745c4.6,10.112,23.739,35.335,25.683,37.886,1.777,1.214,18.88,12.805,24.391,12.805C558.474,602.228,576.43,609.893,563.792,612.56Z" transform="translate(-138.019 -185.187)" fill="#ffc1cd"/>
      <g id="Group_22" data-name="Group 22" transform="translate(203.361 303.067)" opacity="0.05">
        <path id="Path_65" data-name="Path 65" d="M482.112,603.339c.549-5.017.252-10.978-2.643-16.2,0,0-.646-14.206-14.215-25.184s-28.429-41.973-28.429-41.973l-7.753,16.144s-11.63,35.445-23.745,51.182a25.081,25.081,0,0,0-4.807,10.648c-.8,4.268-3.567,9.647-12.154,11.139l-.446.077a32.043,32.043,0,0,1-31.66-13.438c-5.718-8.227-12.179-19.618-13.756-30.75a26.8,26.8,0,0,0-.058,7.374c1.48,11.249,8.031,22.8,13.814,31.125a32.043,32.043,0,0,0,31.66,13.438l.446-.078c8.587-1.492,11.352-6.871,12.154-11.139a25.08,25.08,0,0,1,4.807-10.648c12.089-15.737,23.745-51.169,23.745-51.169l7.753-16.144s14.861,31,28.429,41.973S479.469,594.9,479.469,594.9a23.063,23.063,0,0,1,2.643,8.44Z" transform="translate(-342.219 -519.98)"/>
      </g>
      <path id="Path_66" data-name="Path 66" d="M298.14,514.166s27.783-.646,25.845-9.686" transform="translate(-131.732 -211.422)" opacity="0.05"/>
      <path id="Path_67" data-name="Path 67" d="M204.74,677.115c9.343,2.583,18.738,5.876,28.429,5.6,11.9-.342,22.886-5.96,33.85-10.584,17.29-7.3,36-12.418,54.694-10.719,34.4,3.119,64.664,28.723,99.186,27.541,29.586-1.007,124.43-10.461,144.344-7.833,25.561,3.371,51.044-5.98,76.766-7.1a121.793,121.793,0,0,1,64.037,15.02c14.15,7.833,28.119,23.111,22.55,38.286-1.7,4.63-5.137,8.75-5.35,13.677-.478,10.978,13.678,15.627,20.74,24.035,4.041,4.8-.488,17.462-22.692,19.142-26.255,2.318-35.875,26.088-74.274,14.331-24.009-9.158-33.917-16.7-59.48-19.332-17.678-1.815-35.653-2.015-53.111,1.291-13.071,2.467-25.716,6.864-38.767,9.279-65.3,12.056-129.832-26.043-196.208-25.785-18.654.078-37.133,3.19-55.657,5.4-57.421,6.838-115.482,4.933-173.284,3.022-5.847-.194-12.173-.562-16.67-4.307-8.4-7.013-5.169-20.606,0-30.24,8.477-15.711,20.03-29.252,28.675-44.744C91.9,676.379,180.5,670.371,204.74,677.115Z" transform="translate(-43.456 -266.9)" fill="#6c63ff"/>
      <ellipse id="Ellipse_3" data-name="Ellipse 3" cx="44.582" cy="44.556" rx="44.582" ry="44.556" transform="translate(467.819 42.134)" fill="#6c63ff" opacity="0.1"/>
      <path id="Path_93" data-name="Path 93" d="M535.741,134.127h-3.819a2.673,2.673,0,1,0,0-5.347H500.986a2.673,2.673,0,1,0,0,5.347H504.8a2.673,2.673,0,1,0,0,5.347h-5.35a2.673,2.673,0,1,0,0,5.347h30.936a2.673,2.673,0,1,0,0-5.347h5.35a2.673,2.673,0,1,0,0-5.347Z" transform="translate(-78.625 -54.384)" fill="#6c63ff" opacity="0.1"/>
      <path id="Path_94" data-name="Path 94" d="M902.741,218.127h-3.819a2.673,2.673,0,1,0,0-5.347H867.986a2.673,2.673,0,1,0,0,5.347H871.8a2.673,2.673,0,1,0,0,5.347h-5.35a2.673,2.673,0,1,0,0,5.347h30.937a2.673,2.673,0,1,0,0-5.347h5.35a2.673,2.673,0,1,0,0-5.347Z" transform="translate(-275.057 -108.228)" fill="#6c63ff" opacity="0.1"/>
      <path id="Path_95" data-name="Path 95" d="M590.741,243.127h-3.819a2.673,2.673,0,1,0,0-5.347H555.986a2.673,2.673,0,1,0,0,5.347H559.8a2.673,2.673,0,1,0,0,5.347h-5.35a2.673,2.673,0,1,0,0,5.347h30.936a2.673,2.673,0,1,0,0-5.347h5.35a2.673,2.673,0,1,0,0-5.347Z" transform="translate(-121.541 -97.066)" fill="#6c63ff" opacity="0.1"/>
    </g>
    <g id="Group_32" data-name="Group 32" transform="translate(525.28 767.329)">
      <g id="Group_31" data-name="Group 31" transform="translate(0 15.735)">
        <path id="Path_23-2" data-name="Path 23" d="M719.312,563.934a214.634,214.634,0,0,0-74.55,7.181c-9.343,2.583-18.738,5.876-28.429,5.6-11.9-.342-22.886-5.96-33.85-10.584-17.29-7.3-36-12.418-54.694-10.719-34.4,3.119-64.664,28.723-99.186,27.541-29.586-1.007-56.142-21.742-85.734-21.129-20.082.413-59.628,14.419-85.35,13.3-22.32-.961-60.9-2.952-80.462,7.833-14.15,7.833,17.963,28.024-5.936,64.567,1.7,4.63,18.025,18.541,10.963,26.948-8.69,10.332-46.536,31.441-33.2,29.226s25.774-7.943,38.4-12.76a293.944,293.944,0,0,1,74.679-17.758c17.678-1.815,35.653-2.015,53.111,1.291,13.071,2.467,25.716,6.864,38.767,9.279,65.3,12.056,129.832-26.043,196.208-25.785,18.654.077,37.133,3.19,55.657,5.4,57.421,6.839,115.482,4.933,173.284,3.022,5.847-.194,12.173-.562,16.67-4.307,8.4-7.013,5.169-20.606,0-30.24-8.477-15.711-20.03-29.252-28.675-44.744C757.6,570.379,737.248,565.362,719.312,563.934Z" transform="translate(-137.096 -319.785)" fill="#6c63ff"/>
        <g id="Group_17-2" data-name="Group 17" transform="translate(471.039 0.659)" opacity="0.05">
          <path id="Path_24-2" data-name="Path 24" d="M373.721,193.011a2.253,2.253,0,0,1-.317-1.292,8.2,8.2,0,0,1,.317,1.291Z" transform="translate(-373.4 -191.72)" fill="url(#linear-gradient-5)"/>
        </g>
        <g id="Group_18-2" data-name="Group 18" transform="translate(471.039)" opacity="0.05">
          <path id="Path_25-2" data-name="Path 25" d="M373.721,191.991a2.253,2.253,0,0,1-.317-1.292A8.2,8.2,0,0,1,373.721,191.991Z" transform="translate(-373.4 -190.7)" fill="url(#linear-gradient-6)"/>
        </g>
        <g id="Group_19-2" data-name="Group 19" transform="translate(411.962 146.372)" opacity="0.05">
          <path id="Path_27-2" data-name="Path 27" d="M438.735,437.8c2.081.891,7.03,5.547,13.446,12.237,2.042-13.419,3.36-25.52,2.507-30.557a4.519,4.519,0,0,0-.756-2.1c-3.877-.265-11.682,9.363-17.93,18.081C437.734,436.846,438.735,437.8,438.735,437.8Z" transform="translate(-436.002 -417.372)" fill="url(#linear-gradient-7)"/>
        </g>
        <g id="Group_20-2" data-name="Group 20" transform="translate(448.312 82.772)" opacity="0.05">
          <path id="Path_28-2" data-name="Path 28" d="M368.49,311.4Z" transform="translate(-368.49 -311.4)" fill="#fff"/>
        </g>
        <path id="Path_29-2" data-name="Path 29" d="M670.308,540s-33.6,66.512-42,69.095S614.1,607.8,614.1,607.8s-69.781-12.915-56.859,1.937,125.994,5.812,125.994,5.812l28.429-63.929Z" transform="translate(-358.05 -314.441)" fill="#ef91a3"/>
        <path id="Path_30-2" data-name="Path 30" d="M530.666,521.965S476.392,485.8,461.531,485.8c0,0-21.968-7.1-34.891,41.973,0,0,44.583,7.749,43.936,29.059l8.4-18.081,36.183,40.036,43.936-29.7Z" transform="translate(-122.136 -295.115)" opacity="0.1"/>
        <path id="Path_31-2" data-name="Path 31" d="M530.666,519.965S476.392,483.8,461.531,483.8c0,0-21.968-7.1-34.891,41.973,0,0,44.583,7.749,43.936,29.059l8.4-18.081,36.183,40.036,43.936-29.7Z" transform="translate(-122.136 -294.406)" fill="#5d526e"/>
        <path id="Path_32-2" data-name="Path 32" d="M480.843,487.173c3.231,15.5,20.03,18.081,20.03,18.081L524.78,490.4S528.152,468.156,531,454.6c1.092-5.211,2.106-9.144,2.824-10.041,2.585-3.229-38.121-2.583-38.121-2.583a159.974,159.974,0,0,0-7.792,14.9C483.479,466.548,479.118,478.882,480.843,487.173Z" transform="translate(-131.756 -279.695)" fill="#ef91a3"/>
        <path id="Path_33-2" data-name="Path 33" d="M295.035,311.984,308.6,376.559l32.952-8.395s30.368-23.893,21.322-38.745c-2.959-4.856-4.465-11.92-5.169-19.224-1.415-15.052.646-31.144.646-31.144s-36.183-9.686-29.076,16.789c2.921,10.874-2.332,15.537-9.537,17.261C309.4,315.562,295.035,311.984,295.035,311.984Z" transform="translate(157.432 -221.386)" fill="#ef91a3"/>
        <path id="Path_34-2" data-name="Path 34" d="M304.64,313.089a35.98,35.98,0,0,0,16.644,4.062c7.98,0,15.662-4.992,21.645-9.363a147.431,147.431,0,0,1,.323-28.736s-36.183-9.686-29.076,16.789C317.1,306.7,311.844,311.339,304.64,313.089Z" transform="translate(172.534 -221.386)" opacity="0.1"/>
        <ellipse id="Ellipse_1-2" data-name="Ellipse 1" cx="36.183" cy="36.162" rx="36.183" ry="36.162" transform="translate(457.636 22.136)" fill="#ef91a3"/>
        <path id="Path_35-2" data-name="Path 35" d="M387.91,371.135l-9.815,13.69-5.583-20.231a100.6,100.6,0,0,1-3.386-24.8,17.022,17.022,0,0,0-3.308-9.861c-10.067-5.489-17.542-8.395-30.232-7.1a68.253,68.253,0,0,0-34.5,13.967c-37.714,28.962-55.45,77.083-55.45,77.083s51.69-10.332,49.105,1.292c0,0,22.614-36.162,27.783-30.35s-10.984,82.655-10.984,82.655l105.964,7.749,27.783-73.615L444,346.726s-27.46-12.592-33.275-12.592c-2.035,0-1.725-.71-2.584,2.583C404.825,349.386,395.547,360.48,387.91,371.135Z" transform="translate(108.616 -237.401)" opacity="0.1"/>
        <path id="Path_36-2" data-name="Path 36" d="M480.457,456.848c8.988-1.621,34.445-5.76,43.09-2.273,1.092-5.211,2.106-9.144,2.824-10.041,2.584-3.229-38.121-2.583-38.121-2.583a159.974,159.974,0,0,0-7.792,14.9Z" transform="translate(-124.302 -279.688)" opacity="0.1"/>
        <path id="Path_37-2" data-name="Path 37" d="M371.706,335.717c-.047-3.551-1.782-3.919-3.887-6.78-10.067-5.489-17.542-8.395-30.232-7.1a68.253,68.253,0,0,0-34.5,13.967c-37.714,28.962-55.45,77.083-55.45,77.083s51.69-10.332,49.105,1.292c0,0,22.614-36.162,27.783-30.35s-10.984,82.655-10.984,82.655l105.964,7.749,27.783-73.615L446,345.726s-27.46-12.592-33.275-12.592c-2.035,0-1.725-.71-2.585,2.583,0,0,1.316,4.732-9.868,6.36C392.463,343.212,371.745,339.234,371.706,335.717Z" transform="translate(105.323 -237.047)" fill="#fff"/>
        <path id="Path_44-2" data-name="Path 44" d="M160.26,626.791c6.183,5.114,23.739,17.37,45.416,12.728s3.483-14.981-4.8-19.017a3.228,3.228,0,0,1-1.1-4.946,89.99,89.99,0,0,1,16.244-15.414c5.266-3.874,11.63-10.849,17.122-17.545h0c2.9-3.506,5.563-6.929,7.753-9.8a3.229,3.229,0,0,0-3.444-5.082l-42.36,11.494a3.231,3.231,0,0,0-1.68,1.1L179.483,597.7l-19.674,24.577a3.227,3.227,0,0,0,.452,4.514Z" transform="translate(368.262 -324.214)" fill="#ef91a3"/>
        <path id="Path_45-2" data-name="Path 45" d="M159.091,597.67c35.349-25.765,48.692-21.161,53.673-15.1,2.9-3.506,5.563-6.929,7.753-9.8a3.229,3.229,0,0,0-3.444-5.082l-42.36,11.494a3.231,3.231,0,0,0-1.68,1.1Z" transform="translate(388.634 -324.203)" opacity="0.1"/>
        <path id="Path_46-2" data-name="Path 46" d="M168.375,488.56s56.859-18.727,47.813,20.664S195.512,558.3,195.512,558.3s-3.231-31-58.151,9.686l19.384-31-22.614-28.413Z" transform="translate(408.793 -294.642)" fill="#5d526e"/>
        <path id="Path_47-2" data-name="Path 47" d="M154.975,431.749s5.169,27.121-13.569,60.054c-14.861,26.107,2.778,38.009,10.719,41.825a5.6,5.6,0,0,0,6.364-1.065c5.234-5.166,15.268-18.3,9.408-38.822l-3.877-10.332,21.322-15.5s5.77-21.381,3.231-26.191S165.313,424,165.313,424Z" transform="translate(435.763 -273.348)" opacity="0.1"/>
        <path id="Path_48-2" data-name="Path 48" d="M154.975,429.749s5.169,27.121-13.569,60.054c-14.861,26.107,2.778,38.009,10.719,41.825a5.6,5.6,0,0,0,6.364-1.065c5.234-5.166,15.268-18.3,9.408-38.822l-3.877-10.332,21.322-15.5s5.77-21.381,3.231-26.191S165.313,422,165.313,422Z" transform="translate(435.763 -272.639)" fill="#ef91a3"/>
        <path id="Path_49-2" data-name="Path 49" d="M149.712,354s46.521,26.476,65.9,43.911,15.507,23.247,15.507,23.247-18.738-34.87-34.891-4.52c0,0-45.229-32.933-57.5-18.727S149.712,354,149.712,354Z" transform="translate(393.859 -248.55)" fill="#dfecfb"/>
        <path id="Path_50-2" data-name="Path 50" d="M232.827,578.249,194.06,570.5l4.523,20.018,28.093-2.925Z" transform="translate(328.189 -320.416)" fill="#5d526e"/>
        <path id="Path_51-2" data-name="Path 51" d="M203.856,430.31l1.292,14.206,46.521-7.749,14.215-9.04,21.322-7.749a37.064,37.064,0,0,1-1.131-21.594,32.768,32.768,0,0,1,3.715-8.756c9.046-14.852-38.121-8.395-38.121-8.395a62.306,62.306,0,0,1,.711,10.119c-.1,10.79-3.153,26-20.094,23.46l-14.215,8.395Z" transform="translate(289.963 -257.703)" fill="#d88282"/>
        <path id="Path_52-2" data-name="Path 52" d="M319.976,425.626s-23.907-10.332-35.537,10.978-16.8,20.018-16.8,20.018L290.9,441.77Z" transform="translate(219.718 -273.037)" fill="#d88282"/>
        <path id="Path_53-2" data-name="Path 53" d="M348.9,584.106s18.091,14.852,7.753,33.579-74.95,15.5-74.95,15.5,41.016-15.4,30.846-67.112C312.548,566.064,341.791,574.419,348.9,584.106Z" transform="translate(170.765 -323.677)" fill="#5f5470"/>
        <path id="Path_54-2" data-name="Path 54" d="M437.793,623.6l6.461,24.538-22.614-4.52s9.692-20.664,8.4-26.476S437.793,623.6,437.793,623.6Z" transform="translate(-4.064 -341.216)" fill="#5f5470"/>
        <path id="Path_55-2" data-name="Path 55" d="M675.775,582s-58.8,5.812-74.95,14.852l-12.276,3.875s-4.523-1.291-14.215,7.1l-50.4,11.623L485.169,627.2s-35.537,6.457-38.121,5.166-20.03,9.686-3.231,14.852,51.69-2.583,51.69-2.583,25.845-3.229,31.66-1.291,45.229-3.875,45.229-3.875l38.767,2.583s6.461-9.686,23.26-6.457c11.986,2.305,32.862-1.292,43.833-3.571a10.9,10.9,0,0,0,8.529-8.7l3.877-20.664Z" transform="translate(-260.137 -329.32)" fill="#ffc1cd"/>
        <path id="Path_56-2" data-name="Path 56" d="M675.775,582s-58.8,5.812-74.95,14.852l-12.276,3.875s-4.523-1.291-14.215,7.1l-50.4,11.623L485.169,627.2s-35.537,6.457-38.121,5.166-20.03,9.686-3.231,14.852,51.69-2.583,51.69-2.583,25.845-3.229,31.66-1.291,45.229-3.875,45.229-3.875l38.767,2.583s6.461-9.686,23.26-6.457c11.986,2.305,32.862-1.292,43.833-3.571a10.9,10.9,0,0,0,8.529-8.7l3.877-20.664Z" transform="translate(-260.137 -329.32)" fill="#d88282"/>
        <path id="Path_57-2" data-name="Path 57" d="M204.567,391.34a35.617,35.617,0,0,0,33.7,7.032,32.769,32.769,0,0,1,3.715-8.743c9.046-14.852-38.121-8.395-38.121-8.395A62.3,62.3,0,0,1,204.567,391.34Z" transform="translate(337.776 -257.703)" opacity="0.1"/>
        <path id="Path_301" data-name="Path 301" d="M35.537,0A35.516,35.516,0,1,1,0,35.516,35.526,35.526,0,0,1,35.537,0Z" transform="translate(530.002 69.921)" fill="#d88282"/>
        <path id="Path_58-2" data-name="Path 58" d="M333.219,431.635s-27.137,14.852-28.429,24.538,3.877,21.31,3.877,21.31S296.39,551.1,280.883,556.263l-41.352-40.036-34.891-15.5s20.676-1.292,22.614-20.664-2.585-25.83,20.676-34.87,35.86-19.7,35.86-19.7l6.009,1.518-30.885,16.241s-17.445,10.332,27.783,2.583l42.644-15.5Z" transform="translate(247.182 -273.879)" opacity="0.1"/>
        <path id="Path_59-2" data-name="Path 59" d="M332.219,429.635s-27.137,14.852-28.429,24.538,3.877,21.31,3.877,21.31S295.39,549.1,279.883,554.263l-41.352-40.036-34.891-15.5s20.676-1.291,22.614-20.664-2.585-25.83,20.676-34.87,35.86-19.7,35.86-19.7l6.009,1.518-30.885,16.24s-17.445,10.332,27.783,2.583l42.644-15.5Z" transform="translate(248.828 -273.17)" fill="#d0d0d0"/>
        <path id="Path_60-2" data-name="Path 60" d="M304.1,440.214s26.491-9.686,20.03,21.31-40.06,84.593-40.06,84.593l-78.827-27.121s-24.553-18.727-18.091-20.664,40.706,10.332,40.706,10.332l46.521,7.1,10.984-31s-10.338-7.1-7.107-16.144l.1-.271a49.958,49.958,0,0,1,24.714-27.625Z" transform="translate(267.254 -278.584)" opacity="0.1"/>
        <path id="Path_61-2" data-name="Path 61" d="M302.1,438.214s26.491-9.686,20.03,21.31-40.06,84.593-40.06,84.593l-78.827-27.121s-24.553-18.727-18.091-20.664,40.706,10.332,40.706,10.332l46.521,7.1,10.984-31s-10.338-7.1-7.107-16.144l.1-.271a49.958,49.958,0,0,1,24.714-27.625Z" transform="translate(270.546 -277.875)" fill="#d88282"/>
        <path id="Path_63-2" data-name="Path 63" d="M81.906,273.511a27.269,27.269,0,0,1,9.453-.988,27.751,27.751,0,0,1,8.6,2.744,82.321,82.321,0,0,1,12.425,7.174c2.643,1.847,2.2,1.583,5.594,3.9l2.778,2.727,4.207,6.208c2.966,2.334,2.648,11.626,1.116,32.584-1.9,25.942-10.718,60.167-11.737,60.81-9.4,5.921-19.28-.717-28.029-7.555-2.022-1.582-3.76-3.571-6.009-4.8-4.788-2.628-11.766-1.873-14.635-6.522a12.91,12.91,0,0,1-1.376-3.92c-1.176-5.05-2.352-10.332-1-15.356,1.26-4.63,4.523-8.395,6.461-12.818s2.042-10.39-1.906-13.115c-1.182-.82-2.584-1.24-3.773-2.086-3.392-2.46-3.47-7.374-3.45-11.565a6.157,6.157,0,0,0-.517-3.029,7.267,7.267,0,0,0-2.391-2.2,23.524,23.524,0,0,1-8.445-10.429c-1.712-4.617,2.675-6.7,6.177-9.3A74.847,74.847,0,0,1,81.906,273.511Z" transform="translate(488.917 -219.649)" fill="#332020"/>
        <path id="Path_64-2" data-name="Path 64" d="M346.695,612.56c17.542,3.7,68.728,2.131,76.243-3.875,11.5-9.2,8.671-17.364,7.909-19.049h.168s-6.461-15.5,0-27.121c0,0,.646-14.206,14.215-25.184s28.429-41.973,28.429-41.973l7.753,16.144s11.63,35.445,23.745,51.182a25.079,25.079,0,0,1,4.807,10.648c.8,4.268,3.567,9.647,12.154,11.139l.446.077a32.043,32.043,0,0,0,31.66-13.438c5.815-8.324,12.334-19.87,13.814-31.125a27.349,27.349,0,0,0-6.339-21.226l-.071-.084c-13.9-16.434-62.151-72.963-69.878-76.256,0,0-34.891-33.579-48.459,11.623S425.2,512.805,425.2,512.805s-16.224,28.962-20.676,38.745c-4.6,10.112-23.739,35.335-25.683,37.886-1.777,1.214-18.88,12.805-24.391,12.805C352.012,602.228,334.057,609.893,346.695,612.56Z" transform="translate(-76.758 -275.623)" fill="#d88282"/>
        <g id="Group_22-2" data-name="Group 22" transform="translate(351.388 212.631)" opacity="0.05">
          <path id="Path_65-2" data-name="Path 65" d="M342.445,603.339c-.549-5.017-.252-10.978,2.643-16.2,0,0,.646-14.206,14.215-25.184s28.429-41.973,28.429-41.973l7.753,16.144s11.63,35.445,23.745,51.182a25.081,25.081,0,0,1,4.807,10.648c.8,4.268,3.567,9.647,12.154,11.139l.446.077a32.043,32.043,0,0,0,31.66-13.438c5.718-8.227,12.179-19.618,13.756-30.75a26.8,26.8,0,0,1,.058,7.374c-1.48,11.249-8.031,22.8-13.814,31.125a32.043,32.043,0,0,1-31.66,13.438l-.446-.078c-8.587-1.492-11.352-6.871-12.154-11.139a25.08,25.08,0,0,0-4.807-10.648c-12.089-15.737-23.745-51.169-23.745-51.169l-7.753-16.144s-14.861,31-28.429,41.973S345.088,594.9,345.088,594.9a23.063,23.063,0,0,0-2.643,8.44Z" transform="translate(-342.219 -519.98)"/>
        </g>
        <path id="Path_66-2" data-name="Path 66" d="M324.082,514.166s-27.783-.646-25.845-9.686" transform="translate(195.905 -301.858)" opacity="0.05"/>
        <path id="Path_67-2" data-name="Path 67" d="M677.846,669.935a214.635,214.635,0,0,0-74.55,7.181c-9.343,2.583-18.738,5.876-28.429,5.6-11.9-.342-22.886-5.96-33.85-10.584-17.29-7.3-36-12.418-54.694-10.719-34.4,3.119-64.664,28.723-99.186,27.541-29.586-1.007-56.142-21.742-85.734-21.129-20.082.413-38.7,10.668-58.61,13.3-25.561,3.371-51.044-5.98-76.766-7.1a121.794,121.794,0,0,0-64.037,15.02c-14.15,7.833-28.119,23.111-22.55,38.286,1.7,4.63,5.137,8.75,5.35,13.677.478,10.978,110.143,40.806,135.705,38.177,17.678-1.815,35.653-2.015,53.111,1.291,13.071,2.467,25.716,6.864,38.767,9.279C377.67,801.8,442.2,763.7,508.581,763.961c18.654.078,37.133,3.19,55.657,5.4,57.421,6.838,115.482,4.933,173.284,3.022,5.847-.194,12.173-.562,16.67-4.307,8.4-7.013,5.169-20.606,0-30.24-8.477-15.711-20.03-29.252-28.675-44.744C716.135,676.379,695.782,671.362,677.846,669.935Z" transform="translate(-78.185 -357.336)" fill="#6c63ff"/>
      </g>
      <path id="Path_303" data-name="Path 303" d="M85.446,10.632C81.544,1.868,73.99,3.6,67.383,6.574c-8.366-1.936-16.322-7.737-25.336-4.3C33.165,15.757,3.354,11.794,9.693,33.748c.007,5.261-9.48,2.2-7.825,10.816C-3.162,61.146,20,92.545,33.3,85.93c-3.288-6.295-10.8-20.592.6-22.012C58.414,87.734,36.438,18.556,67.24,38.67,77.438,48.416,91.406,20.381,85.446,10.632Z" transform="translate(458.707 0) rotate(17)" fill="#2f2e41"/>
    </g>
  </g>
</svg>
