<svg xmlns="http://www.w3.org/2000/svg" xmlns:xlink="http://www.w3.org/1999/xlink" width="1040" height="682" viewBox="0 0 1040 682">
  <defs>
    <clipPath id="clip-path">
      <rect width="272" height="120" fill="none"/>
    </clipPath>
    <linearGradient id="linear-gradient" x1="0.504" y1="1" x2="0.504" y2="-0.015" gradientUnits="objectBoundingBox">
      <stop offset="0" stop-color="gray" stop-opacity="0.251"/>
      <stop offset="0.54" stop-color="gray" stop-opacity="0.122"/>
      <stop offset="1" stop-color="gray" stop-opacity="0.102"/>
    </linearGradient>
    <linearGradient id="linear-gradient-2" x1="0.504" y1="1" x2="0.504" y2="-0.02" xlink:href="#linear-gradient"/>
    <linearGradient id="linear-gradient-3" x1="0.5" y1="1" x2="0.5" y2="0" xlink:href="#linear-gradient"/>
    <linearGradient id="linear-gradient-4" x1="0.5" y1="1" x2="0.5" y2="0.001" xlink:href="#linear-gradient"/>
  </defs>
  <g id="Group_101" data-name="Group 101" transform="translate(14263 -14326)">
    <g id="Group_98" data-name="Group 98" transform="translate(4498.463 6700.957)">
      <g id="Component_8_1" data-name="Component 8 – 1" transform="translate(-18761.463 7625.043)">
        <g id="Component_7_1" data-name="Component 7 – 1">
          <g id="Group_51" data-name="Group 51" transform="translate(11571 -7169)">
            <g id="Component_4_1" data-name="Component 4 – 1" transform="translate(-11571 7169)">
              <rect id="Rectangle_589" data-name="Rectangle 589" width="1040" height="682" rx="16" fill="#fff" opacity="0.9"/>
            </g>
          </g>
        </g>
        <g id="Repeat_Grid_23" data-name="Repeat Grid 23" transform="translate(83 120)" clip-path="url(#clip-path)">
          <g transform="translate(11488 -8411)">
            <g id="Rectangle_598" data-name="Rectangle 598" transform="translate(-11488 8411)" fill="#fcfcfc" stroke="#161616" stroke-width="2">
              <rect width="120" height="120" rx="17" stroke="none"/>
              <rect x="1" y="1" width="118" height="118" rx="16" fill="none"/>
            </g>
          </g>
          <g transform="translate(11628 -8411)">
            <g id="Rectangle_598-2" data-name="Rectangle 598" transform="translate(-11488 8411)" fill="#fcfcfc" stroke="#161616" stroke-width="2">
              <rect width="120" height="120" rx="17" stroke="none"/>
              <rect x="1" y="1" width="118" height="118" rx="16" fill="none"/>
            </g>
          </g>
        </g>
        <text id="Photos" transform="translate(83 91)" fill="#151515" font-size="22" font-family="HelveticaNeue-Bold, Helvetica Neue" font-weight="700"><tspan x="0" y="0">Photos</tspan></text>
        <text id="Description" transform="translate(83 325)" fill="#151515" font-size="22" font-family="HelveticaNeue-Bold, Helvetica Neue" font-weight="700"><tspan x="0" y="0">Description</tspan></text>
        <g id="Rectangle_598-3" data-name="Rectangle 598" transform="translate(84 354)" fill="#fcfcfc" stroke="#161616" stroke-width="2">
          <rect width="880" height="223" rx="17" stroke="none"/>
          <rect x="1" y="1" width="878" height="221" rx="16" fill="none"/>
        </g>
        <text id="Natalie" transform="translate(83 662)" fill="#151515" font-size="22" font-family="HelveticaNeue-Bold, Helvetica Neue" font-weight="700"><tspan x="0" y="0">Natalie</tspan></text>
        <text id="_" data-name="+" transform="translate(278 185)" fill="#151515" font-size="22" font-family="HelveticaNeue-Bold, Helvetica Neue" font-weight="700"><tspan x="0" y="0">+</tspan></text>
        <text id="Preview_my_profile" data-name="Preview my profile" transform="translate(83 34)" fill="#151515" font-size="13" font-family="HelveticaNeue-Medium, Helvetica Neue" font-weight="500"><tspan x="0" y="0">Preview my profile</tspan></text>
        <g id="Group_17" data-name="Group 17" transform="translate(135.572 147.892)" opacity="0.05">
          <path id="Path_24" data-name="Path 24" d="M373.4,192.022a.574.574,0,0,0,.067-.3A2.1,2.1,0,0,0,373.4,192.022Z" transform="translate(-373.4 -191.72)" fill="url(#linear-gradient)"/>
        </g>
        <g id="Group_18" data-name="Group 18" transform="translate(135.572 147.737)" opacity="0.05">
          <path id="Path_25" data-name="Path 25" d="M373.4,191a.574.574,0,0,0,.067-.3A2.1,2.1,0,0,0,373.4,191Z" transform="translate(-373.4 -190.7)" fill="url(#linear-gradient-2)"/>
        </g>
        <path id="Path_26" data-name="Path 26" d="M146.709,246.837c-.314.175-2.9-.243-5.077-.64a4.663,4.663,0,0,0,2.446-1.208c2.344-3-7.984-1.261-11.248-.649l-2.628-.584L127.258,243a141.383,141.383,0,0,1-6.6-12.785c.495-.124.8-.183.8-.183-.023-.1-.048-.2-.072-.294l.072-.015c-2.776-11.718-7.493-10.022-7.493-10.022a6.607,6.607,0,0,0-2.374.714,26.763,26.763,0,0,0-1.223-3.632l-.114-.275c.33.068.523.11.523.11s-.027-.082-.08-.231l.049.011.115.024h.024l.048.011.121.026s-3.8-11.488-11.909-18.4a13.885,13.885,0,0,0-7.413-3.332c-.144-.017-.283-.029-.42-.039l-.124-.014c-.1,0-.208-.012-.31-.015h-.217a8.6,8.6,0,0,0-4.728,1.359c-.283.151-.571.322-.87.5a5.726,5.726,0,0,1-.689-.136q-.186-.05-.364-.113c3.812-1.923,5.569-6.855,3.973-11.156a5.556,5.556,0,0,1,2.4-2.452.775.775,0,0,0,.33-.243.878.878,0,0,0,.094-.46v-.168a2.9,2.9,0,0,0-2.3-2.988,3.93,3.93,0,0,1-1.113-.358,3,3,0,0,1-1.61-2.415,2.173,2.173,0,0,1,.022-.269l-.02.035a1.482,1.482,0,0,1,.02-.189.749.749,0,0,1-1.1.213,1.475,1.475,0,0,1-.435-1.1,2.829,2.829,0,0,1,.033-.344,5.41,5.41,0,0,0,.1-.966.923.923,0,0,0-.295-.838,3.038,3.038,0,0,1-2.227,1.144,10.823,10.823,0,0,1-2.509-.213c-2.057-.3-4.369-.266-5.921,1.267a9.607,9.607,0,0,0-1.99,3.866,19.547,19.547,0,0,0-1.314,6.209,7.549,7.549,0,0,0,.485,2.82c.649,1.661,1.967,2.974,2.369,4.731a5.409,5.409,0,0,0,.317,1.2,1.864,1.864,0,0,0,1.977.925,8.1,8.1,0,0,0,.927.876c-.007.1-.015.195-.023.291-.052.6-.125,1.208-.226,1.781-.061-.1-.147-.044-.4-.044h-.109l-.1.014h0l-.11.021h-.023l-.128.03h0l-.136.038H74.97l-.156.047h0l-.17.054h-.008c-.484.162-1.073.4-1.694.663A8.838,8.838,0,0,0,70.9,193.75a4.8,4.8,0,0,0,.523-1.073,1.288,1.288,0,0,0-.371-1.43,8,8,0,0,0-1.094-.944,15.421,15.421,0,0,0-5.683-2.982,5.29,5.29,0,0,0-2.03-.236,5.554,5.554,0,0,0-1.848.655,17.334,17.334,0,0,0-2.668,1.713,7.394,7.394,0,0,1-1.777,1.179c-.981.377-2.115.2-3.02.77-1.266.8-1.55,2.7-1.359,4.305s.7,3.2.471,4.8c-.341,2.39-2.205,4.087-3.92,5.586a2.932,2.932,0,0,0-1.2,1.778,3.68,3.68,0,0,0,.235,1.393,13.086,13.086,0,0,1-.129,7.643,10.407,10.407,0,0,1-4.484,5.737c-.788.453-1.743.924-1.928,1.89a1.886,1.886,0,0,0,.6,1.682,4.107,4.107,0,0,0,1.556,1.084,12.9,12.9,0,0,0,2.664.773,3.674,3.674,0,0,0,2.384-.195,4.94,4.94,0,0,0,1.815-2.335c1.147-2.352,2.465-3.916,3.554-5.811.144.691.26,1.173.272,1.2-.9.906-1.326,2.391-.831,4.784,1.943,9.4,4.44,11.718,4.44,11.718a3.481,3.481,0,0,1,.515-1.41l.11.151h0a25.557,25.557,0,0,0,3.678,4.189,20.381,20.381,0,0,1,3.482,3.676.839.839,0,0,1,.137.654.764.764,0,0,1-.375.527c-1.778.963-5.671,3.436-1.031,4.541s8.424-1.812,9.754-3.039a.835.835,0,0,0,.1-1.082l-4.225-5.868-.52-.714c.28.22.564.453.857.69l-.754-1.339,2.387.276c.069.162.136.32.209.471a7.226,7.226,0,0,0,1.505,2.4,6.209,6.209,0,0,0,.679,3.12c1.9,3.837,12.394,3.813,15.331,3.73a6.131,6.131,0,0,0,2.2-.011l.1-.018a3.349,3.349,0,0,0,1.58-.72l4.175-.928.094.026c2.356.539,6.84,1.4,9.414.853a4.8,4.8,0,0,1,4.553,1.019q-.106.423-.251.832h.037c-.164.4-.772,2.353,1.7,4.548,1.614,1.434,12.607,1.812,16.375.925,2.717-.637-1.143-2.467-1.666-2.467-1.183,0-4.857-2.767-5.239-3.057-.062-.091-.207-.3-.408-.6,2.554.379,7.051.978,7.936.651,1.249-.462,6.793.3,6.793.3s7.493,1.851,11.1.617S147.263,246.529,146.709,246.837Z" transform="translate(49.763 -27.569)" fill="url(#linear-gradient-3)"/>
        <g id="Group_19" data-name="Group 19" transform="translate(146.148 181.956)" opacity="0.05">
          <path id="Path_27" data-name="Path 27" d="M439.412,422.146a16.192,16.192,0,0,0-2.827,2.861,35.427,35.427,0,0,1-.527-7.144,1.133,1.133,0,0,1,.159-.491c.815-.062,2.456,2.189,3.77,4.227C439.623,421.925,439.412,422.146,439.412,422.146Z" transform="translate(-436.002 -417.372)" fill="url(#linear-gradient-4)"/>
        </g>
        <g id="Group_20" data-name="Group 20" transform="translate(142.314 167.088)" opacity="0.05">
          <path id="Path_28" data-name="Path 28" d="M368.49,311.4Z" transform="translate(-368.49 -311.4)" fill="#fff"/>
        </g>
        <path id="Path_29" data-name="Path 29" d="M564.335,540s7.065,15.549,8.831,16.153a3.378,3.378,0,0,0,2.989-.3s14.674-3.019,11.956.453-26.494,1.359-26.494,1.359l-5.978-14.945Z" transform="translate(-392.214 -339.531)" fill="#ef91a3"/>
        <path id="Path_30" data-name="Path 30" d="M432.618,493.983s11.413-8.454,14.538-8.454c0,0,4.619-1.661,7.337,9.813,0,0-9.375,1.812-9.239,6.793l-1.766-4.227-7.609,9.36-9.239-6.944Z" transform="translate(-281.572 -293.213)" opacity="0.1"/>
        <path id="Path_31" data-name="Path 31" d="M432.618,491.983s11.413-8.454,14.538-8.454c0,0,4.619-1.661,7.337,9.813,0,0-9.375,1.812-9.239,6.793l-1.766-4.227-7.609,9.36-9.239-6.944Z" transform="translate(-281.572 -291.515)" fill="#5d526e"/>
        <path id="Path_32" data-name="Path 32" d="M491.623,452.5a5.391,5.391,0,0,1-4.212,4.227l-5.027-3.472s-.709-5.2-1.308-8.371a10.384,10.384,0,0,0-.594-2.347c-.543-.755,8.016-.6,8.016-.6q.9,1.692,1.639,3.483C491.069,447.676,491.986,450.56,491.623,452.5Z" transform="translate(-327.959 -256.257)" fill="#ef91a3"/>
        <path id="Path_33" data-name="Path 33" d="M309.655,285.425l-2.853,15.1-6.929-1.963s-6.386-5.586-4.484-9.058a12.019,12.019,0,0,0,1.087-4.494,42.392,42.392,0,0,0-.136-7.281s7.608-2.264,6.114,3.925c-.614,2.542.49,3.632,2.005,4.035A12.09,12.09,0,0,0,309.655,285.425Z" transform="translate(-168.712 -116.508)" fill="#ef91a3"/>
        <path id="Path_34" data-name="Path 34" d="M312.759,285.683a6.961,6.961,0,0,1-3.5.95c-1.678,0-3.293-1.167-4.552-2.189a38.3,38.3,0,0,0-.068-6.718s7.609-2.264,6.114,3.925C310.14,284.19,311.244,285.274,312.759,285.683Z" transform="translate(-178.41 -116.508)" opacity="0.1"/>
        <ellipse id="Ellipse_1" data-name="Ellipse 1" cx="7.608" cy="8.454" rx="7.608" ry="8.454" transform="translate(123.24 152.912)" fill="#ef91a3"/>
        <path id="Path_35" data-name="Path 35" d="M257.706,333.892l2.064,3.2,1.174-4.73a25.991,25.991,0,0,0,.712-5.8,4.28,4.28,0,0,1,.7-2.305c2.117-1.283,3.689-1.963,6.357-1.661a13.6,13.6,0,0,1,7.254,3.265c7.93,6.771,11.66,18.02,11.66,18.02s-10.869-2.415-10.326.3c0,0-4.755-8.454-5.842-7.1s2.31,19.323,2.31,19.323l-22.282,1.812-5.842-17.21.272-12.832s5.774-2.944,7-2.944c.428,0,.363-.166.543.6C254.149,328.808,256.1,331.4,257.706,333.892Z" transform="translate(-127.427 -154.891)" opacity="0.1"/>
        <path id="Path_36" data-name="Path 36" d="M490.137,445.393c-1.89-.379-7.243-1.347-9.061-.531a10.385,10.385,0,0,0-.594-2.347c-.543-.755,8.016-.6,8.016-.6Q489.4,443.6,490.137,445.393Z" transform="translate(-327.977 -256.239)" opacity="0.1"/>
        <path id="Path_37" data-name="Path 37" d="M259.706,332.892l2.064,3.2,1.174-4.73a25.993,25.993,0,0,0,.712-5.8,4.28,4.28,0,0,1,.7-2.305c2.117-1.283,3.689-1.963,6.357-1.661a13.6,13.6,0,0,1,7.254,3.265c7.93,6.771,11.66,18.02,11.66,18.02s-10.869-2.415-10.326.3c0,0-4.755-8.454-5.842-7.1s2.31,19.323,2.31,19.323l-22.282,1.812-5.842-17.21.272-12.832s5.774-2.944,7-2.944c.428,0,.363-.166.543.6C256.149,327.808,258.1,330.4,259.706,332.892Z" transform="translate(-129.154 -154.042)" fill="#dfecfb"/>
        <path id="Path_38" data-name="Path 38" d="M267.113,200.632a1.836,1.836,0,0,1-2.024-.891,5.351,5.351,0,0,1-.311-1.173c-.394-1.719-1.685-3-2.321-4.632-1.071-2.743-.136-5.888.815-8.689a9.419,9.419,0,0,1,1.948-3.785c1.519-1.5,3.783-1.535,5.8-1.241a10.6,10.6,0,0,0,2.458.208,2.938,2.938,0,0,0,2.174-1.12c.438.316.272,1.045.186,1.615a1.733,1.733,0,0,0,.394,1.57.7.7,0,0,0,1.139-.509,2.771,2.771,0,0,0,1.495,3.074,3.847,3.847,0,0,0,1.087.35,2.837,2.837,0,0,1,2.247,2.924v.014a.86.86,0,0,1-.091.453.759.759,0,0,1-.323.239,5.467,5.467,0,0,0-2.446,2.6,4.028,4.028,0,0,1-1.012,1.692c-.639.453-1.473.229-2.231.3a3.268,3.268,0,0,0-2.732,2.494,6.824,6.824,0,0,1-.543,2.082,1.064,1.064,0,0,1-.743.521c-.59.071-.86-.516-1.283-.82-.993-.713-1.63.228-1.942,1.116C268.5,199.986,268.257,200.4,267.113,200.632Z" transform="translate(-141.546 -33.292)" opacity="0.1"/>
        <path id="Path_39" data-name="Path 39" d="M267.113,199.632a1.835,1.835,0,0,1-2.024-.891,5.351,5.351,0,0,1-.311-1.173c-.394-1.719-1.685-3-2.321-4.632-1.071-2.743-.136-5.888.815-8.689a9.419,9.419,0,0,1,1.948-3.785c1.519-1.5,3.783-1.535,5.8-1.241a10.6,10.6,0,0,0,2.458.208,2.938,2.938,0,0,0,2.174-1.12c.438.316.272,1.045.186,1.615a1.733,1.733,0,0,0,.394,1.57.7.7,0,0,0,1.139-.509,2.771,2.771,0,0,0,1.495,3.074,3.848,3.848,0,0,0,1.087.35,2.837,2.837,0,0,1,2.247,2.924v.014a.86.86,0,0,1-.091.453.759.759,0,0,1-.323.239,5.467,5.467,0,0,0-2.446,2.6,4.028,4.028,0,0,1-1.012,1.692c-.639.453-1.473.229-2.231.3a3.268,3.268,0,0,0-2.732,2.494,6.824,6.824,0,0,1-.543,2.082,1.064,1.064,0,0,1-.743.521c-.59.071-.86-.516-1.283-.82-.993-.713-1.63.228-1.942,1.116C268.5,198.986,268.257,199.4,267.113,199.632Z" transform="translate(-141.546 -32.443)" fill="#572142"/>
        <g id="Group_21" data-name="Group 21" transform="translate(124.24 167.489)" opacity="0.05">
          <path id="Path_40" data-name="Path 40" d="M416.374,324.727c7.337,6.259,11.076,16.351,11.6,17.83,1.012.184,1.694.335,1.694.335s-3.729-11.248-11.66-18.016a13.6,13.6,0,0,0-7.254-3.267c-.37-.042-.717-.063-1.05-.069a13.73,13.73,0,0,1,6.674,3.187Z" transform="translate(-393.437 -321.54)"/>
          <path id="Path_41" data-name="Path 41" d="M292.889,339.865c.7,2.965,2.647,5.558,4.254,8.049l2.064,3.2.427-1.715-.859-1.331c-1.607-2.491-3.557-5.084-4.254-8.049-.181-.77-.116-.6-.543-.6a4.133,4.133,0,0,0-1.128.281Z" transform="translate(-292.463 -336.704)"/>
          <path id="Path_42" data-name="Path 42" d="M475.32,455.634c.442.737.723,1.238.723,1.238-.238-1.185,1.7-1.393,3.955-1.253A13.87,13.87,0,0,0,475.32,455.634Z" transform="translate(-450.141 -435.218)"/>
          <path id="Path_43" data-name="Path 43" d="M309.9,416.793c-.643-.672-1.185-1-1.471-.637-1.087,1.359,2.31,19.323,2.31,19.323L290,437.165l.094.276,22.282-1.812S309.413,419.987,309.9,416.793Z" transform="translate(-290 -401.746)"/>
        </g>
        <path id="Path_44" data-name="Path 44" d="M176.189,581.427c-1.3,1.2-4.992,4.061-9.55,2.975s-.732-3.5,1.009-4.446a.746.746,0,0,0,.368-.516.819.819,0,0,0-.136-.641,19.952,19.952,0,0,0-3.416-3.6,24.8,24.8,0,0,1-3.6-4.1h0c-.61-.82-1.17-1.62-1.63-2.292a.823.823,0,0,1-.026-.886.647.647,0,0,1,.75-.3l8.907,2.687a.679.679,0,0,1,.353.258l2.928,4.065,4.137,5.746A.814.814,0,0,1,176.189,581.427Z" transform="translate(-52.637 -362.953)" fill="#ef91a3"/>
        <path id="Path_45" data-name="Path 45" d="M172.151,574.6c-7.433-6.023-10.239-4.947-11.286-3.531-.61-.82-1.17-1.62-1.63-2.292a.823.823,0,0,1-.026-.886.647.647,0,0,1,.75-.3l8.907,2.687a.679.679,0,0,1,.353.258Z" transform="translate(-52.637 -362.928)" opacity="0.1"/>
        <path id="Path_46" data-name="Path 46" d="M144.39,485.151s-11.956-4.378-10.054,4.831,4.348,11.473,4.348,11.473.679-7.246,12.228,2.264l-4.076-7.246,4.755-6.642Z" transform="translate(-31.067 -292.08)" fill="#5d526e"/>
        <path id="Path_47" data-name="Path 47" d="M142.842,425.812s-1.087,6.34,2.853,14.04c3.125,6.1-.584,8.886-2.254,9.778a1.092,1.092,0,0,1-1.338-.249,9.529,9.529,0,0,1-1.978-9.076l.815-2.415-4.484-3.623s-1.213-5-.679-6.123S140.668,424,140.668,424Z" transform="translate(-32.372 -241.043)" opacity="0.1"/>
        <path id="Path_48" data-name="Path 48" d="M142.842,423.812s-1.087,6.34,2.853,14.039c3.125,6.1-.584,8.886-2.254,9.778a1.092,1.092,0,0,1-1.338-.249,9.529,9.529,0,0,1-1.978-9.076l.815-2.415-4.484-3.623s-1.213-5-.679-6.123S140.668,422,140.668,422Z" transform="translate(-32.372 -239.346)" fill="#ef91a3"/>
        <path id="Path_49" data-name="Path 49" d="M152.336,354s-9.782,6.189-13.858,10.265-3.261,5.435-3.261,5.435,3.94-8.152,7.337-1.057c0,0,9.511-7.7,12.092-4.378S152.336,354,152.336,354Z" transform="translate(-31.948 -181.61)" fill="#dfecfb"/>
        <path id="Path_50" data-name="Path 50" d="M194.06,572.312l8.152-1.812-.951,4.68-5.907-.684Z" transform="translate(-77.341 -364.298)" fill="#5d526e"/>
        <path id="Path_51" data-name="Path 51" d="M222.169,391.636l-.272,3.321-9.782-1.812-2.989-2.113-4.484-1.812a9.586,9.586,0,0,0,.238-5.048,8.142,8.142,0,0,0-.781-2.047c-1.9-3.472,8.016-1.962,8.016-1.962a16.164,16.164,0,0,0-.149,2.366c.02,2.523.663,6.078,4.225,5.484l2.989,1.963Z" transform="translate(-91.319 -203.547)" fill="#ffc1cd"/>
        <path id="Path_52" data-name="Path 52" d="M267.64,423.708s5.027-2.415,7.473,2.566,3.533,4.68,3.533,4.68l-4.891-3.472Z" transform="translate(-146.438 -240.298)" fill="#ffc1cd"/>
        <path id="Path_53" data-name="Path 53" d="M284,570.286s-3.8,3.472-1.63,7.85,15.76,3.623,15.76,3.623-8.625-3.6-6.486-15.69C291.647,566.068,285.5,568.022,284,570.286Z" transform="translate(-158.589 -361.666)" fill="#5f5470"/>
        <path id="Path_54" data-name="Path 54" d="M423,617.455l-1.359,5.737,4.755-1.057s-2.038-4.831-1.766-6.189S423,617.455,423,617.455Z" transform="translate(-277.511 -403.702)" fill="#5f5470"/>
        <path id="Path_55" data-name="Path 55" d="M439.73,582s12.364,1.359,15.76,3.472l2.581.906s.951-.3,2.989,1.661l10.6,2.717,8.152,1.812s7.473,1.51,8.016,1.208,4.212,2.264.679,3.472-10.869-.6-10.869-.6-5.435-.755-6.657-.3-9.511-.906-9.511-.906l-8.152.6s-1.359-2.264-4.891-1.51c-2.52.539-6.91-.3-9.217-.835a2.44,2.44,0,0,1-1.793-2.033l-.815-4.831Z" transform="translate(-289.783 -375.191)" fill="#ffc1cd"/>
        <path id="Path_56" data-name="Path 56" d="M439.73,582s12.364,1.359,15.76,3.472l2.581.906s.951-.3,2.989,1.661l10.6,2.717,8.152,1.812s7.473,1.51,8.016,1.208,4.212,2.264.679,3.472-10.869-.6-10.869-.6-5.435-.755-6.657-.3-9.511-.906-9.511-.906l-8.152.6s-1.359-2.264-4.891-1.51c-2.52.539-6.91-.3-9.217-.835a2.44,2.44,0,0,1-1.793-2.033l-.815-4.831Z" transform="translate(-289.783 -375.191)" opacity="0.05"/>
        <path id="Path_57" data-name="Path 57" d="M211.965,382.526a6.926,6.926,0,0,1-7.085,1.644,8.141,8.141,0,0,0-.781-2.044c-1.9-3.472,8.016-1.962,8.016-1.962A16.165,16.165,0,0,0,211.965,382.526Z" transform="translate(-91.319 -203.547)" opacity="0.1"/>
        <ellipse id="Ellipse_2" data-name="Ellipse 2" cx="7.473" cy="8.303" rx="7.473" ry="8.303" transform="translate(108.295 164.083)" fill="#ffc1cd"/>
        <path id="Path_58" data-name="Path 58" d="M204.64,426.934s5.706,3.472,5.978,5.737a12.128,12.128,0,0,1-.815,4.982s2.581,17.21,5.842,18.417l8.7-9.36,7.337-3.623a5.215,5.215,0,0,1-4.755-4.831c-.408-4.529.543-6.038-4.348-8.152a28.123,28.123,0,0,1-7.541-4.6l-1.264.355,6.494,3.8s3.668,2.415-5.842.6l-8.967-3.623Z" transform="translate(-91.997 -242.316)" opacity="0.1"/>
        <path id="Path_59" data-name="Path 59" d="M203.64,424.934s5.706,3.472,5.978,5.737a12.128,12.128,0,0,1-.815,4.982s2.581,17.21,5.842,18.417l8.7-9.36,7.337-3.623a5.215,5.215,0,0,1-4.755-4.831c-.408-4.529.543-6.039-4.348-8.152a28.122,28.122,0,0,1-7.541-4.6l-1.264.355,6.494,3.8s3.668,2.415-5.842.6l-8.967-3.623Z" transform="translate(-91.133 -240.619)" fill="#fff"/>
        <path id="Path_60" data-name="Path 60" d="M190.494,439.116s-5.571-2.264-4.212,4.982,8.424,19.776,8.424,19.776l16.576-6.34s5.163-4.378,3.8-4.831-8.56,2.415-8.56,2.415l-9.782,1.661-2.31-7.246s2.174-1.661,1.495-3.774l-.02-.063a11.349,11.349,0,0,0-5.2-6.458Z" transform="translate(-75.949 -253.593)" opacity="0.1"/>
        <path id="Path_61" data-name="Path 61" d="M188.494,437.116s-5.571-2.264-4.212,4.982,8.424,19.776,8.424,19.776l16.576-6.34s5.163-4.378,3.8-4.831-8.56,2.415-8.56,2.415l-9.782,1.661-2.31-7.246s2.174-1.661,1.495-3.774l-.02-.063a11.349,11.349,0,0,0-5.2-6.458Z" transform="translate(-74.221 -251.895)" fill="#ffc1cd"/>
        <path id="Path_62" data-name="Path 62" d="M73.069,273.674a5.187,5.187,0,0,0-1.988-.231,5.428,5.428,0,0,0-1.808.642,16.97,16.97,0,0,0-2.613,1.677,7.344,7.344,0,0,1-1.739,1.155c-.961.37-2.072.2-2.956.755-1.24.779-1.518,2.646-1.334,4.216a18.724,18.724,0,0,1,.462,4.7c-.333,2.34-2.16,4-3.837,5.463a2.871,2.871,0,0,0-1.177,1.741,3.559,3.559,0,0,0,.23,1.359,12.813,12.813,0,0,1-.1,7.468,10.191,10.191,0,0,1-4.393,5.62c-.772.453-1.706.906-1.887,1.851-.23,1.208.935,2.13,1.97,2.556a12.625,12.625,0,0,0,2.609.755,3.593,3.593,0,0,0,2.334-.19,4.843,4.843,0,0,0,1.777-2.286c1.711-3.508,3.8-5.228,4.917-9.023.239-.818.62-1.792,1.39-1.875a2.112,2.112,0,0,1,1.327.572c1.977,1.384,4.054-.168,5.894-1.766a10.315,10.315,0,0,1,1.264-1.123c1.007-.614,2.474-.438,3.077-1.525a3.247,3.247,0,0,0,.289-.916,8.211,8.211,0,0,0,.209-3.59,24.1,24.1,0,0,0-1.359-3c-.408-1.034-.429-2.429.4-3.066.249-.192.543-.29.793-.488.713-.575.73-1.724.726-2.7a1.583,1.583,0,0,1,.109-.708,1.6,1.6,0,0,1,.5-.513,5.427,5.427,0,0,0,1.776-2.438c.36-1.079-.562-1.567-1.3-2.174A15.1,15.1,0,0,0,73.069,273.674Z" transform="translate(41.724 -113.193)" opacity="0.1"/>
        <path id="Path_63" data-name="Path 63" d="M72.069,272.674a5.187,5.187,0,0,0-1.988-.231,5.428,5.428,0,0,0-1.808.642,16.975,16.975,0,0,0-2.613,1.677,7.345,7.345,0,0,1-1.739,1.155c-.961.37-2.072.2-2.956.755-1.24.779-1.518,2.646-1.334,4.216a18.723,18.723,0,0,1,.462,4.7c-.333,2.34-2.16,4-3.837,5.463a2.87,2.87,0,0,0-1.177,1.741,3.559,3.559,0,0,0,.23,1.359,12.813,12.813,0,0,1-.1,7.468,10.191,10.191,0,0,1-4.393,5.62c-.772.453-1.706.906-1.887,1.851-.23,1.208.935,2.13,1.97,2.556a12.622,12.622,0,0,0,2.609.755,3.593,3.593,0,0,0,2.334-.19c.832-.444,4.879,2.866,7.471.377,1.711-3.508-1.89-7.89-.777-11.685.239-.818.62-1.792,1.39-1.875a2.112,2.112,0,0,1,1.327.572c1.977,1.384,4.054-.168,5.894-1.766a10.311,10.311,0,0,1,1.264-1.123c1.007-.614,2.474-.438,3.077-1.525a3.248,3.248,0,0,0,.289-.916,8.211,8.211,0,0,0,.209-3.59,24.1,24.1,0,0,0-1.359-3c-.408-1.034-.429-2.429.4-3.066.249-.192.543-.29.793-.488.713-.575.73-1.724.726-2.7a1.583,1.583,0,0,1,.109-.708,1.6,1.6,0,0,1,.5-.513,5.427,5.427,0,0,0,1.776-2.438c.36-1.079-.562-1.567-1.3-2.174A15.1,15.1,0,0,0,72.069,272.674Z" transform="translate(42.588 -112.345)" fill="#332020"/>
        <path id="Path_64" data-name="Path 64" d="M388.82,473c-3.689.865-14.452.5-16.032-.906-2.418-2.15-1.823-4.059-1.663-4.453h-.035s1.359-3.623,0-6.34a9.133,9.133,0,0,0-2.989-5.888c-2.853-2.566-5.978-9.813-5.978-9.813l-1.63,3.774s-2.446,8.286-4.993,11.965a6.193,6.193,0,0,0-1.011,2.489,3,3,0,0,1-2.556,2.6l-.094.018a6.464,6.464,0,0,1-6.657-3.142,18.779,18.779,0,0,1-2.9-7.276,6.892,6.892,0,0,1,1.333-4.962l.015-.02c2.922-3.842,13.069-17.057,14.694-17.827,0,0,7.337-7.85,10.19,2.717s3.8,13.738,3.8,13.738,3.412,6.771,4.348,9.058c.967,2.364,4.992,8.261,5.4,8.857.374.284,3.97,2.994,5.129,2.994C387.7,470.588,391.477,472.38,388.82,473Z" transform="translate(-208.935 -246.497)" fill="#ffc1cd"/>
        <g id="Group_22" data-name="Group 22" transform="translate(133.117 197.446)" opacity="0.05">
          <path id="Path_65" data-name="Path 65" d="M371.636,539.468a7.012,7.012,0,0,0-.556-3.788,9.133,9.133,0,0,0-2.989-5.888c-2.853-2.566-5.978-9.813-5.978-9.813l-1.63,3.774s-2.446,8.286-4.993,11.965a6.193,6.193,0,0,0-1.011,2.489,3,3,0,0,1-2.556,2.6l-.094.018a6.464,6.464,0,0,1-6.657-3.141,19.037,19.037,0,0,1-2.893-7.189,6.956,6.956,0,0,0-.012,1.724,18.9,18.9,0,0,0,2.9,7.276,6.464,6.464,0,0,0,6.657,3.142l.094-.018a3,3,0,0,0,2.556-2.6,6.193,6.193,0,0,1,1.011-2.489c2.542-3.679,4.993-11.962,4.993-11.962l1.63-3.774s3.125,7.246,5.978,9.813a9.133,9.133,0,0,1,2.989,5.888A5.833,5.833,0,0,1,371.636,539.468Z" transform="translate(-342.219 -519.98)"/>
        </g>
        <path id="Path_66" data-name="Path 66" d="M298.14,506.744s5.842-.151,5.435-2.264" transform="translate(-172.794 -309.374)" opacity="0.05"/>
      </g>
    </g>
    <text id="Life_is_filled_with_surprises_and_excitement._We_are_an_adventurous_couple_and_very_much_in_love._We_love_to_invite_sexy_friends_in_our_lives_and_to_explore_our_fantasies._We_think_communication_is_key_and_we_are_always_open_and_in_touch_with_our_significa" data-name="Life is filled with surprises and excitement. We are an adventurous couple and very much in love. We love to invite sexy friends in our lives and to explore our fantasies. We think communication is key and we are always open and in touch with our significa" transform="translate(-14159 14698)" font-size="14" font-family="HelveticaNeue-Bold, Helvetica Neue" font-weight="700"><tspan x="0" y="14">Life is filled with surprises and excitement. We are an adventurous couple and very much in love. We love to invite sexy </tspan><tspan x="0" y="31">friends in our lives and to explore our fantasies. We think communication is key and we are always open and in touch with </tspan><tspan x="0" y="48">our significant other.</tspan><tspan x="0" y="65"></tspan><tspan x="0" y="82">If you share our values and are open for casual meet-ups, send us a message and we’ll take it from there.</tspan></text>
    <g id="Group_97" data-name="Group 97" transform="translate(-6574 5962)">
      <rect id="Rectangle_627" data-name="Rectangle 627" width="1040" height="682" rx="15" transform="translate(-7689 8364)" fill="none"/>
    </g>
  </g>
</svg>
