<svg xmlns="http://www.w3.org/2000/svg" xmlns:xlink="http://www.w3.org/1999/xlink" width="1040" height="249" viewBox="0 0 1040 249">
  <defs>
    <linearGradient id="linear-gradient" x1="0.504" y1="1" x2="0.504" y2="-0.015" gradientUnits="objectBoundingBox">
      <stop offset="0" stop-color="gray" stop-opacity="0.251"/>
      <stop offset="0.54" stop-color="gray" stop-opacity="0.122"/>
      <stop offset="1" stop-color="gray" stop-opacity="0.102"/>
    </linearGradient>
    <linearGradient id="linear-gradient-2" x1="0.504" y1="1" x2="0.504" y2="-0.02" xlink:href="#linear-gradient"/>
    <linearGradient id="linear-gradient-3" x1="0.5" y1="1" x2="0.5" y2="0" xlink:href="#linear-gradient"/>
    <linearGradient id="linear-gradient-4" x1="0.5" y1="1" x2="0.5" y2="0.001" xlink:href="#linear-gradient"/>
  </defs>
  <g id="Group_110" data-name="Group 110" transform="translate(-9782 -4385)">
    <rect id="Rectangle_674" data-name="Rectangle 674" width="1040" height="249" rx="15" transform="translate(9782 4385)" fill="#fff"/>
    <g id="Rectangle_678" data-name="Rectangle 678" transform="translate(10321 4405)" fill="#fff" stroke="#000" stroke-width="2">
      <rect width="150" height="150" rx="11" stroke="none"/>
      <rect x="1" y="1" width="148" height="148" rx="10" fill="none"/>
    </g>
    <text id="_" data-name="+" transform="translate(10387 4491)" font-size="30" font-family="HelveticaNeue-Bold, Helvetica Neue" font-weight="700"><tspan x="0" y="0">+</tspan></text>
    <g id="Rectangle_676" data-name="Rectangle 676" transform="translate(9897 4405)" fill="#fff" stroke="#000" stroke-width="2">
      <rect width="150" height="150" rx="11" stroke="none"/>
      <rect x="1" y="1" width="148" height="148" rx="10" fill="none"/>
    </g>
    <g id="Rectangle_677" data-name="Rectangle 677" transform="translate(10109 4405)" fill="#fff" stroke="#000" stroke-width="2">
      <rect width="150" height="150" rx="11" stroke="none"/>
      <rect x="1" y="1" width="148" height="148" rx="10" fill="none"/>
    </g>
    <path id="Path_308" data-name="Path 308" d="M373.4,192.082a.661.661,0,0,0,.084-.362A2.4,2.4,0,0,0,373.4,192.082Z" transform="translate(9587.802 4248.692)" fill="url(#linear-gradient)"/>
    <path id="Path_309" data-name="Path 309" d="M373.4,191.062a.661.661,0,0,0,.084-.362A2.4,2.4,0,0,0,373.4,191.062Z" transform="translate(9587.802 4249.527)" fill="url(#linear-gradient-2)"/>
    <path id="Path_310" data-name="Path 310" d="M174.15,261.623c-.4.21-3.644-.291-6.39-.767a5.977,5.977,0,0,0,3.078-1.448c2.95-3.591-10.048-1.511-14.157-.778l-3.307-.7-3.7-.905a166.742,166.742,0,0,1-8.3-15.33c.622-.148,1-.219,1-.219-.029-.119-.06-.235-.091-.353l.091-.018c-3.494-14.051-9.431-12.018-9.431-12.018a8.629,8.629,0,0,0-2.987.856,31.051,31.051,0,0,0-1.539-4.355l-.144-.329c.416.081.658.132.658.132s-.034-.1-.1-.277l.062.013.145.029h.031l.06.013.152.031s-4.788-13.775-14.988-22.062a17.9,17.9,0,0,0-9.33-4c-.181-.02-.356-.034-.528-.047l-.156-.016c-.132,0-.262-.014-.39-.018h-.274a11.226,11.226,0,0,0-5.951,1.629c-.356.181-.718.386-1.094.6a7.526,7.526,0,0,1-.867-.163q-.234-.06-.458-.136a10.6,10.6,0,0,0,5-13.377,6.829,6.829,0,0,1,3.027-2.94.974.974,0,0,0,.416-.291,1.011,1.011,0,0,0,.118-.552v-.2a3.511,3.511,0,0,0-2.89-3.582,5.122,5.122,0,0,1-1.4-.429,3.6,3.6,0,0,1-2.026-2.9,2.49,2.49,0,0,1,.027-.322l-.026.042a1.7,1.7,0,0,1,.026-.226.971.971,0,0,1-1.38.255,1.725,1.725,0,0,1-.547-1.323,3.24,3.24,0,0,1,.041-.413,6.192,6.192,0,0,0,.132-1.159,1.078,1.078,0,0,0-.371-1,3.888,3.888,0,0,1-2.8,1.372,14.28,14.28,0,0,1-3.158-.255c-2.589-.362-5.5-.319-7.452,1.519a11.338,11.338,0,0,0-2.505,4.636,22.49,22.49,0,0,0-1.654,7.445,8.669,8.669,0,0,0,.61,3.381c.817,1.991,2.476,3.566,2.982,5.673a6.243,6.243,0,0,0,.4,1.437,2.387,2.387,0,0,0,2.488,1.11,10,10,0,0,0,1.166,1.05c-.009.118-.019.234-.029.349-.065.724-.157,1.448-.284,2.136-.077-.118-.185-.053-.5-.053H84.51l-.127.016h0l-.139.025h-.029l-.161.036h0l-.171.045H83.86l-.2.056h0l-.214.065h-.01c-.609.194-1.351.476-2.132.795a10.371,10.371,0,0,0-2.565-5.443,5.641,5.641,0,0,0,.658-1.287,1.5,1.5,0,0,0-.467-1.714,9.951,9.951,0,0,0-1.377-1.131,19.755,19.755,0,0,0-7.153-3.575,6.969,6.969,0,0,0-2.555-.282,7.22,7.22,0,0,0-2.326.786,21.98,21.98,0,0,0-3.358,2.055,9.356,9.356,0,0,1-2.237,1.414c-1.235.453-2.662.243-3.8.923-1.594.954-1.951,3.24-1.71,5.163s.879,3.838.593,5.753c-.429,2.866-2.775,4.9-4.933,6.7a3.515,3.515,0,0,0-1.512,2.132,4.226,4.226,0,0,0,.3,1.671,14.983,14.983,0,0,1-.162,9.165,12.6,12.6,0,0,1-5.643,6.879c-.992.543-2.194,1.108-2.426,2.266a2.2,2.2,0,0,0,.749,2.017,5.18,5.18,0,0,0,1.958,1.3,16.849,16.849,0,0,0,3.353.927,4.837,4.837,0,0,0,3-.233,5.976,5.976,0,0,0,2.285-2.8c1.443-2.82,3.1-4.7,4.473-6.967.181.829.327,1.406.342,1.439-1.137,1.086-1.669,2.867-1.047,5.736,2.445,11.277,5.588,14.051,5.588,14.051a4.052,4.052,0,0,1,.648-1.691l.139.181h0a31.169,31.169,0,0,0,4.629,5.023,24.983,24.983,0,0,1,4.383,4.408.968.968,0,0,1,.173.784.919.919,0,0,1-.472.631c-2.238,1.155-7.138,4.12-1.3,5.445s10.6-2.172,12.276-3.644a.966.966,0,0,0,.128-1.3l-5.318-7.036-.655-.856c.352.264.71.543,1.079.827l-.949-1.606,3,.331c.087.194.171.384.263.565a8.626,8.626,0,0,0,1.895,2.884,7.153,7.153,0,0,0,.855,3.742c2.394,4.6,15.6,4.572,19.3,4.473a8.141,8.141,0,0,0,1.04.107,8.231,8.231,0,0,0,1.724-.119l.12-.022a4.315,4.315,0,0,0,1.989-.863l5.255-1.113.118.031c2.965.646,8.608,1.682,11.849,1.023,3.105-.632,4.9.465,5.73,1.222q-.134.507-.316,1h.046c-.207.483-.971,2.822,2.138,5.454,2.031,1.72,15.867,2.172,20.609,1.11,3.42-.764-1.438-2.958-2.1-2.958-1.489,0-6.113-3.318-6.594-3.666-.079-.109-.26-.362-.513-.724,3.215.454,8.875,1.173,9.988.78,1.572-.554,8.55.362,8.55.362s9.431,2.219,13.972.74S174.847,261.254,174.15,261.623Z" transform="translate(9863.7 4264.375)" fill="url(#linear-gradient-3)"/>
    <path id="Path_311" data-name="Path 311" d="M440.294,423.1a19.939,19.939,0,0,0-3.559,3.43c-.54-3.762-.889-7.154-.664-8.566a1.315,1.315,0,0,1,.2-.588c1.026-.074,3.092,2.625,4.745,5.068C440.559,422.831,440.294,423.1,440.294,423.1Z" transform="translate(9538.513 4063.887)" fill="url(#linear-gradient-4)"/>
    <path id="Path_312" data-name="Path 312" d="M368.49,311.4Z" transform="translate(9601.199 4152.03)" fill="#fff"/>
    <path id="Path_313" data-name="Path 313" d="M566.584,540s8.892,18.645,11.115,19.369a4.426,4.426,0,0,0,3.762-.362s18.468-3.62,15.048.543-33.345,1.629-33.345,1.629l-7.524-17.921Z" transform="translate(9440.619 3963.457)" fill="#ef91a3"/>
    <path id="Path_314" data-name="Path 314" d="M434.164,495.683s14.364-10.137,18.3-10.137c0,0,5.814-1.991,9.234,11.766,0,0-11.8,2.172-11.628,8.146l-2.223-5.069-9.576,11.223-11.628-8.327Z" transform="translate(9546.514 4008.136)" opacity="0.1"/>
    <path id="Path_315" data-name="Path 315" d="M434.164,493.683s14.364-10.137,18.3-10.137c0,0,5.814-1.991,9.234,11.766,0,0-11.8,2.172-11.628,8.146l-2.223-5.069-9.576,11.223-11.628-8.327Z" transform="translate(9546.514 4009.773)" fill="#5d526e"/>
    <path id="Path_316" data-name="Path 316" d="M494.511,454.6c-.855,4.344-5.3,5.069-5.3,5.069l-6.327-4.163s-.893-6.236-1.647-10.037a11.985,11.985,0,0,0-.747-2.815c-.684-.905,10.089-.724,10.089-.724a45.848,45.848,0,0,1,2.062,4.176C493.813,448.823,494.967,452.28,494.511,454.6Z" transform="translate(9502.049 4043.784)" fill="#ef91a3"/>
    <path id="Path_317" data-name="Path 317" d="M313.436,287.039l-3.591,18.1-8.721-2.353s-8.037-6.7-5.643-10.861a13.863,13.863,0,0,0,1.368-5.389,48.445,48.445,0,0,0-.171-8.73s9.576-2.715,7.695,4.707c-.773,3.048.617,4.355,2.524,4.839C309.635,288.041,313.436,287.039,313.436,287.039Z" transform="translate(9654.527 4178.585)" fill="#ef91a3"/>
    <path id="Path_318" data-name="Path 318" d="M314.859,287.348a9.1,9.1,0,0,1-4.4,1.139c-2.112,0-4.145-1.4-5.729-2.625a43.764,43.764,0,0,0-.086-8.055s9.576-2.715,7.7,4.707C311.562,285.558,312.952,286.858,314.859,287.348Z" transform="translate(9644.805 4178.585)" opacity="0.1"/>
    <ellipse id="Ellipse_18" data-name="Ellipse 18" cx="9.576" cy="10.137" rx="9.576" ry="10.137" transform="translate(9945.683 4446.433)" fill="#ef91a3"/>
    <path id="Path_319" data-name="Path 319" d="M260.827,336.154l2.6,3.838,1.477-5.671a29.771,29.771,0,0,0,.9-6.951,4.96,4.96,0,0,1,.875-2.764c2.664-1.539,4.643-2.353,8-1.991a17.523,17.523,0,0,1,9.13,3.915c9.981,8.119,14.675,21.608,14.675,21.608s-13.68-2.9-13,.362c0,0-5.985-10.137-7.353-8.508s2.907,23.17,2.907,23.17l-28.044,2.172L245.64,344.7l.342-15.386s7.268-3.53,8.807-3.53c.539,0,.457-.2.684.724C256.35,330.058,258.805,333.168,260.827,336.154Z" transform="translate(9693.715 4141.562)" opacity="0.1"/>
    <path id="Path_320" data-name="Path 320" d="M492.64,446.089c-2.379-.454-9.116-1.615-11.4-.637a11.987,11.987,0,0,0-.747-2.815c-.684-.905,10.089-.724,10.089-.724A45.835,45.835,0,0,1,492.64,446.089Z" transform="translate(9502.027 4043.8)" opacity="0.1"/>
    <path id="Path_321" data-name="Path 321" d="M262.827,335.154l2.6,3.838,1.477-5.671a29.77,29.77,0,0,0,.9-6.951,4.96,4.96,0,0,1,.875-2.764c2.664-1.539,4.643-2.353,8-1.991a17.523,17.523,0,0,1,9.13,3.915c9.981,8.119,14.675,21.608,14.675,21.608s-13.68-2.9-13,.362c0,0-5.985-10.137-7.353-8.508s2.907,23.17,2.907,23.17l-28.044,2.172L247.64,343.7l.342-15.386s7.268-3.53,8.807-3.53c.539,0,.457-.2.684.724C258.35,329.058,260.805,332.168,262.827,335.154Z" transform="translate(9692.058 4142.381)" fill="#dfecfb"/>
    <path id="Path_322" data-name="Path 322" d="M268.44,204.877a2.355,2.355,0,0,1-2.548-1.068,6.174,6.174,0,0,1-.392-1.407c-.5-2.062-2.12-3.6-2.921-5.554-1.347-3.289-.171-7.06,1.026-10.419a11.114,11.114,0,0,1,2.452-4.538c1.912-1.8,4.761-1.841,7.3-1.488a13.977,13.977,0,0,0,3.093.25,3.76,3.76,0,0,0,2.736-1.343c.551.378.342,1.253.234,1.937a2.008,2.008,0,0,0,.5,1.883c.515.416,1.476.072,1.433-.61a3.278,3.278,0,0,0,1.881,3.686,5.014,5.014,0,0,0,1.368.42,3.438,3.438,0,0,1,2.828,3.506v.016a.991.991,0,0,1-.115.543.954.954,0,0,1-.407.286,6.7,6.7,0,0,0-3.078,3.115,4.791,4.791,0,0,1-1.274,2.029c-.8.543-1.854.275-2.808.362a4.047,4.047,0,0,0-3.439,2.99,7.874,7.874,0,0,1-.684,2.5,1.34,1.34,0,0,1-.935.624c-.742.085-1.082-.619-1.614-.983-1.25-.854-2.052.273-2.444,1.338A2.393,2.393,0,0,1,268.44,204.877Z" transform="translate(9680.17 4258.855)" opacity="0.1"/>
    <path id="Path_323" data-name="Path 323" d="M268.44,203.877a2.355,2.355,0,0,1-2.548-1.068,6.173,6.173,0,0,1-.392-1.406c-.5-2.062-2.12-3.6-2.921-5.554-1.347-3.289-.171-7.06,1.026-10.419a11.114,11.114,0,0,1,2.452-4.538c1.912-1.8,4.761-1.841,7.3-1.488a13.978,13.978,0,0,0,3.093.25,3.76,3.76,0,0,0,2.736-1.343c.551.378.342,1.253.234,1.937a2.008,2.008,0,0,0,.5,1.883c.515.416,1.476.072,1.433-.61a3.278,3.278,0,0,0,1.881,3.685,5.014,5.014,0,0,0,1.368.42,3.438,3.438,0,0,1,2.828,3.506v.016a.991.991,0,0,1-.115.543.954.954,0,0,1-.407.286,6.7,6.7,0,0,0-3.078,3.115,4.791,4.791,0,0,1-1.274,2.029c-.8.543-1.854.275-2.808.362a4.047,4.047,0,0,0-3.439,2.99,7.874,7.874,0,0,1-.684,2.5,1.34,1.34,0,0,1-.935.625c-.742.085-1.082-.619-1.614-.983-1.25-.854-2.052.273-2.444,1.338A2.393,2.393,0,0,1,268.44,203.877Z" transform="translate(9680.17 4259.674)" fill="#572142"/>
    <path id="Path_324" data-name="Path 324" d="M418.1,325.361c9.234,7.505,13.94,19.606,14.595,21.38,1.274.221,2.132.4,2.132.4s-4.694-13.488-14.675-21.6a17.523,17.523,0,0,0-9.13-3.917c-.465-.051-.9-.076-1.322-.083a17.656,17.656,0,0,1,8.4,3.821Z" transform="translate(9557.709 4142.372)"/>
    <path id="Path_325" data-name="Path 325" d="M292.9,339.958c.877,3.555,3.331,6.665,5.354,9.652l2.6,3.838.537-2.056-1.081-1.6c-2.023-2.987-4.477-6.1-5.354-9.652-.227-.923-.145-.724-.684-.724a5.414,5.414,0,0,0-1.419.337Z" transform="translate(9654.578 4127.745)"/>
    <path id="Path_326" data-name="Path 326" d="M475.32,455.674c.556.883.91,1.484.91,1.484-.3-1.421,2.137-1.671,4.978-1.5A18.312,18.312,0,0,0,475.32,455.674Z" transform="translate(9503.311 4032.719)"/>
    <path id="Path_327" data-name="Path 327" d="M315.046,416.949c-.809-.806-1.491-1.195-1.852-.764-1.368,1.629,2.907,23.17,2.907,23.17L290,441.377l.118.331,28.044-2.172S314.432,420.779,315.046,416.949Z" transform="translate(9656.94 4065.005)"/>
    <path id="Path_328" data-name="Path 328" d="M180.61,584.182c-1.636,1.434-6.283,4.869-12.02,3.568s-.922-4.2,1.271-5.331a.9.9,0,0,0,.464-.618.945.945,0,0,0-.171-.768,24.464,24.464,0,0,0-4.3-4.321,30.242,30.242,0,0,1-4.532-4.918h0c-.768-.983-1.472-1.942-2.052-2.748a.948.948,0,0,1-.032-1.062.832.832,0,0,1,.944-.362l11.211,3.222a.854.854,0,0,1,.445.309l3.685,4.875,5.207,6.889A.942.942,0,0,1,180.61,584.182Z" transform="translate(9765.464 3940.864)" fill="#ef91a3"/>
    <path id="Path_329" data-name="Path 329" d="M175.528,576c-9.355-7.223-12.887-5.932-14.2-4.234-.768-.983-1.472-1.942-2.052-2.748a.948.948,0,0,1-.032-1.062.832.832,0,0,1,.944-.362l11.211,3.222a.854.854,0,0,1,.445.31Z" transform="translate(9765.464 3940.889)" opacity="0.1"/>
    <path id="Path_330" data-name="Path 330" d="M147.043,485.358s-15.048-5.249-12.654,5.793,5.472,13.757,5.472,13.757.855-8.689,15.39,2.715l-5.13-8.689,5.985-7.965Z" transform="translate(9786.156 4009.229)" fill="#5d526e"/>
    <path id="Path_331" data-name="Path 331" d="M144.7,426.172s-1.368,7.6,3.591,16.835c3.933,7.319-.735,10.655-2.837,11.725a1.422,1.422,0,0,1-1.684-.3,11.051,11.051,0,0,1-2.49-10.883l1.026-2.9-5.643-4.344s-1.527-5.993-.855-7.342S141.968,424,141.968,424Z" transform="translate(9784.904 4058.458)" opacity="0.1"/>
    <path id="Path_332" data-name="Path 332" d="M144.7,424.172s-1.368,7.6,3.591,16.835c3.933,7.319-.735,10.655-2.837,11.725a1.422,1.422,0,0,1-1.684-.3,11.051,11.051,0,0,1-2.49-10.883l1.026-2.9-5.643-4.344s-1.527-5.993-.855-7.342S141.968,422,141.968,422Z" transform="translate(9784.904 4060.097)" fill="#ef91a3"/>
    <path id="Path_333" data-name="Path 333" d="M156.78,354s-12.312,7.422-17.442,12.309-4.1,6.517-4.1,6.517,4.959-9.775,9.234-1.267c0,0,11.97-9.232,15.219-5.249S156.78,354,156.78,354Z" transform="translate(9785.312 4115.788)" fill="#dfecfb"/>
    <path id="Path_334" data-name="Path 334" d="M194.06,572.672l10.26-2.172-1.2,5.611-7.435-.82Z" transform="translate(9743.414 3939.832)" fill="#5d526e"/>
    <path id="Path_335" data-name="Path 335" d="M226.9,393.986l-.342,3.982L214.25,395.8l-3.762-2.534-5.643-2.172a10.974,10.974,0,0,0,.3-6.053,9.485,9.485,0,0,0-.983-2.455c-2.394-4.163,10.089-2.353,10.089-2.353a18.482,18.482,0,0,0-.188,2.837c.026,3.025.834,7.288,5.318,6.576l3.762,2.353Z" transform="translate(9728.354 4094.627)" fill="#ffc1cd"/>
    <path id="Path_336" data-name="Path 336" d="M267.64,423.824s6.327-2.9,9.405,3.077,4.446,5.612,4.446,5.612l-6.156-4.163Z" transform="translate(9675.478 4059.178)" fill="#ffc1cd"/>
    <path id="Path_337" data-name="Path 337" d="M284.6,571.126s-4.788,4.163-2.052,9.413,19.836,4.344,19.836,4.344-10.855-4.317-8.163-18.813C294.219,566.068,286.479,568.411,284.6,571.126Z" transform="translate(9663.82 3942.105)" fill="#5f5470"/>
    <path id="Path_338" data-name="Path 338" d="M423.35,617.828l-1.71,6.878,5.985-1.267s-2.565-5.792-2.223-7.422S423.35,617.828,423.35,617.828Z" transform="translate(9550.332 3901.558)" fill="#5f5470"/>
    <path id="Path_339" data-name="Path 339" d="M440.54,582s15.561,1.629,19.836,4.163l3.249,1.086s1.2-.362,3.762,1.991l13.338,3.258,10.26,2.172s9.405,1.81,10.089,1.448,5.3,2.715.855,4.163-13.68-.724-13.68-.724-6.84-.905-8.379-.362-11.97-1.086-11.97-1.086l-10.26.724s-1.71-2.715-6.156-1.81c-3.172.646-8.7-.362-11.6-1a2.98,2.98,0,0,1-2.257-2.438l-1.026-5.792Z" transform="translate(9538.755 3929.059)" fill="#ffc1cd"/>
    <path id="Path_340" data-name="Path 340" d="M440.54,582s15.561,1.629,19.836,4.163l3.249,1.086s1.2-.362,3.762,1.991l13.338,3.258,10.26,2.172s9.405,1.81,10.089,1.448,5.3,2.715.855,4.163-13.68-.724-13.68-.724-6.84-.905-8.379-.362-11.97-1.086-11.97-1.086l-10.26.724s-1.71-2.715-6.156-1.81c-3.172.646-8.7-.362-11.6-1a2.98,2.98,0,0,1-2.257-2.438l-1.026-5.792Z" transform="translate(9538.755 3929.059)" opacity="0.05"/>
    <path id="Path_341" data-name="Path 341" d="M214.062,383.061a9.029,9.029,0,0,1-8.918,1.971,9.482,9.482,0,0,0-.983-2.451c-2.394-4.163,10.089-2.353,10.089-2.353A18.481,18.481,0,0,0,214.062,383.061Z" transform="translate(9728.354 4094.627)" opacity="0.1"/>
    <ellipse id="Ellipse_19" data-name="Ellipse 19" cx="9.405" cy="9.956" rx="9.405" ry="9.956" transform="translate(9926.872 4459.828)" fill="#ffc1cd"/>
    <path id="Path_342" data-name="Path 342" d="M204.64,427.22s7.182,4.163,7.524,6.879a13.941,13.941,0,0,1-1.026,5.974s3.249,20.636,7.353,22.084l10.944-11.223,9.234-4.344s-5.472-.362-5.985-5.793.684-7.241-5.472-9.775a35.647,35.647,0,0,1-9.491-5.521l-1.59.425,8.174,4.553s4.617,2.9-7.353.724l-11.286-4.344Z" transform="translate(9727.704 4057.23)" opacity="0.1"/>
    <path id="Path_343" data-name="Path 343" d="M203.64,425.22s7.182,4.163,7.524,6.879a13.941,13.941,0,0,1-1.026,5.974s3.249,20.636,7.353,22.084l10.944-11.223,9.234-4.344s-5.472-.362-5.985-5.793.684-7.241-5.472-9.775a35.647,35.647,0,0,1-9.491-5.521l-1.59.425,8.174,4.553s4.617,2.9-7.353.724l-11.286-4.344Z" transform="translate(9728.533 4058.868)" fill="#fff"/>
    <path id="Path_344" data-name="Path 344" d="M191.638,439.183s-7.011-2.715-5.3,5.974,10.6,23.713,10.6,23.713l20.862-7.6s6.5-5.25,4.788-5.793-10.773,2.9-10.773,2.9L199.5,460.362l-2.907-8.689s2.736-1.991,1.881-4.525l-.026-.076a13.763,13.763,0,0,0-6.541-7.744Z" transform="translate(9743.1 4046.353)" opacity="0.1"/>
    <path id="Path_345" data-name="Path 345" d="M189.638,437.183s-7.011-2.715-5.3,5.974,10.6,23.713,10.6,23.713l20.862-7.6s6.5-5.25,4.788-5.793-10.773,2.9-10.773,2.9L197.5,458.362l-2.907-8.689s2.736-1.991,1.881-4.525l-.026-.076a13.762,13.762,0,0,0-6.541-7.744Z" transform="translate(9744.758 4047.991)" fill="#ffc1cd"/>
    <path id="Path_346" data-name="Path 346" d="M79.061,273.725a6.834,6.834,0,0,0-2.5-.277,7.056,7.056,0,0,0-2.276.769A21.512,21.512,0,0,0,71,276.228a9.293,9.293,0,0,1-2.189,1.385c-1.209.443-2.608.237-3.721.905-1.561.934-1.91,3.173-1.679,5.056s.855,3.758.581,5.633c-.419,2.806-2.719,4.8-4.829,6.551a3.441,3.441,0,0,0-1.481,2.087,4.087,4.087,0,0,0,.289,1.629,14.67,14.67,0,0,1-.132,8.955,12.333,12.333,0,0,1-5.528,6.739c-.971.543-2.148,1.086-2.375,2.219-.289,1.448,1.176,2.554,2.48,3.065a16.5,16.5,0,0,0,3.283.905,4.73,4.73,0,0,0,2.938-.228,5.859,5.859,0,0,0,2.237-2.741c2.153-4.207,4.788-6.269,6.188-10.819.3-.981.78-2.149,1.749-2.248a2.726,2.726,0,0,1,1.671.686c2.488,1.66,5.1-.2,7.418-2.118a12.8,12.8,0,0,1,1.59-1.347c1.267-.737,3.114-.525,3.873-1.828a3.762,3.762,0,0,0,.364-1.1,9.4,9.4,0,0,0,.263-4.3,28.255,28.255,0,0,0-1.71-3.593c-.513-1.24-.54-2.913.5-3.676.313-.23.684-.348,1-.585.9-.69.918-2.067.913-3.242a1.817,1.817,0,0,1,.137-.849,1.97,1.97,0,0,1,.633-.615,6.535,6.535,0,0,0,2.235-2.923c.453-1.294-.708-1.879-1.635-2.607A19.341,19.341,0,0,0,79.061,273.725Z" transform="translate(9855.988 4181.782)" opacity="0.1"/>
    <path id="Path_347" data-name="Path 347" d="M78.061,272.725a6.832,6.832,0,0,0-2.5-.277,7.055,7.055,0,0,0-2.276.769A21.52,21.52,0,0,0,70,275.228a9.292,9.292,0,0,1-2.189,1.385c-1.209.444-2.608.237-3.721.905-1.561.934-1.91,3.173-1.679,5.056s.855,3.758.581,5.633c-.419,2.806-2.719,4.8-4.829,6.551a3.441,3.441,0,0,0-1.481,2.087,4.087,4.087,0,0,0,.289,1.629,14.67,14.67,0,0,1-.132,8.955,12.333,12.333,0,0,1-5.528,6.739c-.971.543-2.148,1.086-2.375,2.219-.289,1.448,1.176,2.554,2.48,3.065a16.493,16.493,0,0,0,3.283.905,4.73,4.73,0,0,0,2.938-.228c1.047-.532,6.141,3.437,9.4.452,2.153-4.207-2.379-9.461-.978-14.012.3-.981.78-2.149,1.749-2.248a2.726,2.726,0,0,1,1.671.686c2.488,1.66,5.1-.2,7.418-2.118a12.8,12.8,0,0,1,1.59-1.347c1.267-.737,3.114-.525,3.873-1.828a3.762,3.762,0,0,0,.364-1.1,9.4,9.4,0,0,0,.263-4.3,28.264,28.264,0,0,0-1.71-3.593c-.513-1.24-.54-2.913.5-3.676.313-.23.684-.348,1-.585.9-.69.918-2.067.913-3.242a1.817,1.817,0,0,1,.137-.849,1.971,1.971,0,0,1,.633-.615,6.534,6.534,0,0,0,2.235-2.923c.453-1.294-.708-1.879-1.635-2.607A19.34,19.34,0,0,0,78.061,272.725Z" transform="translate(9856.817 4182.602)" fill="#332020"/>
    <path id="Path_348" data-name="Path 348" d="M400.868,481.48c-4.643,1.037-18.189.6-20.178-1.086-3.044-2.578-2.295-4.868-2.093-5.34h-.044s1.71-4.344,0-7.6a10.726,10.726,0,0,0-3.762-7.06c-3.591-3.077-7.524-11.766-7.524-11.766l-2.052,4.525s-3.078,9.936-6.284,14.347a7.234,7.234,0,0,0-1.272,2.985,3.668,3.668,0,0,1-3.216,3.123l-.118.022a8.282,8.282,0,0,1-8.379-3.767,21.926,21.926,0,0,1-3.656-8.725,7.98,7.98,0,0,1,1.678-5.95l.019-.023c3.678-4.607,16.449-20.453,18.494-21.376,0,0,9.234-9.413,12.825,3.258s4.788,16.473,4.788,16.473,4.294,8.119,5.472,10.861c1.218,2.835,6.283,9.905,6.8,10.62.47.34,5,3.59,6.455,3.59C399.46,478.584,404.213,480.733,400.868,481.48Z" transform="translate(9616.107 4053.198)" fill="#ffc1cd"/>
    <path id="Path_349" data-name="Path 349" d="M379.243,543.348a8.051,8.051,0,0,0-.7-4.542,10.726,10.726,0,0,0-3.762-7.06c-3.591-3.077-7.524-11.766-7.524-11.766l-2.052,4.525s-3.078,9.936-6.284,14.347a7.234,7.234,0,0,0-1.272,2.985,3.668,3.668,0,0,1-3.217,3.122l-.118.022a8.282,8.282,0,0,1-8.379-3.767,22.236,22.236,0,0,1-3.641-8.62,7.95,7.95,0,0,0-.015,2.067,22.06,22.06,0,0,0,3.656,8.725,8.282,8.282,0,0,0,8.379,3.767l.118-.022a3.668,3.668,0,0,0,3.217-3.123,7.233,7.233,0,0,1,1.272-2.985c3.2-4.411,6.284-14.344,6.284-14.344l2.052-4.526s3.933,8.689,7.524,11.766a10.726,10.726,0,0,1,3.762,7.06A6.744,6.744,0,0,1,379.243,543.348Z" transform="translate(9615.894 3979.853)"/>
    <path id="Path_350" data-name="Path 350" d="M298.14,507.2s7.353-.181,6.84-2.715" transform="translate(9650.192 3992.547)" opacity="0.05"/>
    <path id="Path_444" data-name="Path 444" d="M-25.465.273c2.516,0,4.352-1.437,4.68-3.6v-.047H-22.52l-.016.031a2.817,2.817,0,0,1-2.93,2.07c-2.031,0-3.3-1.68-3.3-4.352v-.016C-28.762-8.32-27.5-10-25.473-10a2.906,2.906,0,0,1,2.945,2.281V-7.7h1.734l.008-.039a4.482,4.482,0,0,0-4.687-3.812c-3.133,0-5.078,2.266-5.078,5.906v.016C-30.551-1.992-28.6.273-25.465.273ZM-15.09.164c2.484,0,4.008-1.664,4.008-4.4V-4.25c0-2.734-1.531-4.4-4.008-4.4s-4.016,1.672-4.016,4.4v.016C-19.105-1.5-17.582.164-15.09.164Zm0-1.414c-1.461,0-2.281-1.1-2.281-2.984V-4.25c0-1.883.82-2.984,2.281-2.984s2.281,1.1,2.281,2.984v.016C-12.809-2.359-13.637-1.25-15.09-1.25ZM-6.238.164a2.523,2.523,0,0,0,2.5-1.445h.133V0h1.688V-8.484H-3.605v4.977A1.965,1.965,0,0,1-5.691-1.289c-1.242,0-1.758-.7-1.758-2.1V-8.484h-1.7v5.492C-9.145-.984-8.152.164-6.238.164ZM.52,2.828h1.7V-1.344H2.34A2.832,2.832,0,0,0,4.949.141c2.156,0,3.516-1.687,3.516-4.375V-4.25c0-2.672-1.375-4.383-3.516-4.383A2.821,2.821,0,0,0,2.34-7.148H2.215V-8.484H.52ZM4.473-1.3c-1.414,0-2.289-1.117-2.289-2.93V-4.25c0-1.812.875-2.93,2.289-2.93s2.266,1.1,2.266,2.93v.016C6.738-2.414,5.887-1.3,4.473-1.3Zm6.1,1.3h1.7V-11.812h-1.7Zm7.773.164A3.471,3.471,0,0,0,21.973-2.2l.016-.07-1.633.008-.031.063a2.068,2.068,0,0,1-1.937.977c-1.4,0-2.289-.945-2.32-2.57h6.016v-.594c0-2.547-1.453-4.258-3.82-4.258s-3.9,1.773-3.9,4.422v.008C14.363-1.531,15.863.164,18.348.164ZM18.27-7.258c1.148,0,2,.734,2.133,2.25H16.09A2.2,2.2,0,0,1,18.27-7.258ZM27.184.164C29.2.164,30.7-.906,30.7-2.477v-.016c0-1.227-.781-1.922-2.414-2.3l-1.344-.3c-.953-.227-1.344-.555-1.344-1.086V-6.2c0-.68.672-1.141,1.6-1.141A1.617,1.617,0,0,1,28.918-6.3v.016h1.617V-6.3c-.148-1.383-1.391-2.352-3.328-2.352-1.922,0-3.3,1.063-3.3,2.539V-6.1c0,1.242.742,1.969,2.344,2.336l1.352.313c.984.227,1.383.586,1.383,1.117v.016c0,.7-.727,1.172-1.773,1.172a1.735,1.735,0,0,1-1.836-1.07l-.008-.008h-1.7v.008C23.84-.8,25.137.164,27.184.164Z" transform="translate(9978 4585)"/>
    <path id="Path_445" data-name="Path 445" d="M-8.8,0H-1.2V-1.492H-6.414v-.156l2.391-2.383c2.047-2.031,2.641-3.016,2.641-4.3v-.023c0-1.859-1.547-3.2-3.648-3.2A3.558,3.558,0,0,0-8.9-8.031l.016.016h1.641l.008-.023A1.973,1.973,0,0,1-5.125-10.1,1.85,1.85,0,0,1-3.133-8.187v.023c0,.914-.43,1.492-1.922,3.047L-8.8-1.187ZM4.992.273A3.8,3.8,0,0,0,9.039-3.633v-.016A3.563,3.563,0,0,0,5.406-7.391a2.746,2.746,0,0,0-2.4,1.2H2.875l.344-3.594H8.4v-1.484H1.844L1.281-4.727H2.789A2.261,2.261,0,0,1,3.3-5.383a2.474,2.474,0,0,1,1.719-.609A2.273,2.273,0,0,1,7.367-3.617V-3.6A2.281,2.281,0,0,1,5.008-1.2,2.191,2.191,0,0,1,2.727-2.977l-.008-.062H1.078l.008.1A3.632,3.632,0,0,0,4.992.273Z" transform="translate(9978 4619)" fill="#6f6f6f"/>
    <path id="Path_442" data-name="Path 442" d="M-49.672.273c2.625,0,4.3-1.344,4.3-3.5v-.008c0-1.672-.969-2.625-3.336-3.133l-1.227-.273c-1.461-.312-2.055-.859-2.055-1.7v-.008c0-1.062.977-1.68,2.3-1.68,1.367-.008,2.25.664,2.4,1.586l.016.1h1.7l-.008-.109c-.125-1.75-1.687-3.1-4.078-3.1S-53.742-10.2-53.75-8.258v.008c0,1.664.984,2.727,3.273,3.211l1.234.266c1.492.32,2.1.883,2.1,1.75v.008c0,1.047-1.023,1.766-2.461,1.766-1.508,0-2.594-.656-2.687-1.68l-.008-.086h-1.719l.008.1C-53.852-1.016-52.219.273-49.672.273ZM-42.383-10a1.067,1.067,0,0,0,1.063-1.055,1.069,1.069,0,0,0-1.062-1.062,1.064,1.064,0,0,0-1.062,1.063A1.062,1.062,0,0,0-42.383-10Zm-.852,10h1.688V-8.484h-1.687Zm4.156,0h1.7V-4.977A1.972,1.972,0,0,1-35.367-7.2c1.242,0,1.828.7,1.828,2.1V0h1.688V-5.492c0-2.023-1.047-3.156-2.945-3.156A2.49,2.49,0,0,0-37.258-7.2h-.125V-8.484h-1.7Zm13.172,2.992c2.406,0,3.93-1.234,3.93-3.164V-8.484h-1.687v1.391h-.1a2.812,2.812,0,0,0-2.6-1.539c-2.2,0-3.555,1.711-3.555,4.133v.016c0,2.391,1.344,4.07,3.523,4.07a2.861,2.861,0,0,0,2.617-1.437h.125V-.18c0,1.156-.828,1.813-2.227,1.813-1.148,0-1.836-.414-1.977-1l-.008-.016h-1.711l-.016.016C-29.391,2.047-28.062,2.992-25.906,2.992Zm-.023-4.8c-1.445,0-2.258-1.1-2.258-2.68v-.016c0-1.578.813-2.687,2.258-2.687,1.43,0,2.3,1.109,2.3,2.688v.016C-23.625-2.906-24.492-1.812-25.93-1.812ZM-19.461,0h1.7V-11.812h-1.7Zm7.773.164A3.471,3.471,0,0,0-8.062-2.2l.016-.07-1.633.008-.031.063a2.068,2.068,0,0,1-1.937.977c-1.4,0-2.289-.945-2.32-2.57h6.016v-.594c0-2.547-1.453-4.258-3.82-4.258s-3.9,1.773-3.9,4.422v.008C-15.672-1.531-14.172.164-11.687.164Zm-.078-7.422c1.148,0,2,.734,2.133,2.25h-4.312A2.2,2.2,0,0,1-11.766-7.258ZM.945,0H2.6L5.016-8.43h.109L7.547,0H9.2l3.047-11.273h-1.82L8.359-2.508H8.25L5.883-11.273H4.258L1.906-2.508H1.8l-2.07-8.766h-1.82ZM16.914.164c2.484,0,4.008-1.664,4.008-4.4V-4.25c0-2.734-1.531-4.4-4.008-4.4S12.9-6.977,12.9-4.25v.016C12.9-1.5,14.422.164,16.914.164Zm0-1.414c-1.461,0-2.281-1.1-2.281-2.984V-4.25c0-1.883.82-2.984,2.281-2.984S19.2-6.133,19.2-4.25v.016C19.2-2.359,18.367-1.25,16.914-1.25ZM22.938,0h1.7V-5.211A1.857,1.857,0,0,1,26.414-7.2a1.5,1.5,0,0,1,1.633,1.578V0h1.688V-5.367A1.746,1.746,0,0,1,31.523-7.2c1.109,0,1.641.578,1.641,1.75V0h1.688V-5.852a2.518,2.518,0,0,0-2.711-2.8,2.779,2.779,0,0,0-2.586,1.516h-.133A2.41,2.41,0,0,0,27.07-8.648,2.342,2.342,0,0,0,24.758-7.18h-.125v-1.3h-1.7ZM40.781.164A3.471,3.471,0,0,0,44.406-2.2l.016-.07-1.633.008-.031.063a2.068,2.068,0,0,1-1.937.977c-1.4,0-2.289-.945-2.32-2.57h6.016v-.594c0-2.547-1.453-4.258-3.82-4.258s-3.9,1.773-3.9,4.422v.008C36.8-1.531,38.3.164,40.781.164ZM40.7-7.258c1.148,0,2,.734,2.133,2.25H38.523A2.2,2.2,0,0,1,40.7-7.258ZM46.531,0h1.7V-4.977A1.972,1.972,0,0,1,50.242-7.2c1.242,0,1.828.7,1.828,2.1V0h1.688V-5.492c0-2.023-1.047-3.156-2.945-3.156A2.49,2.49,0,0,0,48.352-7.2h-.125V-8.484h-1.7Z" transform="translate(10184 4585)"/>
    <path id="Path_443" data-name="Path 443" d="M-5.145,0h1.75V-11.273h-1.75L-8.113-9.164v1.719l2.836-2.023h.133ZM4.965,0H6.652V-2.242H8.207V-3.727H6.652v-7.547H4.16c-1.555,2.336-3.211,5-4.7,7.547v1.484h5.5ZM1.145-3.7V-3.8C2.3-5.781,3.676-7.977,4.887-9.8h.1v6.1Z" transform="translate(10184 4619)" fill="#6f6f6f"/>
    <rect id="Rectangle_679" data-name="Rectangle 679" width="17.954" height="22.496" transform="translate(10174.437 4420.995)" fill="#2f2e41"/>
    <path id="Path_351" data-name="Path 351" d="M147.92,451.681l-2.448,9.053,4.081,3.018,1.088-.823,1.9-9.328Z" transform="translate(10011.69 4074.25)" fill="#ffb8b8"/>
    <path id="Path_352" data-name="Path 352" d="M276.912,448.376,276.1,459.35h5.169V449.2Z" transform="translate(9913.438 4076.732)" fill="#ffb8b8"/>
    <path id="Path_353" data-name="Path 353" d="M213.528,169.635v6.584l10.066,1.646,8.7-3.566-1.632-4.115Z" transform="translate(9960.5 4286.064)" fill="#ffb8b8"/>
    <path id="Path_354" data-name="Path 354" d="M333.823,318.307l-8.705-1.646-2.176,17.832L317.5,356.714s-8.161,18.93-7.073,23.319l.544,1.372-.544,2.469,5.441,2.195,2.176-3.566s1.632,2.469,4.353-2.743,14.146-37.585,14.146-37.585l1.9,5.487a11.4,11.4,0,0,0-.272,5.213c.544,2.743,1.088,11.248,1.088,11.248s-2.992,14.815,1.088,15.912l.816,3.292,5.713.549,1.088-3.292s5.441-1.92,4.081-11.522-1.9-41.151-1.9-41.151l-5.359-13.326Z" transform="translate(9848.366 4142.88)" fill="#343434"/>
    <path id="Path_355" data-name="Path 355" d="M276.194,621.088s-1.36-1.1-1.9-.823-6.257,7.682-6.257,7.682-5.985,4.664-1.632,5.213,16.322-5.487,16.322-6.859-2.515-4.807-2.515-4.807A3.039,3.039,0,0,1,276.194,621.088Z" transform="translate(9882.601 3913.348)" fill="#f5f5f5"/>
    <path id="Path_356" data-name="Path 356" d="M429.73,620.233s4.9-.307,5.713.532.544,4.954.544,4.954.544,7.407-3.809,7.407-3.264-4.938-3.264-4.938Z" transform="translate(9759.261 3913.38)" fill="#f5f5f5"/>
    <ellipse id="Ellipse_20" data-name="Ellipse 20" cx="6.801" cy="6.859" rx="6.801" ry="6.859" transform="translate(10177.293 4417.84)" fill="#ffb8b8"/>
    <path id="Path_357" data-name="Path 357" d="M375.9,200.083s3.809,4.664-3.808,8.23,5.441,18.381,5.441,18.381,15.234-5.761,13.874-17.009c0,0-9.249-1.646-7.073-9.328Z" transform="translate(9803.701 4228.868)" fill="#ffb8b8"/>
    <path id="Path_358" data-name="Path 358" d="M353.139,231.891s-6.257-.823-6.529,4.389,0,17.832,0,17.832-2.72,10.974-1.36,20.576c0,0-1.632,11.248,2.72,10.7s1.088-11.522,1.088-11.522l1.9-17.832-.816-13.168,3.536-7.956Z" transform="translate(9822.386 4205.016)" fill="#ffb8b8"/>
    <path id="Path_359" data-name="Path 359" d="M444.958,236.9s5.932-.115,6.2,4.275-1.9,17.832-1.9,17.832l-3.264,1.646L443,251.326Z" transform="translate(9748.573 4201.219)" fill="#ffb8b8"/>
    <path id="Path_360" data-name="Path 360" d="M442.861,325.143l-.544,1.372,1.632,4.115s-6.529,5.213-5.985,6.31,3.536-1.372,3.536-1.372l4.353,2.195s3.536-3.841,1.9-7.407a41.6,41.6,0,0,1-2.263-5.935S443.133,324.32,442.861,325.143Z" transform="translate(9752.387 4135.494)" fill="#ffb8b8"/>
    <path id="Path_361" data-name="Path 361" d="M366.141,228.178l-.816,9.053s-3.809,3.841.544,9.053l-.544,4.115s10.065-.549,11.97,0,7.785-.442,7.785-.442l.1-3.125a14.192,14.192,0,0,0,1.9-9.6c-.816-5.761,0-7.682,0-7.682l-1.9-.274s-1.224,8.367-9.657,9.19c0,0-10.473.96-7.481-10.288Z" transform="translate(9808.159 4207.769)" fill="#fff"/>
    <path id="Path_362" data-name="Path 362" d="M356.684,138s-7.073-.442-8.705,3.993a16.773,16.773,0,0,1-4.489,6.764,7.313,7.313,0,0,0-2.25,8.785s-7,4.744-2.375,8.957a10.41,10.41,0,0,0,2.448,7.1s2.176,1.109,1.36,1.774,5.441.222,4.9-5.766A14.718,14.718,0,0,1,350.7,159.4s-3.536-7.764-1.9-10.425c.991-1.616,1.417-2.821,2.239-3.518a10.363,10.363,0,0,0,1.27-1.25,2.916,2.916,0,0,1,3.156-.993,4.174,4.174,0,0,1,2.992,2.661s1.768,4.768,4.761,6.986-2.312,6.1-2.312,6.1.922,4.569,3.317,7.275-.69,5.063-.869,5.367c-.408.692-2.038,5.062,4.694,5.082a20,20,0,0,1,3.739-5.3c2.176-2,.544-7.762.544-7.762s3.264-2-.272-6.875c0,0,1.088-4.436-1.9-7.319C370.15,149.42,365.934,136.444,356.684,138Z" transform="translate(9828.089 4275.591)" fill="#303039"/>
    <ellipse id="Ellipse_21" data-name="Ellipse 21" cx="0.68" cy="1.097" rx="0.68" ry="1.097" transform="translate(10176.068 4423.464)" fill="#ffb8b8"/>
  </g>
</svg>
