<svg xmlns="http://www.w3.org/2000/svg" xmlns:xlink="http://www.w3.org/1999/xlink" width="1040" height="680" viewBox="0 0 1040 680">
  <defs>
    <linearGradient id="linear-gradient" x1="0.496" y1="1" x2="0.496" y2="-0.015" gradientUnits="objectBoundingBox">
      <stop offset="0" stop-color="gray" stop-opacity="0.251"/>
      <stop offset="0.54" stop-color="gray" stop-opacity="0.122"/>
      <stop offset="1" stop-color="gray" stop-opacity="0.102"/>
    </linearGradient>
    <linearGradient id="linear-gradient-2" x1="0.496" y1="1" x2="0.496" y2="-0.02" xlink:href="#linear-gradient"/>
    <linearGradient id="linear-gradient-3" x1="0.5" y1="1" x2="0.5" y2="0.001" xlink:href="#linear-gradient"/>
    <linearGradient id="linear-gradient-4" x1="0.504" y1="1" x2="0.504" y2="-0.015" xlink:href="#linear-gradient"/>
    <linearGradient id="linear-gradient-5" x1="0.504" y1="1" x2="0.504" y2="-0.02" xlink:href="#linear-gradient"/>
    <linearGradient id="linear-gradient-6" x1="0.5" y1="1" x2="0.5" y2="0.001" xlink:href="#linear-gradient"/>
  </defs>
  <g id="Group_95" data-name="Group 95" transform="translate(6586 -8366)">
    <g id="Group_85" data-name="Group 85" transform="translate(-20591 -11142)">
      <rect id="Rectangle_350" data-name="Rectangle 350" width="1040" height="680" rx="16" transform="translate(14005 19508)" fill="#fff"/>
      <g id="Path_1" data-name="Path 1" transform="translate(14049 19524)" fill="none" opacity="0.9">
        <path d="M9,0H944a9,9,0,0,1,9,9V347a9,9,0,0,1-9,9H9a9,9,0,0,1-9-9V9A9,9,0,0,1,9,0Z" stroke="none"/>
        <path d="M 9 3 C 5.691650390625 3 3 5.691650390625 3 9 L 3 347 C 3 350.308349609375 5.691650390625 353 9 353 L 944 353 C 947.308349609375 353 950 350.308349609375 950 347 L 950 9 C 950 5.691650390625 947.308349609375 3 944 3 L 9 3 M 9 0 L 944 0 C 948.9705810546875 0 953 4.0294189453125 953 9 L 953 347 C 953 351.9705810546875 948.9705810546875 356 944 356 L 9 356 C 4.0294189453125 356 0 351.9705810546875 0 347 L 0 9 C 0 4.0294189453125 4.0294189453125 0 9 0 Z" stroke="none" fill="#000"/>
      </g>
      <g id="Rectangle_354" data-name="Rectangle 354" transform="translate(14068 19542)" fill="none" stroke="#000" stroke-width="2">
        <rect width="192" height="192" rx="8" stroke="none"/>
        <rect x="1" y="1" width="190" height="190" rx="7" fill="none"/>
      </g>
      <text id="Jim_Kate" data-name="Jim &amp; Kate" transform="translate(14275 19560)" font-size="18" font-family="HelveticaNeue-Bold, Helvetica Neue" font-weight="700"><tspan x="0" y="0">Jim &amp; Kate</tspan></text>
      <text id="_41_38" data-name="41, 38" transform="translate(14383 19560)" font-size="18" font-family="HelveticaNeue-Bold, Helvetica Neue" font-weight="700"><tspan x="0" y="0">41, 38</tspan></text>
      <rect id="Rectangle_355" data-name="Rectangle 355" width="20" height="20" rx="10" transform="translate(14448 19543)" fill="#303031"/>
      <path id="Icon_awesome-check" data-name="Icon awesome-check" d="M4.587,13.717.2,9.654a.593.593,0,0,1,0-.884l.955-.884a.714.714,0,0,1,.955,0l2.957,2.737L11.4,4.76a.714.714,0,0,1,.955,0l.955.884a.593.593,0,0,1,0,.884L5.542,13.717A.714.714,0,0,1,4.587,13.717Z" transform="translate(14451.246 19543.762)" fill="#fff"/>
      <g id="Path_2" data-name="Path 2" transform="translate(14049 19913)" fill="none" opacity="0.9">
        <path d="M9,0H944c4.971,0,9,3.157,9,7.051v260.9c0,3.894-4.029,7.051-9,7.051H9c-4.971,0-9-3.157-9-7.051V7.051C0,3.157,4.029,0,9,0Z" stroke="none"/>
        <path d="M 9 3 C 7.2886962890625 3 5.6435546875 3.519989013671875 4.4862060546875 4.42681884765625 C 3.93115234375 4.86163330078125 3 5.78094482421875 3 7.051300048828125 L 3 267.9486999511719 C 3 269.2190551757812 3.93115234375 270.1383666992188 4.4862060546875 270.5731811523438 C 5.6435546875 271.4800109863281 7.2886962890625 272 9 272 L 944 272 C 945.7113037109375 272 947.3564453125 271.4800109863281 948.5137939453125 270.5731811523438 C 949.06884765625 270.1383666992188 950 269.2190551757812 950 267.9486999511719 L 950 7.051300048828125 C 950 5.78094482421875 949.06884765625 4.86163330078125 948.5137939453125 4.42681884765625 C 947.3564453125 3.519989013671875 945.7113037109375 3 944 3 L 9 3 M 9 0 L 944 0 C 948.9705810546875 0 953 3.156951904296875 953 7.051300048828125 L 953 267.9486999511719 C 953 271.8430480957031 948.9705810546875 275 944 275 L 9 275 C 4.0294189453125 275 0 271.8430480957031 0 267.9486999511719 L 0 7.051300048828125 C 0 3.156951904296875 4.0294189453125 0 9 0 Z" stroke="none" fill="#000"/>
      </g>
      <g id="Rectangle_357" data-name="Rectangle 357" transform="translate(14071 19933)" fill="none" stroke="#000" stroke-width="2">
        <rect width="179" height="170" rx="8" stroke="none"/>
        <rect x="1" y="1" width="177" height="168" rx="7" fill="none"/>
      </g>
      <text id="The_lifestyle_has_been_a_treat_for_me_and_my_hubby._We_were_caught_up_in_life_s_routine_and_now_we_are_doing_something_together_that_we_both_enjoy_and_look_forward_to._We_are_looking_for_couples_and_single_women_to_build_long-lasting_friendships_with._We_a" data-name="The lifestyle has been a treat for me and my hubby. We were caught up in life’s routine and now we are doing something together that we both enjoy and look forward to. We are looking for couples and single women to build long-lasting friendships with. We a" transform="translate(14275 19576)" font-size="14" font-family="HelveticaNeue-Bold, Helvetica Neue" font-weight="700"><tspan x="0" y="14">The lifestyle has been a treat for me and my hubby. We were caught up in life’s routine and now we are </tspan><tspan x="0" y="31">doing something together that we both enjoy and look forward to. We are looking for couples and single </tspan><tspan x="0" y="48">women to build long-lasting friendships with. We are easygoing, he is tall fit and handsome, she is a foxy </tspan><tspan x="0" y="65">redhead with a petite body and lots of energy. We are playful and enjoy pleasing others. Looking forward </tspan><tspan x="0" y="82">to meeting great new friends. </tspan><tspan x="0" y="99"></tspan></text>
      <text id="Justin_and_Emily" data-name="Justin and Emily" transform="translate(14275 19949)" font-size="18" font-family="HelveticaNeue-Bold, Helvetica Neue" font-weight="700"><tspan x="0" y="0">Justin and Emily</tspan></text>
      <text id="_56_54" data-name="56, 54" transform="translate(14445 19949)" font-size="18" font-family="HelveticaNeue-Bold, Helvetica Neue" font-weight="700"><tspan x="0" y="0">56, 54</tspan></text>
      <rect id="Rectangle_358" data-name="Rectangle 358" width="20" height="20" rx="10" transform="translate(14511 19932)" fill="#303031"/>
      <path id="Icon_awesome-check-2" data-name="Icon awesome-check" d="M4.587,13.717.2,9.654a.593.593,0,0,1,0-.884l.955-.884a.714.714,0,0,1,.955,0l2.957,2.737L11.4,4.76a.714.714,0,0,1,.955,0l.955.884a.593.593,0,0,1,0,.884L5.542,13.717A.714.714,0,0,1,4.587,13.717Z" transform="translate(14514 19932.762)" fill="#fff"/>
      <text id="We_have_been_in_the_lifestyle_for_a_few_years_now_and_we_love_the_club_scene_and_dress-ups._My_wife_likes_being_dominated_and_we_find_that_in_clubs_when_there_are_several_play_partners_around_her_she_lets_loose_and_enjoys_herself_the_most._I_love_watching_" data-name="We have been in the lifestyle for a few years now and we love the club scene and dress-ups. My wife likes being dominated and we find that in clubs when there are several play partners around her she lets loose and enjoys herself the most. I love watching " transform="translate(14275 19965)" font-size="14" font-family="HelveticaNeue-Bold, Helvetica Neue" font-weight="700"><tspan x="0" y="14">We have been in the lifestyle for a few years now and we love the club scene and dress-ups. My wife likes </tspan><tspan x="0" y="31">being dominated and we find that in clubs when there are several play partners around her she lets loose </tspan><tspan x="0" y="48">and enjoys herself the most. I love watching her relax and enjoy the pleasures of the lifestyle. We are </tspan><tspan x="0" y="65">looking for couples and single men who are interested in group play. I want to organize a nice party at </tspan><tspan x="0" y="82">home where she is the centre of attention. Come join us for a hot-tub party and see where things lead to.</tspan></text>
      <text id="Jim" transform="translate(14069 19767)" font-size="18" font-family="HelveticaNeue-Bold, Helvetica Neue" font-weight="700"><tspan x="0" y="0">Jim</tspan></text>
      <rect id="Rectangle_359" data-name="Rectangle 359" width="47" height="24" rx="12" transform="translate(14110 19749)" fill="#ededed"/>
      <text id="Male" transform="translate(14118 19766)" font-size="14" font-family="HelveticaNeue-Bold, Helvetica Neue" font-weight="700"><tspan x="0" y="0">Male</tspan></text>
      <rect id="Rectangle_360" data-name="Rectangle 360" width="70" height="24" rx="12" transform="translate(14164 19749)" fill="#ededed"/>
      <text id="Straight" transform="translate(14173 19766)" font-size="14" font-family="HelveticaNeue-Bold, Helvetica Neue" font-weight="700"><tspan x="0" y="0">Straight</tspan></text>
      <rect id="Rectangle_361" data-name="Rectangle 361" width="144" height="24" rx="12" transform="translate(14240 19749)" fill="#ededed"/>
      <text id="Smokes_sometimes" data-name="Smokes sometimes" transform="translate(14246 19766)" font-size="14" font-family="HelveticaNeue-Bold, Helvetica Neue" font-weight="700"><tspan x="0" y="0">Smokes sometimes</tspan></text>
      <rect id="Rectangle_362" data-name="Rectangle 362" width="106" height="24" rx="12" transform="translate(14391 19749)" fill="#ededed"/>
      <text id="Social_drinker" data-name="Social drinker" transform="translate(14396 19767)" font-size="14" font-family="HelveticaNeue-Bold, Helvetica Neue" font-weight="700"><tspan x="0" y="0">Social drinker</tspan></text>
      <text id="Kate" transform="translate(14069 19809)" font-size="18" font-family="HelveticaNeue-Bold, Helvetica Neue" font-weight="700"><tspan x="0" y="0">Kate</tspan></text>
      <rect id="Rectangle_364" data-name="Rectangle 364" width="64" height="24" rx="12" transform="translate(14118 19791)" fill="#ededed"/>
      <text id="Female" transform="translate(14126 19808)" font-size="14" font-family="HelveticaNeue-Bold, Helvetica Neue" font-weight="700"><tspan x="0" y="0">Female</tspan></text>
      <rect id="Rectangle_365" data-name="Rectangle 365" width="83" height="24" rx="12" transform="translate(14186 19791)" fill="#ededed"/>
      <text id="Bi-sexual" transform="translate(14195 19808)" font-size="14" font-family="HelveticaNeue-Bold, Helvetica Neue" font-weight="700"><tspan x="0" y="0">Bi-sexual</tspan></text>
      <rect id="Rectangle_366" data-name="Rectangle 366" width="145" height="24" rx="12" transform="translate(14275 19791)" fill="#ededed"/>
      <text id="Smokes_sometimes-2" data-name="Smokes sometimes" transform="translate(14282 19808)" font-size="14" font-family="HelveticaNeue-Bold, Helvetica Neue" font-weight="700"><tspan x="0" y="0">Smokes sometimes</tspan></text>
      <rect id="Rectangle_367" data-name="Rectangle 367" width="106" height="24" rx="12" transform="translate(14429 19791)" fill="#ededed"/>
      <text id="Social_drinker-2" data-name="Social drinker" transform="translate(14436 19808)" font-size="14" font-family="HelveticaNeue-Bold, Helvetica Neue" font-weight="700"><tspan x="0" y="0">Social drinker</tspan></text>
      <text id="We" transform="translate(14069 19851)" font-size="18" font-family="HelveticaNeue-Bold, Helvetica Neue" font-weight="700"><tspan x="0" y="0">We</tspan></text>
      <rect id="Rectangle_369" data-name="Rectangle 369" width="95" height="24" rx="12" transform="translate(14105 19833)" fill="#ededed"/>
      <text id="are_married" data-name="are married" transform="translate(14112 19850)" font-size="14" font-family="HelveticaNeue-Bold, Helvetica Neue" font-weight="700"><tspan x="0" y="0">are married</tspan></text>
      <rect id="Rectangle_370" data-name="Rectangle 370" width="331" height="24" rx="12" transform="translate(14207 19833)" fill="#ededed"/>
      <text id="are_looking_for:_women_couples_man_woman_" data-name="are looking for: women, couples (man/woman)" transform="translate(14217 19851)" font-size="14" font-family="HelveticaNeue-Bold, Helvetica Neue" font-weight="700"><tspan x="0" y="0">are looking for: women, couples (man/woman)</tspan></text>
      <rect id="Rectangle_371" data-name="Rectangle 371" width="114" height="24" rx="12" transform="translate(14544 19833)" fill="#ededed"/>
      <text id="speak_English" data-name="speak English" transform="translate(14555 19851)" font-size="14" font-family="HelveticaNeue-Bold, Helvetica Neue" font-weight="700"><tspan x="0" y="0">speak English</tspan></text>
    </g>
    <text id="Justin" transform="translate(-6506 8990)" font-size="18" font-family="HelveticaNeue-Bold, Helvetica Neue" font-weight="700"><tspan x="0" y="0">Justin</tspan></text>
    <rect id="Rectangle_628" data-name="Rectangle 628" width="47" height="24" rx="12" transform="translate(-6440 8972)" fill="#ededed"/>
    <text id="Male-2" data-name="Male" transform="translate(-6432 8989)" font-size="14" font-family="HelveticaNeue-Bold, Helvetica Neue" font-weight="700"><tspan x="0" y="0">Male</tspan></text>
    <rect id="Rectangle_629" data-name="Rectangle 629" width="70" height="24" rx="12" transform="translate(-6386 8972)" fill="#ededed"/>
    <text id="Straight-2" data-name="Straight" transform="translate(-6377 8989)" font-size="14" font-family="HelveticaNeue-Bold, Helvetica Neue" font-weight="700"><tspan x="0" y="0">Straight</tspan></text>
    <rect id="Rectangle_630" data-name="Rectangle 630" width="144" height="24" rx="12" transform="translate(-6310 8972)" fill="#ededed"/>
    <text id="Smokes_sometimes-3" data-name="Smokes sometimes" transform="translate(-6304 8989)" font-size="14" font-family="HelveticaNeue-Bold, Helvetica Neue" font-weight="700"><tspan x="0" y="0">Smokes sometimes</tspan></text>
    <rect id="Rectangle_631" data-name="Rectangle 631" width="106" height="24" rx="12" transform="translate(-6159 8972)" fill="#ededed"/>
    <text id="Social_drinker-3" data-name="Social drinker" transform="translate(-6154 8990)" font-size="14" font-family="HelveticaNeue-Bold, Helvetica Neue" font-weight="700"><tspan x="0" y="0">Social drinker</tspan></text>
    <text id="Emily" transform="translate(-6506 9030)" font-size="18" font-family="HelveticaNeue-Bold, Helvetica Neue" font-weight="700"><tspan x="0" y="0">Emily</tspan></text>
    <rect id="Rectangle_632" data-name="Rectangle 632" width="64" height="24" rx="12" transform="translate(-6440 9012)" fill="#ededed"/>
    <text id="Female-2" data-name="Female" transform="translate(-6432 9029)" font-size="14" font-family="HelveticaNeue-Bold, Helvetica Neue" font-weight="700"><tspan x="0" y="0">Female</tspan></text>
    <rect id="Rectangle_633" data-name="Rectangle 633" width="83" height="24" rx="12" transform="translate(-6372 9012)" fill="#ededed"/>
    <text id="Bi-sexual-2" data-name="Bi-sexual" transform="translate(-6363 9029)" font-size="14" font-family="HelveticaNeue-Bold, Helvetica Neue" font-weight="700"><tspan x="0" y="0">Bi-sexual</tspan></text>
    <rect id="Rectangle_634" data-name="Rectangle 634" width="109" height="24" rx="12" transform="translate(-6283 9012)" fill="#ededed"/>
    <text id="Never_smokes" data-name="Never smokes" transform="translate(-6276 9029)" font-size="14" font-family="HelveticaNeue-Bold, Helvetica Neue" font-weight="700"><tspan x="0" y="0">Never smokes</tspan></text>
    <rect id="Rectangle_635" data-name="Rectangle 635" width="106" height="24" rx="12" transform="translate(-6170 9012)" fill="#ededed"/>
    <text id="Social_drinker-4" data-name="Social drinker" transform="translate(-6165 9030)" font-size="14" font-family="HelveticaNeue-Bold, Helvetica Neue" font-weight="700"><tspan x="0" y="0">Social drinker</tspan></text>
    <g id="Group_86" data-name="Group 86" transform="translate(-6684.202 8433.229)">
      <g id="Group_31" data-name="Group 31" transform="translate(176.463 6.625)">
        <g id="Group_17" data-name="Group 17" transform="translate(103.274 0.227)" opacity="0.05">
          <path id="Path_24" data-name="Path 24" d="M373.512,192.165a.766.766,0,0,1-.111-.445,2.784,2.784,0,0,1,.111.445Z" transform="translate(-373.4 -191.72)" fill="url(#linear-gradient)"/>
        </g>
        <g id="Group_18" data-name="Group 18" transform="translate(103.274)" opacity="0.05">
          <path id="Path_25" data-name="Path 25" d="M373.512,191.145a.766.766,0,0,1-.111-.445A2.783,2.783,0,0,1,373.512,191.145Z" transform="translate(-373.4 -190.7)" fill="url(#linear-gradient-2)"/>
        </g>
        <g id="Group_19" data-name="Group 19" transform="translate(82.562 50.446)" opacity="0.05">
          <path id="Path_27" data-name="Path 27" d="M436.96,424.411c.729.307,2.465,1.912,4.714,4.217.716-4.625,1.178-8.8.879-10.531a1.541,1.541,0,0,0-.265-.723c-1.359-.091-4.1,3.227-6.286,6.231C436.609,424.084,436.96,424.411,436.96,424.411Z" transform="translate(-436.002 -417.372)" fill="url(#linear-gradient-3)"/>
        </g>
        <g id="Group_20" data-name="Group 20" transform="translate(95.306 28.527)" opacity="0.05">
          <path id="Path_28" data-name="Path 28" d="M368.49,311.4Z" transform="translate(-368.49 -311.4)" fill="#fff"/>
        </g>
        <path id="Path_29" data-name="Path 29" d="M595.841,540s-11.779,22.923-14.724,23.813a6.243,6.243,0,0,1-4.983-.445s-24.464-4.451-19.934.668,44.172,2,44.172,2l9.967-22.033Z" transform="translate(-548.233 -462.262)" fill="#ef91a3"/>
        <path id="Path_30" data-name="Path 30" d="M463.11,498.032s-19.028-12.463-24.238-12.463c0,0-7.7-2.448-12.232,14.466,0,0,15.63,2.671,15.4,10.015l2.945-6.231,12.685,13.8,15.4-10.237Z" transform="translate(-381.751 -419.849)" opacity="0.1"/>
        <path id="Path_31" data-name="Path 31" d="M463.11,496.032s-19.028-12.463-24.238-12.463c0,0-7.7-2.448-12.232,14.466,0,0,15.63,2.671,15.4,10.015l2.945-6.232,12.685,13.8,15.4-10.237Z" transform="translate(-381.751 -418.294)" fill="#5d526e"/>
        <path id="Path_32" data-name="Path 32" d="M480.593,457.515c1.133,5.341,7.022,6.231,7.022,6.231L496,458.628s1.182-7.667,2.181-12.341a13.926,13.926,0,0,1,.99-3.461c.906-1.113-13.365-.89-13.365-.89a54.811,54.811,0,0,0-2.732,5.134C481.517,450.407,479.988,454.658,480.593,457.515Z" transform="translate(-420.073 -386.009)" fill="#ef91a3"/>
        <path id="Path_33" data-name="Path 33" d="M295.035,289.268l4.757,22.255,11.553-2.893s10.646-8.234,7.475-13.353a16.082,16.082,0,0,1-1.812-6.625,55.313,55.313,0,0,1,.227-10.734s-12.685-3.338-10.193,5.786c1.024,3.748-.818,5.355-3.343,5.949C300.071,290.5,295.035,289.268,295.035,289.268Z" transform="translate(-198.273 -258.044)" fill="#ef91a3"/>
        <path id="Path_34" data-name="Path 34" d="M304.64,289.649a12.789,12.789,0,0,0,5.835,1.4c2.8,0,5.491-1.72,7.588-3.227a49.957,49.957,0,0,1,.113-9.9s-12.685-3.338-10.193,5.786C309.007,287.448,307.166,289.046,304.64,289.649Z" transform="translate(-199.215 -258.044)" opacity="0.1"/>
        <ellipse id="Ellipse_1" data-name="Ellipse 1" cx="12.685" cy="12.463" rx="12.685" ry="12.463" transform="translate(98.575 7.629)" fill="#ef91a3"/>
        <path id="Path_35" data-name="Path 35" d="M295.518,339.281,292.077,344l-1.957-6.973a34.123,34.123,0,0,1-1.187-8.546,5.8,5.8,0,0,0-1.16-3.4c-3.529-1.892-6.15-2.893-10.6-2.448a24.157,24.157,0,0,0-12.094,4.814c-13.222,9.981-19.44,26.566-19.44,26.566s18.122-3.561,17.216.445c0,0,7.928-12.463,9.74-10.46s-3.851,28.487-3.851,28.487l37.149,2.671,9.74-25.371-.453-18.917s-9.627-4.34-11.666-4.34c-.714,0-.6-.245-.906.89C301.448,331.785,298.2,335.609,295.518,339.281Z" transform="translate(-183.309 -293.19)" opacity="0.1"/>
        <path id="Path_36" data-name="Path 36" d="M480.457,447.051c3.151-.559,12.076-1.985,15.107-.783a13.926,13.926,0,0,1,.99-3.461c.906-1.113-13.365-.89-13.365-.89a54.8,54.8,0,0,0-2.732,5.134Z" transform="translate(-417.46 -385.993)" opacity="0.1"/>
        <path id="Path_37" data-name="Path 37" d="M291.136,326.419c-.016-1.224-.625-1.351-1.363-2.337-3.529-1.892-6.15-2.893-10.6-2.448a24.157,24.157,0,0,0-12.094,4.814c-13.222,9.981-19.44,26.566-19.44,26.566s18.122-3.561,17.216.445c0,0,7.928-12.463,9.74-10.46s-3.851,28.487-3.851,28.487l37.149,2.671,9.74-25.371-.453-18.917s-9.627-4.34-11.666-4.34c-.714,0-.6-.245-.906.89,0,0,.462,1.631-3.46,2.192C298.413,329,291.149,327.631,291.136,326.419Z" transform="translate(-185.762 -292.413)" fill="#fff"/>
        <path id="Path_44" data-name="Path 44" d="M159.5,587.99c2.168,1.763,8.322,5.987,15.922,4.387s1.221-5.163-1.683-6.554a1.117,1.117,0,0,1-.614-.76,1.1,1.1,0,0,1,.227-.945,31.33,31.33,0,0,1,5.695-5.312,38.431,38.431,0,0,0,6-6.047h0c1.017-1.208,1.95-2.388,2.718-3.378a1.1,1.1,0,0,0,.043-1.306,1.143,1.143,0,0,0-1.25-.446l-14.851,3.961a1.135,1.135,0,0,0-.589.381l-4.882,5.993-6.9,8.47A1.1,1.1,0,0,0,159.5,587.99Z" transform="translate(-36.074 -483.709)" fill="#ef91a3"/>
        <path id="Path_45" data-name="Path 45" d="M159.091,577.934c12.393-8.88,17.071-7.293,18.817-5.206,1.017-1.208,1.95-2.388,2.718-3.378a1.1,1.1,0,0,0,.043-1.306,1.143,1.143,0,0,0-1.25-.446l-14.851,3.961a1.136,1.136,0,0,0-.589.381Z" transform="translate(-28.932 -483.686)" opacity="0.1"/>
        <path id="Path_46" data-name="Path 46" d="M146.136,485.644s19.934-6.454,16.763,7.122-7.249,16.914-7.249,16.914-1.133-10.682-20.387,3.338l6.8-10.683-7.928-9.792Z" transform="translate(-5.655 -418.812)" fill="#5d526e"/>
        <path id="Path_47" data-name="Path 47" d="M142.419,426.671s1.812,9.347-4.757,20.7c-5.21,9,.974,13.1,3.758,14.415a1.99,1.99,0,0,0,2.231-.367,12.936,12.936,0,0,0,3.3-13.38l-1.359-3.561,7.475-5.341s2.023-7.369,1.133-9.027S146.043,424,146.043,424Z" transform="translate(2.819 -372.078)" opacity="0.1"/>
        <path id="Path_48" data-name="Path 48" d="M142.419,424.671s1.812,9.347-4.757,20.7c-5.21,9,.974,13.1,3.758,14.415a1.99,1.99,0,0,0,2.231-.367,12.936,12.936,0,0,0,3.3-13.38l-1.359-3.561,7.475-5.341s2.023-7.369,1.133-9.027S146.043,422,146.043,422Z" transform="translate(2.819 -370.524)" fill="#ef91a3"/>
        <path id="Path_49" data-name="Path 49" d="M140.255,354s16.309,9.125,23.105,15.134,5.436,8.012,5.436,8.012-6.569-12.018-12.232-1.558c0,0-15.856-11.35-20.16-6.454S140.255,354,140.255,354Z" transform="translate(-11.553 -317.657)" fill="#dfecfb"/>
        <path id="Path_50" data-name="Path 50" d="M207.651,573.171,194.06,570.5l1.586,6.9,9.849-1.008Z" transform="translate(-72.833 -484.31)" fill="#5d526e"/>
        <path id="Path_51" data-name="Path 51" d="M203.856,397.232l.453,4.9,16.309-2.671,4.983-3.116,7.475-2.671a12.569,12.569,0,0,1-.4-7.442,11.191,11.191,0,0,1,1.3-3.018c3.171-5.119-13.365-2.893-13.365-2.893a21.116,21.116,0,0,1,.249,3.487c-.034,3.719-1.105,8.96-7.045,8.085l-4.983,2.893Z" transform="translate(-92.596 -337.744)" fill="#fec1cd"/>
        <path id="Path_52" data-name="Path 52" d="M285.988,423.985s-8.381-3.561-12.459,3.783-5.89,6.9-5.89,6.9l8.155-5.119Z" transform="translate(-158.645 -371.396)" fill="#fec1cd"/>
        <path id="Path_53" data-name="Path 53" d="M305.26,572.286s6.343,5.119,2.718,11.573S281.7,589.2,281.7,589.2s14.38-5.308,10.814-23.13C292.516,566.068,302.768,568.948,305.26,572.286Z" transform="translate(-184.939 -482.53)" fill="#5f5470"/>
        <path id="Path_54" data-name="Path 54" d="M427.3,618.344l2.265,8.457-7.928-1.558s3.4-7.122,2.945-9.125S427.3,618.344,427.3,618.344Z" transform="translate(-337.11 -521.022)" fill="#5f5470"/>
        <path id="Path_55" data-name="Path 55" d="M520.451,582s-20.613,2-26.276,5.119l-4.3,1.335s-1.586-.445-4.983,2.448l-17.669,4.006-13.591,2.671s-12.459,2.226-13.365,1.78-7.022,3.338-1.133,5.119,18.122-.89,18.122-.89,9.061-1.113,11.1-.445,15.856-1.335,15.856-1.335l13.591.89s2.265-3.338,8.155-2.226c4.2.795,11.521-.445,15.367-1.231a3.789,3.789,0,0,0,2.99-3l1.359-7.122Z" transform="translate(-436.6 -494.915)" fill="#ffc1cd"/>
        <path id="Path_56" data-name="Path 56" d="M520.451,582s-20.613,2-26.276,5.119l-4.3,1.335s-1.586-.445-4.983,2.448l-17.669,4.006-13.591,2.671s-12.459,2.226-13.365,1.78-7.022,3.338-1.133,5.119,18.122-.89,18.122-.89,9.061-1.113,11.1-.445,15.856-1.335,15.856-1.335l13.591.89s2.265-3.338,8.155-2.226c4.2.795,11.521-.445,15.367-1.231a3.789,3.789,0,0,0,2.99-3l1.359-7.122Z" transform="translate(-436.6 -494.915)" fill="#fec1cd"/>
        <path id="Path_57" data-name="Path 57" d="M204.105,383.8a12.651,12.651,0,0,0,11.813,2.424,11.191,11.191,0,0,1,1.3-3.013c3.171-5.119-13.365-2.893-13.365-2.893A21.113,21.113,0,0,1,204.105,383.8Z" transform="translate(-75.833 -337.744)" opacity="0.1"/>
        <path id="Path_301" data-name="Path 301" d="M12.459,0A12.351,12.351,0,0,1,24.917,12.24a12.351,12.351,0,0,1-12.459,12.24A12.351,12.351,0,0,1,0,12.24,12.351,12.351,0,0,1,12.459,0Z" transform="translate(123.945 24.098)" fill="#fec1cd"/>
        <path id="Path_58" data-name="Path 58" d="M249.718,427.614s-9.514,5.119-9.967,8.457,1.359,7.344,1.359,7.344-4.3,25.371-9.74,27.151l-14.5-13.8-12.232-5.341s7.249-.445,7.928-7.122-.906-8.9,7.249-12.018a48,48,0,0,0,12.572-6.788l2.107.523-10.828,5.6s-6.116,3.561,9.74.89l14.95-5.341Z" transform="translate(-108.104 -373.245)" opacity="0.1"/>
        <path id="Path_59" data-name="Path 59" d="M248.718,425.614s-9.514,5.119-9.967,8.457,1.359,7.344,1.359,7.344-4.3,25.371-9.74,27.151l-14.5-13.8-12.232-5.341s7.249-.445,7.928-7.122-.906-8.9,7.249-12.018a47.993,47.993,0,0,0,12.572-6.788l2.107.523-10.828,5.6s-6.116,3.561,9.74.89l14.95-5.341Z" transform="translate(-106.877 -371.69)" fill="#d0d0d0"/>
        <path id="Path_60" data-name="Path 60" d="M227.449,439.275s9.287-3.338,7.022,7.344-14.044,29.154-14.044,29.154l-27.636-9.347s-8.608-6.454-6.343-7.122,14.271,3.561,14.271,3.561l16.31,2.448,3.851-10.682s-3.624-2.448-2.492-5.564l.034-.094a17.322,17.322,0,0,1,8.664-9.521Z" transform="translate(-89.006 -383.57)" opacity="0.1"/>
        <path id="Path_61" data-name="Path 61" d="M225.449,437.275s9.287-3.338,7.022,7.344-14.044,29.154-14.044,29.154l-27.636-9.347s-8.608-6.454-6.343-7.122,14.271,3.561,14.271,3.561l16.309,2.448,3.851-10.682s-3.624-2.448-2.492-5.564l.034-.093a17.322,17.322,0,0,1,8.664-9.521Z" transform="translate(-86.553 -382.015)" fill="#fec1cd"/>
        <path id="Path_63" data-name="Path 63" d="M60.468,272.795a9.716,9.716,0,0,1,3.314-.34,9.848,9.848,0,0,1,3.015.946,28.988,28.988,0,0,1,4.356,2.473c.926.637.77.546,1.961,1.345l.974.94,1.475,2.139c1.04.8.928,4.007.391,11.23-.665,8.941-3.757,20.736-4.115,20.958-3.3,2.041-6.759-.247-9.826-2.6a16.706,16.706,0,0,0-2.107-1.656c-1.679-.906-4.125-.645-5.131-2.248a4.4,4.4,0,0,1-.482-1.351,10.755,10.755,0,0,1-.349-5.292c.442-1.6,1.586-2.893,2.265-4.418s.716-3.581-.668-4.52c-.415-.283-.906-.427-1.323-.719-1.189-.848-1.216-2.542-1.21-3.986a2.09,2.09,0,0,0-.181-1.044,2.532,2.532,0,0,0-.838-.757,8.136,8.136,0,0,1-2.961-3.594c-.6-1.591.938-2.31,2.166-3.2A26.443,26.443,0,0,1,60.468,272.795Z" transform="translate(77.789 -254.232)" fill="#bc4417"/>
        <path id="Path_64" data-name="Path 64" d="M343.8,493.2c6.15,1.275,24.1.734,26.729-1.335,4.032-3.169,3.04-5.984,2.773-6.565h.059s-2.265-5.341,0-9.347a12.823,12.823,0,0,1,4.983-8.68c4.757-3.783,9.967-14.466,9.967-14.466l2.718,5.564s4.077,12.216,8.325,17.64a8.574,8.574,0,0,1,1.685,3.67c.281,1.471,1.25,3.325,4.261,3.839l.156.027a11.318,11.318,0,0,0,11.1-4.631c2.039-2.869,4.324-6.848,4.843-10.727a9.317,9.317,0,0,0-2.222-7.315l-.025-.029c-4.872-5.664-21.789-25.146-24.5-26.281,0,0-12.232-11.573-16.989,4.006s-6.343,20.252-6.343,20.252-5.688,9.982-7.249,13.353c-1.613,3.485-8.322,12.178-9,13.057-.623.418-6.619,4.413-8.551,4.413C345.66,489.635,339.365,492.276,343.8,493.2Z" transform="translate(-311.025 -377.072)" fill="#fec1cd"/>
        <g id="Group_22" data-name="Group 22" transform="translate(61.326 73.282)" opacity="0.05">
          <path id="Path_65" data-name="Path 65" d="M342.3,548.709a9.265,9.265,0,0,1,.927-5.584,12.823,12.823,0,0,1,4.983-8.68c4.757-3.783,9.967-14.466,9.967-14.466l2.718,5.564s4.077,12.216,8.325,17.639a8.576,8.576,0,0,1,1.685,3.67c.281,1.471,1.25,3.325,4.261,3.839l.156.027a11.319,11.319,0,0,0,11.1-4.631c2-2.835,4.27-6.761,4.823-10.6a9.081,9.081,0,0,1,.021,2.542c-.519,3.877-2.816,7.858-4.843,10.727a11.319,11.319,0,0,1-11.1,4.631l-.156-.027c-3.01-.514-3.98-2.368-4.261-3.839a8.576,8.576,0,0,0-1.685-3.67c-4.238-5.424-8.325-17.635-8.325-17.635l-2.718-5.564s-5.21,10.682-9.967,14.466a12.823,12.823,0,0,0-4.983,8.68,7.853,7.853,0,0,0-.926,2.909Z" transform="translate(-342.219 -519.98)"/>
        </g>
        <path id="Path_66" data-name="Path 66" d="M307.235,507.818s-9.74-.223-9.061-3.338" transform="translate(-186.801 -434.647)" opacity="0.05"/>
      </g>
      <path id="Path_303" data-name="Path 303" d="M29.218,2.869C27.867-.15,25.219.461,22.9,1.5,19.976.844,17.2-1.145,14.039.054,10.907,4.724.478,3.406,2.66,10.973c-.006,1.816-3.322.775-2.757,3.746C-1.885,20.451,6.172,31.25,10.839,28.944c-1.141-2.167-3.747-7.09.246-7.6,8.542,8.18.963-15.661,11.713-8.769C26.352,15.923,31.289,6.224,29.218,2.869Z" transform="translate(275.868 2.03) rotate(17)" fill="#2f2e41"/>
    </g>
    <g id="Group_87" data-name="Group 87" transform="translate(-6521.246 8751.465)">
      <g id="Group_17-2" data-name="Group 17" transform="translate(74.995 85.261)" opacity="0.05">
        <path id="Path_24-2" data-name="Path 24" d="M373.4,192.141a.725.725,0,0,0,.105-.421,2.641,2.641,0,0,0-.105.421Z" transform="translate(-373.4 -191.72)" fill="url(#linear-gradient-4)"/>
      </g>
      <g id="Group_18-2" data-name="Group 18" transform="translate(74.995 85.046)" opacity="0.05">
        <path id="Path_25-2" data-name="Path 25" d="M373.4,191.121a.725.725,0,0,0,.105-.421A2.641,2.641,0,0,0,373.4,191.121Z" transform="translate(-373.4 -190.7)" fill="url(#linear-gradient-5)"/>
      </g>
      <g id="Group_19-2" data-name="Group 19" transform="translate(91.699 132.808)" opacity="0.05">
        <path id="Path_27-2" data-name="Path 27" d="M441.387,424.036a24.371,24.371,0,0,0-4.465,3.993c-.678-4.379-1.116-8.327-.833-9.971a1.458,1.458,0,0,1,.251-.685c1.287-.086,3.879,3.055,5.954,5.9C441.72,423.726,441.387,424.036,441.387,424.036Z" transform="translate(-436.002 -417.372)" fill="url(#linear-gradient-6)"/>
      </g>
      <g id="Group_20-2" data-name="Group 20" transform="translate(85.645 112.055)" opacity="0.05">
        <path id="Path_28-2" data-name="Path 28" d="M368.49,311.4Z" transform="translate(-368.49 -311.4)" fill="#fff"/>
      </g>
      <path id="Path_29-2" data-name="Path 29" d="M569.373,540s11.158,21.7,13.947,22.546a5.916,5.916,0,0,0,4.721-.422s23.174-4.214,18.883.632-41.842,1.9-41.842,1.9l-9.441-20.86Z" transform="translate(-436.654 -381.352)" fill="#ef91a3"/>
      <path id="Path_30-2" data-name="Path 30" d="M436.081,497.362s18.024-11.8,22.96-11.8c0,0,7.3-2.318,11.587,13.7,0,0-14.806,2.529-14.591,9.482l-2.79-5.9L441.231,515.9l-14.591-9.693Z" transform="translate(-336.648 -338.293)" opacity="0.1"/>
      <path id="Path_31-2" data-name="Path 31" d="M436.081,495.362s18.024-11.8,22.96-11.8c0,0,7.3-2.318,11.587,13.7,0,0-14.806,2.529-14.591,9.482l-2.79-5.9L441.231,513.9l-14.591-9.693Z" transform="translate(-336.648 -336.715)" fill="#5d526e"/>
      <path id="Path_32-2" data-name="Path 32" d="M498.092,456.685c-1.073,5.057-6.652,5.9-6.652,5.9l-7.939-4.846s-1.12-7.259-2.066-11.684a13.175,13.175,0,0,0-.938-3.277c-.858-1.053,12.66-.843,12.66-.843a51.916,51.916,0,0,1,2.588,4.861C497.216,449.955,498.665,453.98,498.092,456.685Z" transform="translate(-378.73 -303.938)" fill="#ef91a3"/>
      <path id="Path_33-2" data-name="Path 33" d="M318.125,288.632,313.619,309.7l-10.943-2.739s-10.085-7.8-7.081-12.643a15.219,15.219,0,0,0,1.717-6.273,52.346,52.346,0,0,0-.215-10.163s12.016-3.161,9.656,5.478c-.97,3.548.775,5.07,3.167,5.632C313.355,289.8,318.125,288.632,318.125,288.632Z" transform="translate(-234.646 -174.024)" fill="#ef91a3"/>
      <path id="Path_34-2" data-name="Path 34" d="M317.463,288.993a12.12,12.12,0,0,1-5.527,1.325c-2.65,0-5.2-1.629-7.188-3.055a47.271,47.271,0,0,0-.107-9.377s12.016-3.161,9.656,5.478C313.326,286.909,315.07,288.422,317.463,288.993Z" transform="translate(-244.399 -174.024)" opacity="0.1"/>
      <ellipse id="Ellipse_1-2" data-name="Ellipse 1" cx="12.016" cy="11.8" rx="12.016" ry="11.8" transform="translate(55.52 92.269)" fill="#ef91a3"/>
      <path id="Path_35-2" data-name="Path 35" d="M264.7,338.389l3.259,4.467,1.854-6.6a32.293,32.293,0,0,0,1.124-8.091,5.491,5.491,0,0,1,1.1-3.218c3.343-1.791,5.826-2.739,10.04-2.318a22.891,22.891,0,0,1,11.456,4.558c12.525,9.45,18.415,25.153,18.415,25.153s-17.166-3.371-16.308.421c0,0-7.51-11.8-9.227-9.9s3.648,26.971,3.648,26.971l-35.19,2.529-9.227-24.021.429-17.91s9.119-4.109,11.051-4.109c.676,0,.573-.232.858.843C259.079,331.293,262.16,334.913,264.7,338.389Z" transform="translate(-198.059 -209.705)" opacity="0.1"/>
      <path id="Path_36-2" data-name="Path 36" d="M495.744,446.777c-2.985-.529-11.439-1.88-14.31-.742a13.177,13.177,0,0,0-.938-3.277c-.858-1.053,12.66-.843,12.66-.843A51.884,51.884,0,0,1,495.744,446.777Z" transform="translate(-378.757 -303.922)" opacity="0.1"/>
      <path id="Path_37-2" data-name="Path 37" d="M266.7,337.389l3.259,4.467,1.854-6.6a32.292,32.292,0,0,0,1.124-8.091,5.491,5.491,0,0,1,1.1-3.218c3.343-1.791,5.826-2.739,10.04-2.318a22.89,22.89,0,0,1,11.456,4.558c12.525,9.45,18.415,25.153,18.415,25.153s-17.166-3.371-16.308.421c0,0-7.51-11.8-9.227-9.9s3.648,26.971,3.648,26.971l-35.19,2.529-9.227-24.021.429-17.91s9.119-4.109,11.051-4.109c.676,0,.573-.232.858.843C261.079,330.293,264.16,333.913,266.7,337.389Z" transform="translate(-199.63 -208.916)" fill="#dfecfb"/>
      <path id="Path_38" data-name="Path 38" d="M270.086,209.071a3.055,3.055,0,0,1-3.2-1.243,6.794,6.794,0,0,1-.491-1.637c-.622-2.4-2.661-4.193-3.665-6.465-1.691-3.829-.215-8.218,1.287-12.129a12.684,12.684,0,0,1,3.077-5.283c2.4-2.094,5.974-2.143,9.156-1.732a18.876,18.876,0,0,0,3.882.291,4.86,4.86,0,0,0,3.433-1.563c.691.44.429,1.458.294,2.255a2.224,2.224,0,0,0,.622,2.191c.646.485,1.852.084,1.8-.71-.582,1.686.7,3.553,2.36,4.29a6.658,6.658,0,0,0,1.717.489,4.088,4.088,0,0,1,3.549,4.081v.019a1.083,1.083,0,0,1-.144.632,1.2,1.2,0,0,1-.511.333,8.121,8.121,0,0,0-3.862,3.626,5.542,5.542,0,0,1-1.6,2.362c-1.009.632-2.326.32-3.523.421a4.979,4.979,0,0,0-4.315,3.481,8.657,8.657,0,0,1-.858,2.906,1.692,1.692,0,0,1-1.174.727c-.931.1-1.358-.721-2.026-1.144-1.569-.995-2.575.318-3.066,1.557A2.932,2.932,0,0,1,270.086,209.071Z" transform="translate(-210.892 -96.664)" opacity="0.1"/>
      <path id="Path_39" data-name="Path 39" d="M270.086,208.071a3.055,3.055,0,0,1-3.2-1.243,6.794,6.794,0,0,1-.491-1.637c-.622-2.4-2.661-4.193-3.665-6.465-1.691-3.829-.215-8.218,1.287-12.129a12.684,12.684,0,0,1,3.077-5.283c2.4-2.094,5.974-2.143,9.156-1.732a18.873,18.873,0,0,0,3.882.291,4.86,4.86,0,0,0,3.433-1.563c.691.44.429,1.458.294,2.255a2.223,2.223,0,0,0,.622,2.191c.646.485,1.852.084,1.8-.71-.582,1.686.7,3.553,2.36,4.29a6.657,6.657,0,0,0,1.717.489,4.088,4.088,0,0,1,3.549,4.081v.019a1.083,1.083,0,0,1-.144.632,1.2,1.2,0,0,1-.511.333,8.121,8.121,0,0,0-3.862,3.626,5.541,5.541,0,0,1-1.6,2.362c-1.009.632-2.326.32-3.523.421a4.979,4.979,0,0,0-4.315,3.481,8.657,8.657,0,0,1-.858,2.906,1.692,1.692,0,0,1-1.174.727c-.931.1-1.358-.721-2.026-1.144-1.569-.995-2.575.318-3.066,1.557A2.932,2.932,0,0,1,270.086,208.071Z" transform="translate(-210.892 -95.875)" fill="#d5d5d5"/>
      <g id="Group_21" data-name="Group 21" transform="translate(57.1 112.616)" opacity="0.05">
        <path id="Path_40" data-name="Path 40" d="M420.24,325.988c11.587,8.736,17.492,22.822,18.314,24.887,1.6.257,2.676.468,2.676.468s-5.89-15.7-18.415-25.146a22.889,22.889,0,0,0-11.456-4.56c-.584-.059-1.133-.089-1.659-.1a22.992,22.992,0,0,1,10.54,4.448Z" transform="translate(-384.015 -321.54)"/>
        <path id="Path_41" data-name="Path 41" d="M292.912,340.049c1.1,4.138,4.18,7.758,6.718,11.235l3.259,4.467.674-2.394-1.356-1.858c-2.538-3.477-5.618-7.1-6.718-11.235-.285-1.075-.182-.843-.858-.843a7.235,7.235,0,0,0-1.781.392Z" transform="translate(-292.238 -335.637)"/>
        <path id="Path_42" data-name="Path 42" d="M475.32,455.714c.7,1.028,1.142,1.728,1.142,1.728-.376-1.654,2.682-1.945,6.246-1.749A24.746,24.746,0,0,0,475.32,455.714Z" transform="translate(-435.555 -427.218)"/>
        <path id="Path_43" data-name="Path 43" d="M321.429,417.1c-1.015-.938-1.871-1.391-2.324-.889-1.717,1.9,3.648,26.971,3.648,26.971L290,445.539l.148.386,35.19-2.529S320.658,421.562,321.429,417.1Z" transform="translate(-290 -396.102)"/>
      </g>
      <path id="Path_44-2" data-name="Path 44" d="M186.093,586.9c-2.053,1.669-7.883,5.668-15.082,4.153s-1.157-4.889,1.594-6.206a1.057,1.057,0,0,0,.582-.72,1.04,1.04,0,0,0-.215-.894,29.677,29.677,0,0,0-5.394-5.03,36.4,36.4,0,0,1-5.686-5.725h0c-.963-1.144-1.847-2.261-2.575-3.2a1.038,1.038,0,0,1-.04-1.236,1.083,1.083,0,0,1,1.184-.422l14.068,3.751a1.075,1.075,0,0,1,.558.36l4.624,5.674,6.534,8.02A1.041,1.041,0,0,1,186.093,586.9Z" transform="translate(-130.081 -403.126)" fill="#ef91a3"/>
      <path id="Path_45-2" data-name="Path 45" d="M179.716,577.382c-11.739-8.407-16.17-6.905-17.825-4.929-.963-1.144-1.848-2.261-2.575-3.2a1.038,1.038,0,0,1-.04-1.236,1.083,1.083,0,0,1,1.184-.422l14.068,3.751a1.074,1.074,0,0,1,.558.36Z" transform="translate(-130.081 -403.102)" opacity="0.1"/>
      <path id="Path_46-2" data-name="Path 46" d="M150.333,485.563s-18.883-6.111-15.879,6.743,6.866,16.014,6.866,16.014,1.073-10.114,19.312,3.161L154.2,501.366l7.51-9.271Z" transform="translate(-110.477 -337.24)" fill="#5d526e"/>
      <path id="Path_47-2" data-name="Path 47" d="M147.013,426.528s-1.717,8.85,4.506,19.6c4.935,8.519-.923,12.4-3.56,13.648a1.886,1.886,0,0,1-2.114-.348,12.244,12.244,0,0,1-3.124-12.668l1.287-3.371-7.081-5.057s-1.916-6.977-1.073-8.546S143.58,424,143.58,424Z" transform="translate(-111.663 -289.795)" opacity="0.1"/>
      <path id="Path_48-2" data-name="Path 48" d="M147.013,424.528s-1.717,8.85,4.506,19.6c4.935,8.519-.923,12.4-3.56,13.648a1.886,1.886,0,0,1-2.114-.348,12.244,12.244,0,0,1-3.124-12.668l1.287-3.371-7.081-5.057s-1.916-6.977-1.073-8.546S143.58,422,143.58,422Z" transform="translate(-111.663 -288.216)" fill="#ef91a3"/>
      <path id="Path_49-2" data-name="Path 49" d="M162.292,354s-15.449,8.639-21.887,14.328-5.15,7.586-5.15,7.586,6.223-11.378,11.587-1.475c0,0,15.02-10.746,19.1-6.111S162.292,354,162.292,354Z" transform="translate(-111.277 -234.545)" fill="#dfecfb"/>
      <path id="Path_50-2" data-name="Path 50" d="M194.06,573.029l12.874-2.529-1.5,6.532-9.33-.954Z" transform="translate(-148.839 -403.85)" fill="#5d526e"/>
      <path id="Path_51-2" data-name="Path 51" d="M232.777,396.306l-.429,4.636L216.9,398.414l-4.721-2.95-7.081-2.529a11.9,11.9,0,0,0,.376-7.046,10.594,10.594,0,0,0-1.234-2.857c-3-4.846,12.66-2.739,12.66-2.739a19.987,19.987,0,0,0-.236,3.3c.032,3.521,1.047,8.483,6.673,7.655l4.721,2.739Z" transform="translate(-165.241 -254.937)" fill="#ffc1cd"/>
      <path id="Path_52-2" data-name="Path 52" d="M267.64,423.939s7.939-3.371,11.8,3.582,5.579,6.532,5.579,6.532l-7.725-4.846Z" transform="translate(-215.338 -289.102)" fill="#ffc1cd"/>
      <path id="Path_53-2" data-name="Path 53" d="M285.336,571.955s-6.008,4.846-2.575,10.957,24.891,5.057,24.891,5.057-13.621-5.025-10.244-21.9C297.408,566.068,287.7,568.794,285.336,571.955Z" transform="translate(-226.383 -401.929)" fill="#5f5470"/>
      <path id="Path_54-2" data-name="Path 54" d="M423.786,618.2,421.64,626.2l7.51-1.475s-3.219-6.743-2.789-8.639S423.786,618.2,423.786,618.2Z" transform="translate(-333.13 -441.007)" fill="#5f5470"/>
      <path id="Path_55-2" data-name="Path 55" d="M441.544,582s19.526,1.9,24.891,4.846l4.077,1.264s1.5-.421,4.721,2.318l16.737,3.793,12.874,2.529s11.8,2.107,12.66,1.686,6.652,3.161,1.073,4.846-17.166-.843-17.166-.843-8.583-1.053-10.514-.421-15.02-1.264-15.02-1.264L463,601.6s-2.146-3.161-7.725-2.107c-3.98.752-10.913-.421-14.557-1.165a3.588,3.588,0,0,1-2.832-2.838l-1.287-6.743Z" transform="translate(-343.846 -414.502)" fill="#ffc1cd"/>
      <path id="Path_56-2" data-name="Path 56" d="M441.544,582s19.526,1.9,24.891,4.846l4.077,1.264s1.5-.421,4.721,2.318l16.737,3.793,12.874,2.529s11.8,2.107,12.66,1.686,6.652,3.161,1.073,4.846-17.166-.843-17.166-.843-8.583-1.053-10.514-.421-15.02-1.264-15.02-1.264L463,601.6s-2.146-3.161-7.725-2.107c-3.98.752-10.913-.421-14.557-1.165a3.588,3.588,0,0,1-2.832-2.838l-1.287-6.743Z" transform="translate(-343.846 -414.502)" opacity="0.05"/>
      <path id="Path_57-2" data-name="Path 57" d="M216.663,383.59a11.988,11.988,0,0,1-11.19,2.295,10.592,10.592,0,0,0-1.234-2.853c-3-4.846,12.66-2.739,12.66-2.739A19.983,19.983,0,0,0,216.663,383.59Z" transform="translate(-165.241 -254.937)" opacity="0.1"/>
      <ellipse id="Ellipse_2" data-name="Ellipse 2" cx="11.802" cy="11.589" rx="11.802" ry="11.589" transform="translate(31.917 107.862)" fill="#ffc1cd"/>
      <path id="Path_58-2" data-name="Path 58" d="M204.64,427.5s9.012,4.846,9.441,8.007-1.287,6.953-1.287,6.953,4.077,24.021,9.227,25.707L235.753,455.1l11.587-5.057s-6.866-.421-7.51-6.743.858-8.428-6.866-11.378a45.468,45.468,0,0,1-11.909-6.427l-2,.5,10.257,5.3s5.794,3.371-9.227.843l-14.162-5.057Z" transform="translate(-165.856 -290.979)" opacity="0.1"/>
      <path id="Path_59-2" data-name="Path 59" d="M203.64,425.5s9.012,4.846,9.441,8.007-1.287,6.953-1.287,6.953,4.077,24.021,9.227,25.707L234.753,453.1l11.587-5.057s-6.866-.421-7.51-6.743.858-8.428-6.866-11.378a45.467,45.467,0,0,1-11.909-6.427l-2,.5,10.257,5.3s5.794,3.371-9.227.843l-14.162-5.057Z" transform="translate(-165.071 -289.4)" fill="#fff"/>
      <path id="Path_60-2" data-name="Path 60" d="M193.058,439.249s-8.8-3.161-6.652,6.953,13.3,27.6,13.3,27.6l26.178-8.85s8.154-6.111,6.008-6.743-13.518,3.371-13.518,3.371L202.928,463.9l-3.648-10.114s3.433-2.318,2.36-5.268l-.032-.088a16.4,16.4,0,0,0-8.208-9.014Z" transform="translate(-151.27 -301.461)" opacity="0.1"/>
      <path id="Path_61-2" data-name="Path 61" d="M191.058,437.249s-8.8-3.161-6.652,6.953,13.3,27.6,13.3,27.6l26.178-8.85s8.154-6.111,6.008-6.743-13.518,3.371-13.518,3.371L200.928,461.9l-3.648-10.114s3.433-2.318,2.36-5.268l-.032-.088a16.4,16.4,0,0,0-8.207-9.014Z" transform="translate(-149.699 -299.883)" fill="#ffc1cd"/>
      <path id="Path_62" data-name="Path 62" d="M86.494,273.775a9.21,9.21,0,0,0-3.139-.322,9.333,9.333,0,0,0-2.856.9,27.459,27.459,0,0,0-4.126,2.341,11.824,11.824,0,0,1-2.747,1.612c-1.517.516-3.272.276-4.669,1.054-1.959,1.087-2.4,3.694-2.107,5.885s1.073,4.374.73,6.557c-.526,3.266-3.412,5.586-6.06,7.626a4.027,4.027,0,0,0-1.858,2.43,4.452,4.452,0,0,0,.363,1.9,15.9,15.9,0,0,1-.165,10.424,14.653,14.653,0,0,1-6.937,7.845c-1.219.632-2.7,1.264-2.98,2.583-.363,1.686,1.476,2.973,3.111,3.567a21.977,21.977,0,0,0,4.12,1.054,6.368,6.368,0,0,0,3.686-.266,6.958,6.958,0,0,0,2.807-3.19c2.7-4.9,6.008-7.3,7.765-12.594.378-1.142.978-2.5,2.2-2.617a3.567,3.567,0,0,1,2.1.8c3.122,1.932,6.4-.234,9.308-2.465a15.824,15.824,0,0,1,2-1.568c1.59-.858,3.907-.611,4.86-2.128a4.164,4.164,0,0,0,.457-1.279,10.178,10.178,0,0,0,.33-5.011c-.418-1.511-1.5-2.739-2.146-4.183s-.678-3.39.633-4.28c.393-.268.858-.4,1.253-.681,1.127-.8,1.152-2.406,1.146-3.774a1.978,1.978,0,0,1,.172-.988,2.4,2.4,0,0,1,.794-.716,7.7,7.7,0,0,0,2.8-3.4c.569-1.507-.888-2.187-2.051-3.034A25.055,25.055,0,0,0,86.494,273.775Z" transform="translate(-44.315 -170.943)" opacity="0.1"/>
      <path id="Path_63-2" data-name="Path 63" d="M85.494,272.775a9.21,9.21,0,0,0-3.139-.322,9.332,9.332,0,0,0-2.856.9,27.468,27.468,0,0,0-4.126,2.341,11.822,11.822,0,0,1-2.747,1.612c-1.517.516-3.272.276-4.669,1.054-1.959,1.087-2.4,3.694-2.107,5.885s1.073,4.374.73,6.557c-.526,3.266-3.412,5.586-6.06,7.626a4.027,4.027,0,0,0-1.858,2.429,4.453,4.453,0,0,0,.363,1.9,15.9,15.9,0,0,1-.165,10.424,14.654,14.654,0,0,1-6.937,7.845c-1.219.632-2.7,1.264-2.98,2.583-.363,1.686,1.476,2.973,3.111,3.567a21.977,21.977,0,0,0,4.12,1.053,6.368,6.368,0,0,0,3.686-.265c1.313-.619,7.706,4,11.8.526,2.7-4.9-2.985-11.013-1.227-16.31.378-1.142.978-2.5,2.2-2.617a3.567,3.567,0,0,1,2.1.8c3.122,1.932,6.4-.234,9.308-2.465a15.82,15.82,0,0,1,2-1.568c1.59-.858,3.907-.611,4.86-2.128a4.163,4.163,0,0,0,.457-1.279,10.178,10.178,0,0,0,.33-5.011c-.418-1.511-1.5-2.739-2.146-4.183s-.678-3.39.633-4.28c.393-.268.858-.4,1.253-.681,1.127-.8,1.152-2.406,1.146-3.774a1.978,1.978,0,0,1,.172-.988,2.4,2.4,0,0,1,.794-.716,7.7,7.7,0,0,0,2.8-3.4c.569-1.507-.888-2.187-2.051-3.034A25.054,25.054,0,0,0,85.494,272.775Z" transform="translate(-43.53 -170.153)" fill="#3c3c3c"/>
      <path id="Path_64-2" data-name="Path 64" d="M415.81,489.856c-5.826,1.207-22.824.7-25.32-1.264-3.819-3-2.88-5.666-2.626-6.216h-.056s2.146-5.057,0-8.85a12.138,12.138,0,0,0-4.721-8.218c-4.506-3.582-9.441-13.7-9.441-13.7l-2.575,5.268s-3.862,11.566-7.886,16.7a8.117,8.117,0,0,0-1.6,3.475,4.435,4.435,0,0,1-4.036,3.635l-.148.025a10.724,10.724,0,0,1-10.514-4.385c-1.931-2.716-4.1-6.484-4.588-10.156a8.818,8.818,0,0,1,2.105-6.926l.024-.027c4.615-5.363,20.64-23.808,23.206-24.883,0,0,11.587-10.957,16.093,3.793s6.008,19.175,6.008,19.175,5.388,9.45,6.866,12.643c1.528,3.3,7.883,11.53,8.529,12.362.59.4,6.27,4.178,8.1,4.178C414.044,486.484,420.007,488.986,415.81,489.856Z" transform="translate(-270.829 -294.865)" fill="#ffc1cd"/>
      <g id="Group_22-2" data-name="Group 22" transform="translate(71.118 154.429)" opacity="0.05">
        <path id="Path_65-2" data-name="Path 65" d="M388.677,547.181a8.768,8.768,0,0,0-.878-5.287,12.139,12.139,0,0,0-4.721-8.218c-4.506-3.582-9.441-13.7-9.441-13.7l-2.575,5.268s-3.862,11.566-7.886,16.7a8.118,8.118,0,0,0-1.6,3.475,4.435,4.435,0,0,1-4.036,3.635l-.148.025a10.724,10.724,0,0,1-10.514-4.385c-1.9-2.685-4.045-6.4-4.568-10.034a8.592,8.592,0,0,0-.019,2.406c.491,3.67,2.667,7.44,4.588,10.156a10.724,10.724,0,0,0,10.514,4.385l.148-.025a4.435,4.435,0,0,0,4.036-3.635,8.116,8.116,0,0,1,1.6-3.475c4.015-5.135,7.886-16.7,7.886-16.7l2.575-5.268s4.935,10.114,9.441,13.7a12.139,12.139,0,0,1,4.721,8.218A7.432,7.432,0,0,1,388.677,547.181Z" transform="translate(-342.219 -519.98)"/>
      </g>
      <path id="Path_66-2" data-name="Path 66" d="M298.14,507.641s9.227-.211,8.583-3.161" transform="translate(-239.294 -353.317)" opacity="0.05"/>
    </g>
  </g>
</svg>
