<svg xmlns="http://www.w3.org/2000/svg" xmlns:xlink="http://www.w3.org/1999/xlink" width="1040" height="243" viewBox="0 0 1040 243">
  <defs>
    <clipPath id="clip-path">
      <rect width="594" height="150" fill="none"/>
    </clipPath>
    <linearGradient id="linear-gradient" x1="0.504" y1="1" x2="0.504" y2="-0.015" gradientUnits="objectBoundingBox">
      <stop offset="0" stop-color="gray" stop-opacity="0.251"/>
      <stop offset="0.54" stop-color="gray" stop-opacity="0.122"/>
      <stop offset="1" stop-color="gray" stop-opacity="0.102"/>
    </linearGradient>
    <linearGradient id="linear-gradient-2" x1="0.504" y1="1" x2="0.504" y2="-0.02" xlink:href="#linear-gradient"/>
    <linearGradient id="linear-gradient-3" x1="0.5" y1="1" x2="0.5" y2="0" xlink:href="#linear-gradient"/>
    <linearGradient id="linear-gradient-4" x1="0.5" y1="1" x2="0.5" y2="0.001" xlink:href="#linear-gradient"/>
  </defs>
  <g id="Group_96" data-name="Group 96" transform="translate(7690 -7557)">
    <g id="Group_97" data-name="Group 97" transform="translate(-1 -825)">
      <rect id="Rectangle_627" data-name="Rectangle 627" width="1040" height="243" rx="15" transform="translate(-7689 8382)" fill="#fff"/>
    </g>
    <g id="Repeat_Grid_25" data-name="Repeat Grid 25" transform="translate(-7575 7574)" clip-path="url(#clip-path)">
      <g transform="translate(7585 -7577)">
        <g id="Rectangle_636" data-name="Rectangle 636" transform="translate(-7585 7577)" fill="#fff" stroke="#000" stroke-width="2">
          <rect width="150" height="150" rx="11" stroke="none"/>
          <rect x="1" y="1" width="148" height="148" rx="10" fill="none"/>
        </g>
      </g>
      <g transform="translate(7797 -7577)">
        <g id="Rectangle_636-2" data-name="Rectangle 636" transform="translate(-7585 7577)" fill="#fff" stroke="#000" stroke-width="2">
          <rect width="150" height="150" rx="11" stroke="none"/>
          <rect x="1" y="1" width="148" height="148" rx="10" fill="none"/>
        </g>
      </g>
      <g transform="translate(8009 -7577)">
        <g id="Rectangle_636-3" data-name="Rectangle 636" transform="translate(-7585 7577)" fill="#fff" stroke="#000" stroke-width="2">
          <rect width="150" height="150" rx="11" stroke="none"/>
          <rect x="1" y="1" width="148" height="148" rx="10" fill="none"/>
        </g>
      </g>
    </g>
    <g id="Group_99" data-name="Group 99" transform="translate(-7567.708 7527.217)">
      <g id="Group_17" data-name="Group 17" transform="translate(56.91 82.195)" opacity="0.05">
        <path id="Path_24" data-name="Path 24" d="M373.4,192.082a.661.661,0,0,0,.084-.362A2.4,2.4,0,0,0,373.4,192.082Z" transform="translate(-373.4 -191.72)" fill="url(#linear-gradient)"/>
      </g>
      <g id="Group_18" data-name="Group 18" transform="translate(56.91 82.011)" opacity="0.05">
        <path id="Path_25" data-name="Path 25" d="M373.4,191.062a.661.661,0,0,0,.084-.362A2.4,2.4,0,0,0,373.4,191.062Z" transform="translate(-373.4 -190.7)" fill="url(#linear-gradient-2)"/>
      </g>
      <path id="Path_26" data-name="Path 26" d="M174.15,261.623c-.4.21-3.644-.291-6.39-.767a5.977,5.977,0,0,0,3.078-1.448c2.95-3.591-10.048-1.511-14.157-.778l-3.307-.7-3.7-.905a166.742,166.742,0,0,1-8.3-15.33c.622-.148,1-.219,1-.219-.029-.119-.06-.235-.091-.353l.091-.018c-3.494-14.051-9.431-12.018-9.431-12.018a8.629,8.629,0,0,0-2.987.856,31.051,31.051,0,0,0-1.539-4.355l-.144-.329c.416.081.658.132.658.132s-.034-.1-.1-.277l.062.013.145.029h.031l.06.013.152.031s-4.788-13.775-14.988-22.062a17.9,17.9,0,0,0-9.33-4c-.181-.02-.356-.034-.528-.047l-.156-.016c-.132,0-.262-.014-.39-.018h-.274a11.226,11.226,0,0,0-5.951,1.629c-.356.181-.718.386-1.094.6a7.526,7.526,0,0,1-.867-.163q-.234-.06-.458-.136a10.6,10.6,0,0,0,5-13.377,6.829,6.829,0,0,1,3.027-2.94.974.974,0,0,0,.416-.291,1.011,1.011,0,0,0,.118-.552v-.2a3.511,3.511,0,0,0-2.89-3.582,5.122,5.122,0,0,1-1.4-.429,3.6,3.6,0,0,1-2.026-2.9,2.49,2.49,0,0,1,.027-.322l-.026.042a1.7,1.7,0,0,1,.026-.226.971.971,0,0,1-1.38.255,1.725,1.725,0,0,1-.547-1.323,3.24,3.24,0,0,1,.041-.413,6.192,6.192,0,0,0,.132-1.159,1.078,1.078,0,0,0-.371-1,3.888,3.888,0,0,1-2.8,1.372,14.28,14.28,0,0,1-3.158-.255c-2.589-.362-5.5-.319-7.452,1.519a11.338,11.338,0,0,0-2.505,4.636,22.49,22.49,0,0,0-1.654,7.445,8.669,8.669,0,0,0,.61,3.381c.817,1.991,2.476,3.566,2.982,5.673a6.243,6.243,0,0,0,.4,1.437,2.387,2.387,0,0,0,2.488,1.11,10,10,0,0,0,1.166,1.05c-.009.118-.019.234-.029.349-.065.724-.157,1.448-.284,2.136-.077-.118-.185-.053-.5-.053H84.51l-.127.016h0l-.139.025h-.029l-.161.036h0l-.171.045H83.86l-.2.056h0l-.214.065h-.01c-.609.194-1.351.476-2.132.795a10.371,10.371,0,0,0-2.565-5.443,5.641,5.641,0,0,0,.658-1.287,1.5,1.5,0,0,0-.467-1.714,9.951,9.951,0,0,0-1.377-1.131,19.755,19.755,0,0,0-7.153-3.575,6.969,6.969,0,0,0-2.555-.282,7.22,7.22,0,0,0-2.326.786,21.98,21.98,0,0,0-3.358,2.055,9.356,9.356,0,0,1-2.237,1.414c-1.235.453-2.662.243-3.8.923-1.594.954-1.951,3.24-1.71,5.163s.879,3.838.593,5.753c-.429,2.866-2.775,4.9-4.933,6.7a3.515,3.515,0,0,0-1.512,2.132,4.226,4.226,0,0,0,.3,1.671,14.983,14.983,0,0,1-.162,9.165,12.6,12.6,0,0,1-5.643,6.879c-.992.543-2.194,1.108-2.426,2.266a2.2,2.2,0,0,0,.749,2.017,5.18,5.18,0,0,0,1.958,1.3,16.849,16.849,0,0,0,3.353.927,4.837,4.837,0,0,0,3-.233,5.976,5.976,0,0,0,2.285-2.8c1.443-2.82,3.1-4.7,4.473-6.967.181.829.327,1.406.342,1.439-1.137,1.086-1.669,2.867-1.047,5.736,2.445,11.277,5.588,14.051,5.588,14.051a4.052,4.052,0,0,1,.648-1.691l.139.181h0a31.169,31.169,0,0,0,4.629,5.023,24.983,24.983,0,0,1,4.383,4.408.968.968,0,0,1,.173.784.919.919,0,0,1-.472.631c-2.238,1.155-7.138,4.12-1.3,5.445s10.6-2.172,12.276-3.644a.966.966,0,0,0,.128-1.3l-5.318-7.036-.655-.856c.352.264.71.543,1.079.827l-.949-1.606,3,.331c.087.194.171.384.263.565a8.626,8.626,0,0,0,1.895,2.884,7.153,7.153,0,0,0,.855,3.742c2.394,4.6,15.6,4.572,19.3,4.473a8.141,8.141,0,0,0,1.04.107,8.231,8.231,0,0,0,1.724-.119l.12-.022a4.315,4.315,0,0,0,1.989-.863l5.255-1.113.118.031c2.965.646,8.608,1.682,11.849,1.023,3.105-.632,4.9.465,5.73,1.222q-.134.507-.316,1h.046c-.207.483-.971,2.822,2.138,5.454,2.031,1.72,15.867,2.172,20.609,1.11,3.42-.764-1.438-2.958-2.1-2.958-1.489,0-6.113-3.318-6.594-3.666-.079-.109-.26-.362-.513-.724,3.215.454,8.875,1.173,9.988.78,1.572-.554,8.55.362,8.55.362s9.431,2.219,13.972.74S174.847,261.254,174.15,261.623Z" transform="translate(-40.592 -93.841)" fill="url(#linear-gradient-3)"/>
      <g id="Group_19" data-name="Group 19" transform="translate(70.222 123.042)" opacity="0.05">
        <path id="Path_27" data-name="Path 27" d="M440.294,423.1a19.939,19.939,0,0,0-3.559,3.43c-.54-3.762-.889-7.154-.664-8.566a1.315,1.315,0,0,1,.2-.588c1.026-.074,3.092,2.625,4.745,5.068C440.559,422.831,440.294,423.1,440.294,423.1Z" transform="translate(-436.002 -417.372)" fill="url(#linear-gradient-4)"/>
      </g>
      <g id="Group_20" data-name="Group 20" transform="translate(65.397 105.213)" opacity="0.05">
        <path id="Path_28" data-name="Path 28" d="M368.49,311.4Z" transform="translate(-368.49 -311.4)" fill="#fff"/>
      </g>
      <path id="Path_29" data-name="Path 29" d="M566.584,540s8.892,18.645,11.115,19.369a4.426,4.426,0,0,0,3.762-.362s18.468-3.62,15.048.543-33.345,1.629-33.345,1.629l-7.524-17.921Z" transform="translate(-463.673 -394.76)" fill="#ef91a3"/>
      <path id="Path_30" data-name="Path 30" d="M434.164,495.683s14.364-10.137,18.3-10.137c0,0,5.814-1.991,9.234,11.766,0,0-11.8,2.172-11.628,8.146l-2.223-5.069-9.576,11.223-11.628-8.327Z" transform="translate(-357.779 -350.081)" opacity="0.1"/>
      <path id="Path_31" data-name="Path 31" d="M434.164,493.683s14.364-10.137,18.3-10.137c0,0,5.814-1.991,9.234,11.766,0,0-11.8,2.172-11.628,8.146l-2.223-5.069-9.576,11.223-11.628-8.327Z" transform="translate(-357.779 -348.443)" fill="#5d526e"/>
      <path id="Path_32" data-name="Path 32" d="M494.511,454.6c-.855,4.344-5.3,5.069-5.3,5.069l-6.327-4.163s-.893-6.236-1.647-10.037a11.985,11.985,0,0,0-.747-2.815c-.684-.905,10.089-.724,10.089-.724a45.848,45.848,0,0,1,2.062,4.176C493.813,448.823,494.967,452.28,494.511,454.6Z" transform="translate(-402.243 -314.433)" fill="#ef91a3"/>
      <path id="Path_33" data-name="Path 33" d="M313.436,287.039l-3.591,18.1-8.721-2.353s-8.037-6.7-5.643-10.861a13.863,13.863,0,0,0,1.368-5.389,48.445,48.445,0,0,0-.171-8.73s9.576-2.715,7.695,4.707c-.773,3.048.617,4.355,2.524,4.839C309.635,288.041,313.436,287.039,313.436,287.039Z" transform="translate(-249.765 -179.631)" fill="#ef91a3"/>
      <path id="Path_34" data-name="Path 34" d="M314.859,287.348a9.1,9.1,0,0,1-4.4,1.139c-2.112,0-4.145-1.4-5.729-2.625a43.764,43.764,0,0,0-.086-8.055s9.576-2.715,7.7,4.707C311.562,285.558,312.952,286.858,314.859,287.348Z" transform="translate(-259.488 -179.631)" opacity="0.1"/>
      <ellipse id="Ellipse_1" data-name="Ellipse 1" cx="9.576" cy="10.137" rx="9.576" ry="10.137" transform="translate(41.39 88.216)" fill="#ef91a3"/>
      <path id="Path_35" data-name="Path 35" d="M260.827,336.154l2.6,3.838,1.477-5.671a29.771,29.771,0,0,0,.9-6.951,4.96,4.96,0,0,1,.875-2.764c2.664-1.539,4.643-2.353,8-1.991a17.523,17.523,0,0,1,9.13,3.915c9.981,8.119,14.675,21.608,14.675,21.608s-13.68-2.9-13,.362c0,0-5.985-10.137-7.353-8.508s2.907,23.17,2.907,23.17l-28.044,2.172L245.64,344.7l.342-15.386s7.268-3.53,8.807-3.53c.539,0,.457-.2.684.724C256.35,330.058,258.805,333.168,260.827,336.154Z" transform="translate(-210.577 -216.655)" opacity="0.1"/>
      <path id="Path_36" data-name="Path 36" d="M492.64,446.089c-2.379-.454-9.116-1.615-11.4-.637a11.987,11.987,0,0,0-.747-2.815c-.684-.905,10.089-.724,10.089-.724A45.835,45.835,0,0,1,492.64,446.089Z" transform="translate(-402.265 -314.417)" opacity="0.1"/>
      <path id="Path_37" data-name="Path 37" d="M262.827,335.154l2.6,3.838,1.477-5.671a29.77,29.77,0,0,0,.9-6.951,4.96,4.96,0,0,1,.875-2.764c2.664-1.539,4.643-2.353,8-1.991a17.523,17.523,0,0,1,9.13,3.915c9.981,8.119,14.675,21.608,14.675,21.608s-13.68-2.9-13,.362c0,0-5.985-10.137-7.353-8.508s2.907,23.17,2.907,23.17l-28.044,2.172L247.64,343.7l.342-15.386s7.268-3.53,8.807-3.53c.539,0,.457-.2.684.724C258.35,329.058,260.805,332.168,262.827,335.154Z" transform="translate(-212.235 -215.836)" fill="#dfecfb"/>
      <path id="Path_38" data-name="Path 38" d="M268.44,204.877a2.355,2.355,0,0,1-2.548-1.068,6.174,6.174,0,0,1-.392-1.407c-.5-2.062-2.12-3.6-2.921-5.554-1.347-3.289-.171-7.06,1.026-10.419a11.114,11.114,0,0,1,2.452-4.538c1.912-1.8,4.761-1.841,7.3-1.488a13.977,13.977,0,0,0,3.093.25,3.76,3.76,0,0,0,2.736-1.343c.551.378.342,1.253.234,1.937a2.008,2.008,0,0,0,.5,1.883c.515.416,1.476.072,1.433-.61a3.278,3.278,0,0,0,1.881,3.686,5.014,5.014,0,0,0,1.368.42,3.438,3.438,0,0,1,2.828,3.506v.016a.991.991,0,0,1-.115.543.954.954,0,0,1-.407.286,6.7,6.7,0,0,0-3.078,3.115,4.791,4.791,0,0,1-1.274,2.029c-.8.543-1.854.275-2.808.362a4.047,4.047,0,0,0-3.439,2.99,7.874,7.874,0,0,1-.684,2.5,1.34,1.34,0,0,1-.935.624c-.742.085-1.082-.619-1.614-.983-1.25-.854-2.052.273-2.444,1.338A2.393,2.393,0,0,1,268.44,204.877Z" transform="translate(-224.122 -99.361)" opacity="0.1"/>
      <path id="Path_39" data-name="Path 39" d="M268.44,203.877a2.355,2.355,0,0,1-2.548-1.068,6.173,6.173,0,0,1-.392-1.406c-.5-2.062-2.12-3.6-2.921-5.554-1.347-3.289-.171-7.06,1.026-10.419a11.114,11.114,0,0,1,2.452-4.538c1.912-1.8,4.761-1.841,7.3-1.488a13.978,13.978,0,0,0,3.093.25,3.76,3.76,0,0,0,2.736-1.343c.551.378.342,1.253.234,1.937a2.008,2.008,0,0,0,.5,1.883c.515.416,1.476.072,1.433-.61a3.278,3.278,0,0,0,1.881,3.685,5.014,5.014,0,0,0,1.368.42,3.438,3.438,0,0,1,2.828,3.506v.016a.991.991,0,0,1-.115.543.954.954,0,0,1-.407.286,6.7,6.7,0,0,0-3.078,3.115,4.791,4.791,0,0,1-1.274,2.029c-.8.543-1.854.275-2.808.362a4.047,4.047,0,0,0-3.439,2.99,7.874,7.874,0,0,1-.684,2.5,1.34,1.34,0,0,1-.935.625c-.742.085-1.082-.619-1.614-.983-1.25-.854-2.052.273-2.444,1.338A2.393,2.393,0,0,1,268.44,203.877Z" transform="translate(-224.122 -98.542)" fill="#572142"/>
      <g id="Group_21" data-name="Group 21" transform="translate(42.649 105.695)" opacity="0.05">
        <path id="Path_40" data-name="Path 40" d="M418.1,325.361c9.234,7.505,13.94,19.606,14.595,21.38,1.274.221,2.132.4,2.132.4s-4.694-13.488-14.675-21.6a17.523,17.523,0,0,0-9.13-3.917c-.465-.051-.9-.076-1.322-.083a17.656,17.656,0,0,1,8.4,3.821Z" transform="translate(-389.231 -321.54)"/>
        <path id="Path_41" data-name="Path 41" d="M292.9,339.958c.877,3.555,3.331,6.665,5.354,9.652l2.6,3.838.537-2.056-1.081-1.6c-2.023-2.987-4.477-6.1-5.354-9.652-.227-.923-.145-.724-.684-.724a5.414,5.414,0,0,0-1.419.337Z" transform="translate(-292.363 -336.167)"/>
        <path id="Path_42" data-name="Path 42" d="M475.32,455.674c.556.883.91,1.484.91,1.484-.3-1.421,2.137-1.671,4.978-1.5A18.312,18.312,0,0,0,475.32,455.674Z" transform="translate(-443.63 -431.194)"/>
        <path id="Path_43" data-name="Path 43" d="M315.046,416.949c-.809-.806-1.491-1.195-1.852-.764-1.368,1.629,2.907,23.17,2.907,23.17L290,441.377l.118.331,28.044-2.172S314.432,420.779,315.046,416.949Z" transform="translate(-290 -398.907)"/>
      </g>
      <path id="Path_44" data-name="Path 44" d="M180.61,584.182c-1.636,1.434-6.283,4.869-12.02,3.568s-.922-4.2,1.271-5.331a.9.9,0,0,0,.464-.618.945.945,0,0,0-.171-.768,24.464,24.464,0,0,0-4.3-4.321,30.242,30.242,0,0,1-4.532-4.918h0c-.768-.983-1.472-1.942-2.052-2.748a.948.948,0,0,1-.032-1.062.832.832,0,0,1,.944-.362l11.211,3.222a.854.854,0,0,1,.445.309l3.685,4.875,5.207,6.889A.942.942,0,0,1,180.61,584.182Z" transform="translate(-138.828 -417.353)" fill="#ef91a3"/>
      <path id="Path_45" data-name="Path 45" d="M175.528,576c-9.355-7.223-12.887-5.932-14.2-4.234-.768-.983-1.472-1.942-2.052-2.748a.948.948,0,0,1-.032-1.062.832.832,0,0,1,.944-.362l11.211,3.222a.854.854,0,0,1,.445.31Z" transform="translate(-138.828 -417.328)" opacity="0.1"/>
      <path id="Path_46" data-name="Path 46" d="M147.043,485.358s-15.048-5.249-12.654,5.793,5.472,13.757,5.472,13.757.855-8.689,15.39,2.715l-5.13-8.689,5.985-7.965Z" transform="translate(-118.135 -348.988)" fill="#5d526e"/>
      <path id="Path_47" data-name="Path 47" d="M144.7,426.172s-1.368,7.6,3.591,16.835c3.933,7.319-.735,10.655-2.837,11.725a1.422,1.422,0,0,1-1.684-.3,11.051,11.051,0,0,1-2.49-10.883l1.026-2.9-5.643-4.344s-1.527-5.993-.855-7.342S141.968,424,141.968,424Z" transform="translate(-119.387 -299.758)" opacity="0.1"/>
      <path id="Path_48" data-name="Path 48" d="M144.7,424.172s-1.368,7.6,3.591,16.835c3.933,7.319-.735,10.655-2.837,11.725a1.422,1.422,0,0,1-1.684-.3,11.051,11.051,0,0,1-2.49-10.883l1.026-2.9-5.643-4.344s-1.527-5.993-.855-7.342S141.968,422,141.968,422Z" transform="translate(-119.387 -298.12)" fill="#ef91a3"/>
      <path id="Path_49" data-name="Path 49" d="M156.78,354s-12.312,7.422-17.442,12.309-4.1,6.517-4.1,6.517,4.959-9.775,9.234-1.267c0,0,11.97-9.232,15.219-5.249S156.78,354,156.78,354Z" transform="translate(-118.981 -242.429)" fill="#dfecfb"/>
      <path id="Path_50" data-name="Path 50" d="M194.06,572.672l10.26-2.172-1.2,5.611-7.435-.82Z" transform="translate(-160.878 -418.385)" fill="#5d526e"/>
      <path id="Path_51" data-name="Path 51" d="M226.9,393.986l-.342,3.982L214.25,395.8l-3.762-2.534-5.643-2.172a10.974,10.974,0,0,0,.3-6.053,9.485,9.485,0,0,0-.983-2.455c-2.394-4.163,10.089-2.353,10.089-2.353a18.482,18.482,0,0,0-.188,2.837c.026,3.025.834,7.288,5.318,6.576l3.762,2.353Z" transform="translate(-175.938 -263.589)" fill="#ffc1cd"/>
      <path id="Path_52" data-name="Path 52" d="M267.64,423.824s6.327-2.9,9.405,3.077,4.446,5.612,4.446,5.612l-6.156-4.163Z" transform="translate(-228.815 -299.039)" fill="#ffc1cd"/>
      <path id="Path_53" data-name="Path 53" d="M284.6,571.126s-4.788,4.163-2.052,9.413,19.836,4.344,19.836,4.344-10.855-4.317-8.163-18.813C294.219,566.068,286.479,568.411,284.6,571.126Z" transform="translate(-240.472 -416.111)" fill="#5f5470"/>
      <path id="Path_54" data-name="Path 54" d="M423.35,617.828l-1.71,6.878,5.985-1.267s-2.565-5.792-2.223-7.422S423.35,617.828,423.35,617.828Z" transform="translate(-353.96 -456.659)" fill="#5f5470"/>
      <path id="Path_55" data-name="Path 55" d="M440.54,582s15.561,1.629,19.836,4.163l3.249,1.086s1.2-.362,3.762,1.991l13.338,3.258,10.26,2.172s9.405,1.81,10.089,1.448,5.3,2.715.855,4.163-13.68-.724-13.68-.724-6.84-.905-8.379-.362-11.97-1.086-11.97-1.086l-10.26.724s-1.71-2.715-6.156-1.81c-3.172.646-8.7-.362-11.6-1a2.98,2.98,0,0,1-2.257-2.438l-1.026-5.792Z" transform="translate(-365.537 -429.158)" fill="#ffc1cd"/>
      <path id="Path_56" data-name="Path 56" d="M440.54,582s15.561,1.629,19.836,4.163l3.249,1.086s1.2-.362,3.762,1.991l13.338,3.258,10.26,2.172s9.405,1.81,10.089,1.448,5.3,2.715.855,4.163-13.68-.724-13.68-.724-6.84-.905-8.379-.362-11.97-1.086-11.97-1.086l-10.26.724s-1.71-2.715-6.156-1.81c-3.172.646-8.7-.362-11.6-1a2.98,2.98,0,0,1-2.257-2.438l-1.026-5.792Z" transform="translate(-365.537 -429.158)" opacity="0.05"/>
      <path id="Path_57" data-name="Path 57" d="M214.062,383.061a9.029,9.029,0,0,1-8.918,1.971,9.482,9.482,0,0,0-.983-2.451c-2.394-4.163,10.089-2.353,10.089-2.353A18.481,18.481,0,0,0,214.062,383.061Z" transform="translate(-175.938 -263.589)" opacity="0.1"/>
      <ellipse id="Ellipse_2" data-name="Ellipse 2" cx="9.405" cy="9.956" rx="9.405" ry="9.956" transform="translate(22.58 101.611)" fill="#ffc1cd"/>
      <path id="Path_58" data-name="Path 58" d="M204.64,427.22s7.182,4.163,7.524,6.879a13.941,13.941,0,0,1-1.026,5.974s3.249,20.636,7.353,22.084l10.944-11.223,9.234-4.344s-5.472-.362-5.985-5.793.684-7.241-5.472-9.775a35.647,35.647,0,0,1-9.491-5.521l-1.59.425,8.174,4.553s4.617,2.9-7.353.724l-11.286-4.344Z" transform="translate(-176.588 -300.987)" opacity="0.1"/>
      <path id="Path_59" data-name="Path 59" d="M203.64,425.22s7.182,4.163,7.524,6.879a13.941,13.941,0,0,1-1.026,5.974s3.249,20.636,7.353,22.084l10.944-11.223,9.234-4.344s-5.472-.362-5.985-5.793.684-7.241-5.472-9.775a35.647,35.647,0,0,1-9.491-5.521l-1.59.425,8.174,4.553s4.617,2.9-7.353.724l-11.286-4.344Z" transform="translate(-175.759 -299.349)" fill="#fff"/>
      <path id="Path_60" data-name="Path 60" d="M191.638,439.183s-7.011-2.715-5.3,5.974,10.6,23.713,10.6,23.713l20.862-7.6s6.5-5.25,4.788-5.793-10.773,2.9-10.773,2.9L199.5,460.362l-2.907-8.689s2.736-1.991,1.881-4.525l-.026-.076a13.763,13.763,0,0,0-6.541-7.744Z" transform="translate(-161.192 -311.864)" opacity="0.1"/>
      <path id="Path_61" data-name="Path 61" d="M189.638,437.183s-7.011-2.715-5.3,5.974,10.6,23.713,10.6,23.713l20.862-7.6s6.5-5.25,4.788-5.793-10.773,2.9-10.773,2.9L197.5,458.362l-2.907-8.689s2.736-1.991,1.881-4.525l-.026-.076a13.762,13.762,0,0,0-6.541-7.744Z" transform="translate(-159.534 -310.226)" fill="#ffc1cd"/>
      <path id="Path_62" data-name="Path 62" d="M79.061,273.725a6.834,6.834,0,0,0-2.5-.277,7.056,7.056,0,0,0-2.276.769A21.512,21.512,0,0,0,71,276.228a9.293,9.293,0,0,1-2.189,1.385c-1.209.443-2.608.237-3.721.905-1.561.934-1.91,3.173-1.679,5.056s.855,3.758.581,5.633c-.419,2.806-2.719,4.8-4.829,6.551a3.441,3.441,0,0,0-1.481,2.087,4.087,4.087,0,0,0,.289,1.629,14.67,14.67,0,0,1-.132,8.955,12.333,12.333,0,0,1-5.528,6.739c-.971.543-2.148,1.086-2.375,2.219-.289,1.448,1.176,2.554,2.48,3.065a16.5,16.5,0,0,0,3.283.905,4.73,4.73,0,0,0,2.938-.228,5.859,5.859,0,0,0,2.237-2.741c2.153-4.207,4.788-6.269,6.188-10.819.3-.981.78-2.149,1.749-2.248a2.726,2.726,0,0,1,1.671.686c2.488,1.66,5.1-.2,7.418-2.118a12.8,12.8,0,0,1,1.59-1.347c1.267-.737,3.114-.525,3.873-1.828a3.762,3.762,0,0,0,.364-1.1,9.4,9.4,0,0,0,.263-4.3,28.255,28.255,0,0,0-1.71-3.593c-.513-1.24-.54-2.913.5-3.676.313-.23.684-.348,1-.585.9-.69.918-2.067.913-3.242a1.817,1.817,0,0,1,.137-.849,1.97,1.97,0,0,1,.633-.615,6.535,6.535,0,0,0,2.235-2.923c.453-1.294-.708-1.879-1.635-2.607A19.341,19.341,0,0,0,79.061,273.725Z" transform="translate(-48.304 -176.434)" opacity="0.1"/>
      <path id="Path_63" data-name="Path 63" d="M78.061,272.725a6.832,6.832,0,0,0-2.5-.277,7.055,7.055,0,0,0-2.276.769A21.52,21.52,0,0,0,70,275.228a9.292,9.292,0,0,1-2.189,1.385c-1.209.444-2.608.237-3.721.905-1.561.934-1.91,3.173-1.679,5.056s.855,3.758.581,5.633c-.419,2.806-2.719,4.8-4.829,6.551a3.441,3.441,0,0,0-1.481,2.087,4.087,4.087,0,0,0,.289,1.629,14.67,14.67,0,0,1-.132,8.955,12.333,12.333,0,0,1-5.528,6.739c-.971.543-2.148,1.086-2.375,2.219-.289,1.448,1.176,2.554,2.48,3.065a16.493,16.493,0,0,0,3.283.905,4.73,4.73,0,0,0,2.938-.228c1.047-.532,6.141,3.437,9.4.452,2.153-4.207-2.379-9.461-.978-14.012.3-.981.78-2.149,1.749-2.248a2.726,2.726,0,0,1,1.671.686c2.488,1.66,5.1-.2,7.418-2.118a12.8,12.8,0,0,1,1.59-1.347c1.267-.737,3.114-.525,3.873-1.828a3.762,3.762,0,0,0,.364-1.1,9.4,9.4,0,0,0,.263-4.3,28.264,28.264,0,0,0-1.71-3.593c-.513-1.24-.54-2.913.5-3.676.313-.23.684-.348,1-.585.9-.69.918-2.067.913-3.242a1.817,1.817,0,0,1,.137-.849,1.971,1.971,0,0,1,.633-.615,6.534,6.534,0,0,0,2.235-2.923c.453-1.294-.708-1.879-1.635-2.607A19.34,19.34,0,0,0,78.061,272.725Z" transform="translate(-47.475 -175.615)" fill="#332020"/>
      <path id="Path_64" data-name="Path 64" d="M400.868,481.48c-4.643,1.037-18.189.6-20.178-1.086-3.044-2.578-2.295-4.868-2.093-5.34h-.044s1.71-4.344,0-7.6a10.726,10.726,0,0,0-3.762-7.06c-3.591-3.077-7.524-11.766-7.524-11.766l-2.052,4.525s-3.078,9.936-6.284,14.347a7.234,7.234,0,0,0-1.272,2.985,3.668,3.668,0,0,1-3.216,3.123l-.118.022a8.282,8.282,0,0,1-8.379-3.767,21.926,21.926,0,0,1-3.656-8.725,7.98,7.98,0,0,1,1.678-5.95l.019-.023c3.678-4.607,16.449-20.453,18.494-21.376,0,0,9.234-9.413,12.825,3.258s4.788,16.473,4.788,16.473,4.294,8.119,5.472,10.861c1.218,2.835,6.283,9.905,6.8,10.62.47.34,5,3.59,6.455,3.59C399.46,478.584,404.213,480.733,400.868,481.48Z" transform="translate(-288.184 -305.019)" fill="#ffc1cd"/>
      <g id="Group_22" data-name="Group 22" transform="translate(53.821 141.616)" opacity="0.05">
        <path id="Path_65" data-name="Path 65" d="M379.243,543.348a8.051,8.051,0,0,0-.7-4.542,10.726,10.726,0,0,0-3.762-7.06c-3.591-3.077-7.524-11.766-7.524-11.766l-2.052,4.525s-3.078,9.936-6.284,14.347a7.234,7.234,0,0,0-1.272,2.985,3.668,3.668,0,0,1-3.217,3.122l-.118.022a8.282,8.282,0,0,1-8.379-3.767,22.236,22.236,0,0,1-3.641-8.62,7.95,7.95,0,0,0-.015,2.067,22.06,22.06,0,0,0,3.656,8.725,8.282,8.282,0,0,0,8.379,3.767l.118-.022a3.668,3.668,0,0,0,3.217-3.123,7.233,7.233,0,0,1,1.272-2.985c3.2-4.411,6.284-14.344,6.284-14.344l2.052-4.526s3.933,8.689,7.524,11.766a10.726,10.726,0,0,1,3.762,7.06A6.744,6.744,0,0,1,379.243,543.348Z" transform="translate(-342.219 -519.98)"/>
      </g>
      <path id="Path_66" data-name="Path 66" d="M298.14,507.2s7.353-.181,6.84-2.715" transform="translate(-254.099 -365.67)" opacity="0.05"/>
    </g>
    <text id="Couples" transform="translate(-7494 7754)" font-size="16" font-family="SegoeUI, Segoe UI"><tspan x="-28.387" y="0">Couples</tspan></text>
    <text id="_25" data-name="25" transform="translate(-7494 7788)" fill="#6f6f6f" font-size="16" font-family="SegoeUI, Segoe UI"><tspan x="-8.625" y="0">25</tspan></text>
    <text id="Single_Women" data-name="Single Women" transform="translate(-7288 7754)" font-size="16" font-family="SegoeUI, Segoe UI"><tspan x="-51.188" y="0">Single Women</tspan></text>
    <text id="_14" data-name="14" transform="translate(-7288 7788)" fill="#6f6f6f" font-size="16" font-family="SegoeUI, Segoe UI"><tspan x="-8.625" y="0">14</tspan></text>
    <g id="Group_100" data-name="Group 100" transform="translate(-7430.727 7582.458)">
      <rect id="Rectangle_640" data-name="Rectangle 640" width="17.954" height="22.496" transform="translate(133.163 7.536)" fill="#2f2e41"/>
      <path id="Path_320" data-name="Path 320" d="M147.92,451.681l-2.448,9.053,4.081,3.018,1.088-.823,1.9-9.328Z" transform="translate(-29.583 -339.209)" fill="#ffb8b8"/>
      <path id="Path_321" data-name="Path 321" d="M276.912,448.376,276.1,459.35h5.169V449.2Z" transform="translate(-127.835 -336.727)" fill="#ffb8b8"/>
      <path id="Path_322" data-name="Path 322" d="M213.528,169.635v6.584l10.066,1.646,8.7-3.566-1.632-4.115Z" transform="translate(-80.773 -127.395)" fill="#ffb8b8"/>
      <path id="Path_323" data-name="Path 323" d="M333.823,318.307l-8.705-1.646-2.176,17.832L317.5,356.714s-8.161,18.93-7.073,23.319l.544,1.372-.544,2.469,5.441,2.195,2.176-3.566s1.632,2.469,4.353-2.743,14.146-37.585,14.146-37.585l1.9,5.487a11.4,11.4,0,0,0-.272,5.213c.544,2.743,1.088,11.248,1.088,11.248s-2.992,14.815,1.088,15.912l.816,3.292,5.713.549,1.088-3.292s5.441-1.92,4.081-11.522-1.9-41.151-1.9-41.151l-5.359-13.326Z" transform="translate(-192.907 -270.579)" fill="#343434"/>
      <path id="Path_324" data-name="Path 324" d="M276.194,621.088s-1.36-1.1-1.9-.823-6.257,7.682-6.257,7.682-5.985,4.664-1.632,5.213,16.322-5.487,16.322-6.859-2.515-4.807-2.515-4.807A3.039,3.039,0,0,1,276.194,621.088Z" transform="translate(-158.673 -500.111)" fill="#f5f5f5"/>
      <path id="Path_325" data-name="Path 325" d="M429.73,620.233s4.9-.307,5.713.532.544,4.954.544,4.954.544,7.407-3.809,7.407-3.264-4.938-3.264-4.938Z" transform="translate(-282.013 -500.079)" fill="#f5f5f5"/>
      <ellipse id="Ellipse_14" data-name="Ellipse 14" cx="6.801" cy="6.859" rx="6.801" ry="6.859" transform="translate(136.019 4.381)" fill="#ffb8b8"/>
      <path id="Path_326" data-name="Path 326" d="M375.9,200.083s3.809,4.664-3.808,8.23,5.441,18.381,5.441,18.381,15.234-5.761,13.874-17.009c0,0-9.249-1.646-7.073-9.328Z" transform="translate(-237.572 -184.591)" fill="#ffb8b8"/>
      <path id="Path_327" data-name="Path 327" d="M353.139,231.891s-6.257-.823-6.529,4.389,0,17.832,0,17.832-2.72,10.974-1.36,20.576c0,0-1.632,11.248,2.72,10.7s1.088-11.522,1.088-11.522l1.9-17.832-.816-13.168,3.536-7.956Z" transform="translate(-218.888 -208.443)" fill="#ffb8b8"/>
      <path id="Path_328" data-name="Path 328" d="M444.958,236.9s5.932-.115,6.2,4.275-1.9,17.832-1.9,17.832l-3.264,1.646L443,251.326Z" transform="translate(-292.7 -212.24)" fill="#ffb8b8"/>
      <path id="Path_329" data-name="Path 329" d="M442.861,325.143l-.544,1.372,1.632,4.115s-6.529,5.213-5.985,6.31,3.536-1.372,3.536-1.372l4.353,2.195s3.536-3.841,1.9-7.407a41.6,41.6,0,0,1-2.263-5.935S443.133,324.32,442.861,325.143Z" transform="translate(-288.887 -277.965)" fill="#ffb8b8"/>
      <path id="Path_330" data-name="Path 330" d="M366.141,228.178l-.816,9.053s-3.809,3.841.544,9.053l-.544,4.115s10.065-.549,11.97,0,7.785-.442,7.785-.442l.1-3.125a14.192,14.192,0,0,0,1.9-9.6c-.816-5.761,0-7.682,0-7.682l-1.9-.274s-1.224,8.367-9.657,9.19c0,0-10.473.96-7.481-10.288Z" transform="translate(-233.114 -205.69)" fill="#fff"/>
      <path id="Path_331" data-name="Path 331" d="M356.684,138s-7.073-.442-8.705,3.993a16.773,16.773,0,0,1-4.489,6.764,7.313,7.313,0,0,0-2.25,8.785s-7,4.744-2.375,8.957a10.41,10.41,0,0,0,2.448,7.1s2.176,1.109,1.36,1.774,5.441.222,4.9-5.766A14.718,14.718,0,0,1,350.7,159.4s-3.536-7.764-1.9-10.425c.991-1.616,1.417-2.821,2.239-3.518a10.363,10.363,0,0,0,1.27-1.25,2.916,2.916,0,0,1,3.156-.993,4.174,4.174,0,0,1,2.992,2.661s1.768,4.768,4.761,6.986-2.312,6.1-2.312,6.1.922,4.569,3.317,7.275-.69,5.063-.869,5.367c-.408.692-2.038,5.062,4.694,5.082a20,20,0,0,1,3.739-5.3c2.176-2,.544-7.762.544-7.762s3.264-2-.272-6.875c0,0,1.088-4.436-1.9-7.319C370.15,149.42,365.934,136.444,356.684,138Z" transform="translate(-213.184 -137.868)" fill="#303039"/>
      <ellipse id="Ellipse_15" data-name="Ellipse 15" cx="0.68" cy="1.097" rx="0.68" ry="1.097" transform="translate(134.795 10.005)" fill="#ffb8b8"/>
    </g>
    <text id="_" data-name="+" transform="translate(-7085 7660)" font-size="30" font-family="HelveticaNeue-Bold, Helvetica Neue" font-weight="700"><tspan x="0" y="0">+</tspan></text>
  </g>
</svg>
